<svg width="14" height="12" viewBox="0 0 14 12" fill="none" xmlns="http://www.w3.org/2000/svg">
<path fill-rule="evenodd" clip-rule="evenodd" d="M11.4735 9.70997C12.0048 9.17863 12.3032 8.45802 12.3032 7.70664C12.3032 6.95526 12.0048 6.23464 11.4735 5.7033L7.1135 1.3433C6.98841 1.2183 6.91809 1.04872 6.91803 0.871872C6.91797 0.695025 6.98816 0.525396 7.11317 0.400302C7.23817 0.275209 7.40775 0.204897 7.5846 0.204834C7.76144 0.204772 7.93107 0.274964 8.05617 0.399969L12.4162 4.75997C13.1977 5.5413 13.6368 6.60107 13.6369 7.70616C13.637 8.81125 13.1982 9.87113 12.4168 10.6526C11.6355 11.4341 10.5757 11.8733 9.47064 11.8734C8.36555 11.8735 7.30567 11.4346 6.52417 10.6533L1.2215 5.34997C0.658798 4.78718 0.342711 4.02391 0.342773 3.22807C0.342836 2.43222 0.659043 1.669 1.22183 1.1063C1.78462 0.543602 2.54789 0.227514 3.34373 0.227577C4.13958 0.227639 4.9028 0.543846 5.4655 1.10664L10.7675 6.40864C11.1032 6.75441 11.2894 7.21839 11.2858 7.70032C11.2822 8.18224 11.0892 8.64341 10.7483 8.98414C10.4075 9.32488 9.94631 9.51783 9.46438 9.52129C8.98245 9.52475 8.51852 9.33845 8.17283 9.00264L3.34217 4.1713C3.21707 4.0463 3.14676 3.87672 3.1467 3.69987C3.14663 3.52302 3.21683 3.3534 3.34183 3.2283C3.46684 3.10321 3.63642 3.0329 3.81326 3.03283C3.99011 3.03277 4.15974 3.10296 4.28483 3.22797L9.11617 8.0593C9.21005 8.15328 9.33743 8.20611 9.47026 8.20617C9.6031 8.20623 9.73052 8.15352 9.8245 8.05964C9.91847 7.96575 9.9713 7.83838 9.97137 7.70554C9.97143 7.5727 9.91872 7.44528 9.82483 7.3513L4.52283 2.0493C4.36805 1.89443 4.18427 1.77156 3.982 1.68771C3.77974 1.60386 3.56293 1.56067 3.34397 1.56061C3.12501 1.56055 2.90818 1.60362 2.70586 1.68735C2.50355 1.77109 2.3197 1.89385 2.16483 2.04864C1.85205 2.36124 1.67627 2.78529 1.67614 3.2275C1.67602 3.66971 1.85156 4.09386 2.16417 4.40664L7.46683 9.7093C7.99817 10.2406 8.71879 10.539 9.47017 10.539C10.2215 10.539 10.9422 10.2406 11.4735 9.7093V9.70997Z" fill="#32B9CA"/>
</svg>
