<svg width="16" height="16" viewBox="0 0 16 16" fill="none" xmlns="http://www.w3.org/2000/svg">
<path d="M0.5 13.2498C0.5 14.5248 1.475 15.4998 2.75 15.4998H13.25C14.525 15.4998 15.5 14.5248 15.5 13.2498V7.24985H0.5V13.2498ZM13.25 1.99985H11.75V1.24985C11.75 0.799847 11.45 0.499847 11 0.499847C10.55 0.499847 10.25 0.799847 10.25 1.24985V1.99985H5.75V1.24985C5.75 0.799847 5.45 0.499847 5 0.499847C4.55 0.499847 4.25 0.799847 4.25 1.24985V1.99985H2.75C1.475 1.99985 0.5 2.97485 0.5 4.24985V5.74985H15.5V4.24985C15.5 2.97485 14.525 1.99985 13.25 1.99985Z" fill="#28B6C8"/>
</svg>
