<svg width="20" height="20" viewBox="0 0 20 20" fill="none" xmlns="http://www.w3.org/2000/svg">
<path d="M19.1659 15.8333C19.1659 16.2754 18.9903 16.6993 18.6777 17.0118C18.3651 17.3244 17.9412 17.5 17.4992 17.5H2.49919C2.05716 17.5 1.63324 17.3244 1.32067 17.0118C1.00811 16.6993 0.83252 16.2754 0.83252 15.8333V6.66667C0.83252 6.22464 1.00811 5.80072 1.32067 5.48816C1.63324 5.17559 2.05716 5 2.49919 5H5.83252L7.49919 2.5H12.4992L14.1659 5H17.4992C17.9412 5 18.3651 5.17559 18.6777 5.48816C18.9903 5.80072 19.1659 6.22464 19.1659 6.66667V15.8333Z" stroke="black" stroke-opacity="0.8" stroke-width="1.66667" stroke-linecap="round" stroke-linejoin="round"/>
<path d="M10.0008 14.1667C11.8418 14.1667 13.3341 12.6743 13.3341 10.8333C13.3341 8.99238 11.8418 7.5 10.0008 7.5C8.15986 7.5 6.66748 8.99238 6.66748 10.8333C6.66748 12.6743 8.15986 14.1667 10.0008 14.1667Z" stroke="black" stroke-opacity="0.8" stroke-width="1.66667" stroke-linecap="round" stroke-linejoin="round"/>
</svg>
