<svg width="19" height="19" viewBox="0 0 19 19" fill="none" xmlns="http://www.w3.org/2000/svg">
<mask id="mask0_934_7181" style="mask-type:alpha" maskUnits="userSpaceOnUse" x="0" y="0" width="19" height="19">
<rect width="19" height="19" fill="#3C8244"/>
</mask>
<g mask="url(#mask0_934_7181)">
<path d="M6.33398 13.1608H10.2923C10.4638 13.1608 10.6058 13.1049 10.7182 12.993C10.8301 12.8806 10.8861 12.7386 10.8861 12.5671C10.8861 12.4087 10.8301 12.2702 10.7182 12.1514C10.6058 12.0327 10.4638 11.9733 10.2923 11.9733H6.33398C6.16246 11.9733 6.02075 12.0327 5.90886 12.1514C5.79644 12.2702 5.74023 12.4087 5.74023 12.5671C5.74023 12.7386 5.79644 12.8806 5.90886 12.993C6.02075 13.1049 6.16246 13.1608 6.33398 13.1608ZM6.33398 10.0931H12.6673C12.8388 10.0931 12.9808 10.0369 13.0932 9.92447C13.2051 9.81259 13.2611 9.67088 13.2611 9.49935C13.2611 9.32782 13.2051 9.18585 13.0932 9.07343C12.9808 8.96154 12.8388 8.9056 12.6673 8.9056H6.33398C6.16246 8.9056 6.02075 8.96154 5.90886 9.07343C5.79644 9.18585 5.74023 9.32782 5.74023 9.49935C5.74023 9.67088 5.79644 9.81259 5.90886 9.92447C6.02075 10.0369 6.16246 10.0931 6.33398 10.0931ZM6.33398 7.02539H12.6673C12.8388 7.02539 12.9808 6.96602 13.0932 6.84727C13.2051 6.72852 13.2611 6.58997 13.2611 6.43164C13.2611 6.26011 13.2051 6.1184 13.0932 6.00652C12.9808 5.8941 12.8388 5.83789 12.6673 5.83789H6.33398C6.16246 5.83789 6.02075 5.8941 5.90886 6.00652C5.79644 6.1184 5.74023 6.26011 5.74023 6.43164C5.74023 6.58997 5.79644 6.72852 5.90886 6.84727C6.02075 6.96602 6.16246 7.02539 6.33398 7.02539Z" fill="#FF6F67"/>
</g>
</svg>
