<svg width="14" height="14" viewBox="0 0 14 14" fill="none" xmlns="http://www.w3.org/2000/svg">
<path d="M9.25 4.75H1.75V1.75H9.25M7 12.25C6.40326 12.25 5.83097 12.0129 5.40901 11.591C4.98705 11.169 4.75 10.5967 4.75 10C4.75 9.40326 4.98705 8.83097 5.40901 8.40901C5.83097 7.98705 6.40326 7.75 7 7.75C7.59674 7.75 8.16903 7.98705 8.59099 8.40901C9.01295 8.83097 9.25 9.40326 9.25 10C9.25 10.5967 9.01295 11.169 8.59099 11.591C8.16903 12.0129 7.59674 12.25 7 12.25ZM10.75 0.25H1.75C1.35218 0.25 0.970644 0.408035 0.68934 0.68934C0.408035 0.970644 0.25 1.35218 0.25 1.75V12.25C0.25 12.6478 0.408035 13.0294 0.68934 13.3107C0.970644 13.592 1.35218 13.75 1.75 13.75H12.25C12.6478 13.75 13.0294 13.592 13.3107 13.3107C13.592 13.0294 13.75 12.6478 13.75 12.25V3.25L10.75 0.25Z" fill="#28B6C8"/>
</svg>
