<svg width="20" height="20" viewBox="0 0 20 20" fill="none" xmlns="http://www.w3.org/2000/svg">
<path d="M9.99711 0C9.07239 0 8.2851 0.60109 7.98821 1.42854H2.14139C0.966675 1.42854 0 2.39522 0 3.56993V13.5726C0 14.7473 0.966675 15.7125 2.14139 15.7125H7.85719V18.5711L4.99868 18.5712C4.06661 18.5902 4.06661 19.9797 4.99868 19.9998H15.0013C15.9745 20.0213 15.9745 18.5502 15.0013 18.5712H12.1444V15.7127H17.8602C19.0349 15.7127 20.0003 14.7475 20.0003 13.5728V3.57009C20.0003 2.39538 19.0351 1.4287 17.8602 1.4287L12.0118 1.42854C11.7136 0.60109 10.922 0 9.99744 0H9.99711ZM9.99711 1.42854C10.3986 1.42854 10.7104 1.73657 10.7128 2.13722V2.14806C10.7096 2.54809 10.3981 2.85964 9.99711 2.85964C9.5982 2.85964 9.29447 2.55082 9.28843 2.15366C9.28859 2.14553 9.28859 2.13739 9.28843 2.12942C9.29592 1.73386 9.59917 1.43046 9.99711 1.43046V1.42854ZM2.14175 2.85852H7.99143C8.2899 3.68438 9.07496 4.28706 9.9976 4.28706C10.9201 4.28706 11.7094 3.68438 12.0092 2.85852H17.8601C18.2681 2.85852 18.5717 3.16192 18.5717 3.57009V13.5728C18.5717 13.9808 18.2683 14.2843 17.8601 14.2843L12.1447 14.2842H2.14204C1.73404 14.2842 1.43046 13.9808 1.43046 13.5726V3.56993C1.43046 3.16194 1.73387 2.85836 2.14204 2.85836L2.14175 2.85852ZM9.28606 15.7126H10.7146V18.5711H9.28606V15.7126Z" fill="black"/>
<path d="M7.81073 4.91291C6.94548 4.92917 6.10684 5.17183 5.38473 5.59783C5.16599 5.72602 5.03158 5.96086 5.03174 6.21451V12.0515C5.02967 12.5864 5.59471 12.9339 6.07111 12.6906C7.327 12.049 8.44972 12.0486 9.70528 12.6891C9.92722 12.8227 10.1334 12.82 10.3596 12.6891C11.6152 12.0487 12.7379 12.049 13.9938 12.6906C14.4702 12.9338 15.0352 12.5866 15.0331 12.0515V6.21451C15.0333 5.96069 14.8989 5.72616 14.6801 5.59783C13.9581 5.1718 13.1194 4.92854 12.2542 4.91291C11.5125 4.89935 10.7553 5.06596 10.0318 5.418C9.30858 5.06644 8.55207 4.89903 7.81086 4.91291H7.81073ZM7.84835 6.12941C8.33096 6.12399 8.82711 6.22683 9.31739 6.44749V11.0343C8.36524 10.7606 7.41244 10.7604 6.4603 11.0343V6.44749C6.89555 6.24452 7.36542 6.13483 7.84835 6.12941ZM12.2164 6.12941C12.6994 6.13483 13.1692 6.24437 13.6045 6.44749V11.0343C12.6523 10.7604 11.6995 10.7606 10.7474 11.0343V6.44749C11.2377 6.22667 11.7338 6.12495 12.2164 6.12941Z" fill="black"/>
</svg>
