<svg width="19" height="20" viewBox="0 0 19 20" fill="none" xmlns="http://www.w3.org/2000/svg">
<path d="M17.8673 9.2081L10.209 16.8664C9.27078 17.8046 7.9983 18.3317 6.67148 18.3317C5.34466 18.3317 4.07218 17.8046 3.13398 16.8664C2.19578 15.9282 1.6687 14.6558 1.6687 13.3289C1.6687 12.0021 2.19578 10.7296 3.13398 9.79144L10.7923 2.1331C11.4178 1.50763 12.2661 1.15625 13.1506 1.15625C14.0352 1.15625 14.8835 1.50763 15.509 2.1331C16.1345 2.75857 16.4858 3.60689 16.4858 4.49144C16.4858 5.37598 16.1345 6.2243 15.509 6.84977L7.84231 14.5081C7.52958 14.8208 7.10542 14.9965 6.66315 14.9965C6.22088 14.9965 5.79672 14.8208 5.48398 14.5081C5.17125 14.1954 4.99555 13.7712 4.99555 13.3289C4.99555 12.8867 5.17125 12.4625 5.48398 12.1498L12.559 5.0831" stroke="black" stroke-opacity="0.8" stroke-width="1.77083" stroke-linecap="round" stroke-linejoin="round"/>
</svg>
