<svg width="17" height="13" viewBox="0 0 17 13" fill="none" xmlns="http://www.w3.org/2000/svg">
<path d="M4.54134 6.50008H12.458C12.6823 6.50008 12.8702 6.42408 13.0217 6.27208C13.1737 6.12061 13.2497 5.93272 13.2497 5.70842C13.2497 5.48411 13.1737 5.29596 13.0217 5.14396C12.8702 4.99248 12.6823 4.91675 12.458 4.91675H4.54134C4.31704 4.91675 4.12888 4.99248 3.97688 5.14396C3.82541 5.29596 3.74967 5.48411 3.74967 5.70842C3.74967 5.93272 3.82541 6.12061 3.97688 6.27208C4.12888 6.42408 4.31704 6.50008 4.54134 6.50008ZM4.54134 9.66675H9.29134C9.51565 9.66675 9.7038 9.59075 9.8558 9.43875C10.0073 9.28728 10.083 9.09939 10.083 8.87508C10.083 8.65078 10.0073 8.46262 9.8558 8.31062C9.7038 8.15915 9.51565 8.08342 9.29134 8.08342H4.54134C4.31704 8.08342 4.12888 8.15915 3.97688 8.31062C3.82541 8.46262 3.74967 8.65078 3.74967 8.87508C3.74967 9.09939 3.82541 9.28728 3.97688 9.43875C4.12888 9.59075 4.31704 9.66675 4.54134 9.66675ZM2.16634 12.8334C1.73092 12.8334 1.35831 12.6785 1.04851 12.3687C0.738175 12.0584 0.583008 11.6855 0.583008 11.2501V1.75008C0.583008 1.31466 0.738175 0.942053 1.04851 0.632248C1.35831 0.321915 1.73092 0.166748 2.16634 0.166748H6.26322C6.47433 0.166748 6.67567 0.206331 6.86726 0.285498C7.05831 0.364665 7.22641 0.476817 7.37155 0.621956L8.49967 1.75008H14.833C15.2684 1.75008 15.6413 1.90525 15.9516 2.21558C16.2614 2.52539 16.4163 2.898 16.4163 3.33341V11.2501C16.4163 11.6855 16.2614 12.0584 15.9516 12.3687C15.6413 12.6785 15.2684 12.8334 14.833 12.8334H2.16634Z" fill="#FF6F67"/>
</svg>
