<svg width="26" height="26" viewBox="0 0 26 26" fill="none" xmlns="http://www.w3.org/2000/svg">
<path d="M12.9962 0C11.7941 0 10.7706 0.781418 10.3847 1.85711H2.7838C1.25668 1.85711 0 3.11378 0 4.64091V17.6444C0 19.1715 1.25668 20.4263 2.7838 20.4263H10.2143V24.1424L6.49828 24.1426C5.2866 24.1673 5.2866 25.9736 6.49828 25.9997H19.5017C20.7669 26.0277 20.7669 24.1152 19.5017 24.1426H15.7877V20.4265H23.2183C24.7454 20.4265 26.0004 19.1718 26.0004 17.6446V4.64112C26.0004 3.11399 24.7457 1.85731 23.2183 1.85731L15.6153 1.85711C15.2277 0.781418 14.1986 0 12.9967 0H12.9962ZM12.9962 1.85711C13.5181 1.85711 13.9236 2.25755 13.9267 2.77839V2.79248C13.9225 3.31252 13.5175 3.71754 12.9962 3.71754C12.4777 3.71754 12.0828 3.31606 12.075 2.79975C12.0752 2.78918 12.0752 2.77861 12.075 2.76825C12.0847 2.25402 12.4789 1.85959 12.9962 1.85959V1.85711ZM2.78428 3.71607H10.3889C10.7769 4.78969 11.7975 5.57318 12.9969 5.57318C14.1961 5.57318 15.2223 4.78969 15.6119 3.71607H23.2181C23.7485 3.71607 24.1432 4.1105 24.1432 4.64112V17.6446C24.1432 18.175 23.7488 18.5696 23.2181 18.5696L15.7881 18.5694H2.78465C2.25426 18.5694 1.8596 18.175 1.8596 17.6444V4.64091C1.8596 4.11052 2.25403 3.71586 2.78465 3.71586L2.78428 3.71607ZM12.0719 20.4264H13.929V24.1424H12.0719V20.4264Z" fill="#F1DDF9"/>
<path d="M10.1537 6.38678C9.02888 6.40792 7.93865 6.72338 6.99991 7.27718C6.71554 7.44382 6.54082 7.74912 6.54102 8.07887V15.667C6.53833 16.3624 7.27288 16.814 7.8922 16.4977C9.52486 15.6637 10.9844 15.6632 12.6166 16.4959C12.9051 16.6695 13.1731 16.666 13.4672 16.4959C15.0995 15.6633 16.559 15.6637 18.1917 16.4977C18.811 16.814 19.5455 16.3626 19.5428 15.667V8.07887C19.543 7.7489 19.3683 7.444 19.084 7.27718C18.1453 6.72334 17.055 6.4071 15.9302 6.38678C14.966 6.36916 13.9816 6.58575 13.0411 7.0434C12.1009 6.58637 11.1174 6.36874 10.1539 6.38678H10.1537ZM10.2026 7.96824C10.83 7.96119 11.475 8.09488 12.1124 8.38173V14.3446C10.8746 13.9888 9.63593 13.9886 8.39814 14.3446V8.38173C8.96398 8.11788 9.57481 7.97528 10.2026 7.96824ZM15.8811 7.96824C16.5089 7.97528 17.1198 8.11768 17.6856 8.38173V14.3446C16.4478 13.9886 15.2092 13.9888 13.9714 14.3446V8.38173C14.6087 8.09467 15.2537 7.96244 15.8811 7.96824Z" fill="#F1DDF9"/>
</svg>
