<svg width="19" height="19" viewBox="0 0 19 19" fill="none" xmlns="http://www.w3.org/2000/svg">
<path d="M2.375 4.75H3.95833H16.625" stroke="white" stroke-width="1.58333" stroke-linecap="round" stroke-linejoin="round"/>
<path d="M15.0413 4.75016V15.8335C15.0413 16.2534 14.8745 16.6561 14.5776 16.9531C14.2807 17.25 13.8779 17.4168 13.458 17.4168H5.54134C5.12141 17.4168 4.71869 17.25 4.42176 16.9531C4.12482 16.6561 3.95801 16.2534 3.95801 15.8335V4.75016M6.33301 4.75016V3.16683C6.33301 2.7469 6.49982 2.34418 6.79676 2.04724C7.09369 1.75031 7.49641 1.5835 7.91634 1.5835H11.083C11.5029 1.5835 11.9057 1.75031 12.2026 2.04724C12.4995 2.34418 12.6663 2.7469 12.6663 3.16683V4.75016" stroke="white" stroke-width="1.58333" stroke-linecap="round" stroke-linejoin="round"/>
<path d="M7.91699 8.7085V13.4585" stroke="white" stroke-width="1.58333" stroke-linecap="round" stroke-linejoin="round"/>
<path d="M11.083 8.7085V13.4585" stroke="white" stroke-width="1.58333" stroke-linecap="round" stroke-linejoin="round"/>
</svg>
