<svg width="16" height="16" viewBox="0 0 16 16" fill="none" xmlns="http://www.w3.org/2000/svg">
<path d="M8 11.2502C7.88333 11.2502 7.771 11.2295 7.663 11.1882C7.55433 11.1462 7.45833 11.0752 7.375 10.9752L4.25 7.8752C4.11667 7.74186 4.05 7.56686 4.05 7.3502C4.05 7.13353 4.11667 6.95853 4.25 6.8252C4.4 6.6752 4.579 6.59586 4.787 6.5872C4.99567 6.5792 5.175 6.6502 5.325 6.8002L7.25 8.7252V1.0752C7.25 0.858529 7.321 0.679196 7.463 0.537196C7.60433 0.395862 7.78333 0.325195 8 0.325195C8.21667 0.325195 8.396 0.395862 8.538 0.537196C8.67933 0.679196 8.75 0.858529 8.75 1.0752V8.7252L10.675 6.8002C10.8083 6.66686 10.9833 6.6002 11.2 6.6002C11.4167 6.6002 11.6 6.6752 11.75 6.8252C11.8833 6.95853 11.95 7.1292 11.95 7.3372C11.95 7.54586 11.8833 7.7252 11.75 7.8752L8.625 10.9752C8.54167 11.0752 8.446 11.1462 8.338 11.1882C8.22933 11.2295 8.11667 11.2502 8 11.2502ZM2.3 15.5002C1.8 15.5002 1.375 15.3252 1.025 14.9752C0.675 14.6252 0.5 14.2002 0.5 13.7002V11.7502C0.5 11.5335 0.571 11.3542 0.713 11.2122C0.854333 11.0709 1.03333 11.0002 1.25 11.0002C1.46667 11.0002 1.64567 11.0709 1.787 11.2122C1.929 11.3542 2 11.5335 2 11.7502V13.7002C2 13.7669 2.03333 13.8335 2.1 13.9002C2.16667 13.9669 2.23333 14.0002 2.3 14.0002H13.7C13.7667 14.0002 13.8333 13.9669 13.9 13.9002C13.9667 13.8335 14 13.7669 14 13.7002V11.7502C14 11.5335 14.0707 11.3542 14.212 11.2122C14.354 11.0709 14.5333 11.0002 14.75 11.0002C14.9667 11.0002 15.146 11.0709 15.288 11.2122C15.4293 11.3542 15.5 11.5335 15.5 11.7502V13.7002C15.5 14.2002 15.325 14.6252 14.975 14.9752C14.625 15.3252 14.2 15.5002 13.7 15.5002H2.3Z" fill="#1E38FC"/>
</svg>
