<svg
  width="19"
  height="19"
  viewBox="0 0 19 19"
  fill="none"
  xmlns="http://www.w3.org/2000/svg"
>
  <mask
    id="mask0_934_7174"
    style="mask-type: alpha"
    maskUnits="userSpaceOnUse"
    x="0"
    y="0"
    width="19"
    height="19"
  >
    <rect width="19" height="19" fill="#FFA23A" />
  </mask>
  <g mask="url(#mask0_934_7174)">
    <path
      d="M2.88984 15.2791C2.49401 15.2791 2.15755 15.1406 1.88047 14.8635C1.60339 14.5864 1.46484 14.2499 1.46484 13.8541V6.61035C1.46484 6.43882 1.52079 6.29685 1.63268 6.18443C1.74509 6.07255 1.88707 6.0166 2.05859 6.0166C2.23012 6.0166 2.37209 6.07255 2.48451 6.18443C2.5964 6.29685 2.65234 6.43882 2.65234 6.61035V13.8541C2.65234 13.9201 2.67873 13.976 2.73151 14.0219C2.78429 14.0684 2.83707 14.0916 2.88984 14.0916H14.5867C14.7582 14.0916 14.9 14.151 15.0118 14.2697C15.1243 14.3885 15.1805 14.527 15.1805 14.6854C15.1805 14.8569 15.1243 14.9986 15.0118 15.1105C14.9 15.2229 14.7582 15.2791 14.5867 15.2791H2.88984Z"
      fill="#FFA23A"
    />
  </g>
</svg>
