<svg xmlns="http://www.w3.org/2000/svg" xmlns:xlink="http://www.w3.org/1999/xlink" width="" height="35" viewBox="0 0 144 35">
                                    <defs>
                                      <clipPath id="clip-path">
                                        <rect id="Rectangle_2336" data-name="Rectangle 2336" width="144" height="35" transform="translate(6292 -233)" fill="none"></rect>
                                      </clipPath>
                                    </defs>
                                    <g id="Mask_Group_1" data-name="Mask Group 1" transform="translate(-6292 233)" clip-path="url(#clip-path)">
                                      <g id="Easebuzz_Logo_Unit_-_White_Text" data-name="Easebuzz Logo Unit - White Text" transform="translate(6291.25 -226.348)">
                                        <path id="Path_7063" data-name="Path 7063" d="M31.885,21.044V2.063A1.137,1.137,0,0,1,33.018.93H45.967l-.015,3.421H36.259V9.235h8.418v3.354H36.229v4.989l9.873.015v3.451Z" fill="#091B49"></path>
                                        <path id="Path_7064" data-name="Path 7064" d="M51.946,21.322a5.256,5.256,0,0,1-3.451-1.14,3.978,3.978,0,0,1-1.388-3.256,4.107,4.107,0,0,1,1.748-3.586c1.178-.825,3.031-1.253,5.574-1.283l1.786-.03v-.863a1.934,1.934,0,0,0-.585-1.515,2.439,2.439,0,0,0-1.778-.525,3.852,3.852,0,0,0-1.7.42,2.163,2.163,0,0,0-1.08,1.4H47.715A4.033,4.033,0,0,1,49.59,7.495a8.187,8.187,0,0,1,4.449-1.11q3.3,0,4.674,1.223A4.19,4.19,0,0,1,60.1,10.931V21.044H56.388V18.568a4.489,4.489,0,0,1-1.846,2.153A5.351,5.351,0,0,1,51.946,21.322ZM53.3,18.651a3.12,3.12,0,0,0,2.483-1.223,1.9,1.9,0,0,0,.428-1.185V14.112l-1.455.03a7.835,7.835,0,0,0-1.883.24,3.1,3.1,0,0,0-1.418.75,1.855,1.855,0,0,0-.525,1.388,1.916,1.916,0,0,0,.683,1.568A2.59,2.59,0,0,0,53.3,18.651Z" fill="#091B49"></path>
                                        <path id="Path_7065" data-name="Path 7065" d="M67.754,21.322a8.649,8.649,0,0,1-2.888-.488,5.8,5.8,0,0,1-2.341-1.56A5.122,5.122,0,0,1,61.3,16.505h3.511a2.185,2.185,0,0,0,1.163,1.6,4.351,4.351,0,0,0,3.624.068,1.212,1.212,0,0,0,.72-1.14,1.136,1.136,0,0,0-.428-.93,3.092,3.092,0,0,0-1.388-.525l-2.521-.525a7.023,7.023,0,0,1-3.068-1.365,3.452,3.452,0,0,1-1.163-2.753A4.041,4.041,0,0,1,63.275,7.69a6.816,6.816,0,0,1,4.494-1.305A6.921,6.921,0,0,1,72,7.57a3.889,3.889,0,0,1,1.621,3.279H70.237A1.9,1.9,0,0,0,69.4,9.565a2.882,2.882,0,0,0-1.681-.458,3.573,3.573,0,0,0-1.733.375,1.228,1.228,0,0,0-.683,1.14,1.007,1.007,0,0,0,.555.9,6.113,6.113,0,0,0,1.718.555l2.333.525a5.564,5.564,0,0,1,2.431,1.14,3.9,3.9,0,0,1,1.14,1.583,4.3,4.3,0,0,1,.308,1.47,3.846,3.846,0,0,1-1.681,3.339A7.372,7.372,0,0,1,67.754,21.322Z" fill="#091B49"></path>
                                        <path id="Path_7066" data-name="Path 7066" d="M78.85,14.78a3.961,3.961,0,0,0,.788,2.626,2.776,2.776,0,0,0,2.258.975,3.636,3.636,0,0,0,1.816-.443,2.37,2.37,0,0,0,1.1-1.463h3.646a4.913,4.913,0,0,1-1.223,2.618,6.428,6.428,0,0,1-2.356,1.658,7.446,7.446,0,0,1-2.881.57,7.612,7.612,0,0,1-3.744-.893,6.357,6.357,0,0,1-2.513-2.543,7.925,7.925,0,0,1-.9-3.864,8.887,8.887,0,0,1,.818-3.879A6.486,6.486,0,0,1,78.024,7.4a7.6,7.6,0,0,1,7.435-.083A5.685,5.685,0,0,1,87.7,9.9a8.908,8.908,0,0,1,.765,3.8V14.78Zm-.015-2.416h5.852a3.512,3.512,0,0,0-.72-2.228,2.588,2.588,0,0,0-2.176-.915,2.736,2.736,0,0,0-1.606.458,3,3,0,0,0-1,1.185A3.247,3.247,0,0,0,78.835,12.364Z" fill="#091B49"></path>
                                        <path id="Path_7067" data-name="Path 7067" d="M97.853,21.322a5.117,5.117,0,0,1-2.341-.473,4.267,4.267,0,0,1-1.455-1.223,5.6,5.6,0,0,1-.788-1.53v2.948h-3.4V.375h3.271a.8.8,0,0,1,.8.8V8.613a4.235,4.235,0,0,1,1.636-1.568,5.286,5.286,0,0,1,2.678-.653,5.028,5.028,0,0,1,4.186,1.936,8.6,8.6,0,0,1,1.523,5.454,8.931,8.931,0,0,1-1.553,5.492A5.387,5.387,0,0,1,97.853,21.322ZM96.968,18.4a2.658,2.658,0,0,0,2.161-1.073,5.8,5.8,0,0,0,.878-3.616,5.366,5.366,0,0,0-.833-3.309,2.669,2.669,0,0,0-2.236-1.073q-2.982,0-3.008,4.381a6.509,6.509,0,0,0,.75,3.616A2.583,2.583,0,0,0,96.968,18.4Z" fill="#091B49"></path>
                                        <path id="Path_7068" data-name="Path 7068" d="M110.645,21.322a6.5,6.5,0,0,1-2.581-.54A5.205,5.205,0,0,1,106,19.2a4.09,4.09,0,0,1-.818-2.588V6.662h4.051v9.43a2.2,2.2,0,0,0,.653,1.643,2.619,2.619,0,0,0,1.913.638,2.771,2.771,0,0,0,1.891-.615,2.2,2.2,0,0,0,.705-1.741V6.662H118.4V21.044h-3.526V18.193a3.648,3.648,0,0,1-.945,1.951,3.585,3.585,0,0,1-1.568.915A6.012,6.012,0,0,1,110.645,21.322Z" fill="#091B49"></path>
                                        <path id="Path_7069" data-name="Path 7069" d="M119.73,21.044V19.161a1.121,1.121,0,0,1,.233-.683L126.8,9.505H120.09V6.662h11.621V8.928l-7.09,9.273h7.127v2.836H119.73Z" fill="#091B49"></path>
                                        <path id="Path_7070" data-name="Path 7070" d="M132.731,21.044V19.161a1.121,1.121,0,0,1,.233-.683l6.842-8.973h-6.715V6.662h11.621V8.928l-7.09,9.273h7.127v2.836H132.731Z" fill="#091B49"></path>
                                        <path id="Path_7071" data-name="Path 7071" d="M3.3,9.31H20.249l-1.906,3.466a2.267,2.267,0,0,1-1.988,1.178H.75Z" fill="#85E6C4"></path>
                                        <path id="Path_7072" data-name="Path 7072" d="M10.211,16.213H27.158l-1.906,3.466a2.267,2.267,0,0,1-1.988,1.178H7.66Z" fill="#6d44e5"></path>
                                        <path id="Path_7073" data-name="Path 7073" d="M10.211,2.4H27.158L25.253,5.867a2.267,2.267,0,0,1-1.988,1.178H7.66Z" fill="#517CE3"></path>
                                      </g>
                                    </g>
                                  </svg>