<svg width="25" height="22" viewBox="0 0 25 22" fill="none" xmlns="http://www.w3.org/2000/svg">
<path d="M24.1598 0.0055967H0.845784C0.54354 0.0055967 0.264292 0.169762 0.113268 0.436232C-0.037756 0.702502 -0.037756 1.03086 0.113268 1.29711C0.264292 1.56358 0.54353 1.72775 0.845784 1.72775H2.33146V14.0693C2.33146 14.7543 2.5987 15.4112 3.0746 15.8957C3.55028 16.3802 4.1957 16.6523 4.86861 16.6523H9.66105L6.08093 20.2974C5.89864 20.4528 5.7893 20.6792 5.77927 20.921C5.76924 21.1627 5.8597 21.3977 6.02842 21.5681C6.19695 21.7387 6.4284 21.829 6.66574 21.8172C6.90309 21.8053 7.12471 21.6922 7.27613 21.5056L12.0686 16.6265H12.9566L17.7491 21.5056C17.965 21.7104 18.2702 21.7859 18.5541 21.7048C18.8383 21.6236 19.0603 21.3975 19.14 21.1084C19.2196 20.8191 19.1457 20.5084 18.9445 20.2888L15.3388 16.6465H20.1312C20.8042 16.6465 21.4496 16.3744 21.9255 15.8899C22.4011 15.4056 22.6686 14.7485 22.6686 14.0635V1.72196H24.1543C24.4563 1.72196 24.7356 1.55779 24.8866 1.29152C25.0378 1.02505 25.0378 0.696895 24.8866 0.430436C24.7356 0.163966 24.4563 0 24.1543 0L24.1598 0.0055967ZM20.9827 14.0692L20.9829 14.0694C20.9829 14.2976 20.8938 14.5166 20.7351 14.6782C20.5764 14.8396 20.3615 14.9303 20.1371 14.9303H4.86856C4.64419 14.9303 4.42925 14.8396 4.27055 14.6782C4.11186 14.5166 4.02278 14.2976 4.02278 14.0694V1.72787H20.9828L20.9827 14.0692Z" fill="#DFEFFD"/>
<path d="M8.18155 12.2731C8.42271 12.2731 8.65395 12.1683 8.82432 11.9817C8.99489 11.795 9.09064 11.5418 9.09064 11.2779V10.0867C9.09064 9.73102 8.91732 9.4026 8.63599 9.22462C8.35488 9.04687 8.00821 9.04687 7.72711 9.22462C7.44578 9.40259 7.27246 9.73101 7.27246 10.0867V11.2779C7.27246 11.5418 7.36821 11.795 7.53879 11.9817C7.70914 12.1683 7.94038 12.2731 8.18156 12.2731H8.18155Z" fill="#DFEFFD"/>
<path d="M12.7147 12.272C12.9559 12.272 13.1872 12.1672 13.3575 11.9806C13.5281 11.7939 13.6238 11.5407 13.6238 11.2768V5.21613C13.6238 4.86041 13.4505 4.53199 13.1692 4.35401C12.8881 4.17626 12.5414 4.17626 12.2603 4.35401C11.979 4.53198 11.8057 4.86039 11.8057 5.21613L11.8057 11.2768C11.8057 11.5407 11.9014 11.7939 12.072 11.9806C12.2423 12.1672 12.4736 12.272 12.7147 12.272Z" fill="#DFEFFD"/>
<path d="M16.8183 12.2725C17.0594 12.2725 17.2907 12.1772 17.461 12.0078C17.6316 11.8381 17.7274 11.6081 17.7274 11.3685V8.17668C17.7274 7.85356 17.554 7.55501 17.2727 7.39355C16.9916 7.2321 16.6449 7.2321 16.3638 7.39355C16.0825 7.55501 15.9092 7.85355 15.9092 8.17668V11.3685C15.9092 11.6081 16.0049 11.8381 16.1755 12.0078C16.3459 12.1772 16.5771 12.2725 16.8183 12.2725H16.8183Z" fill="#DFEFFD"/>
</svg>
