<svg width="20" height="20" viewBox="0 0 20 20" fill="none" xmlns="http://www.w3.org/2000/svg">
<path fill-rule="evenodd" clip-rule="evenodd" d="M16.25 5.41667C15.9185 5.41667 15.6005 5.54836 15.3661 5.78278C15.1317 6.0172 15 6.33515 15 6.66667V7.5H17.5V6.66667C17.5 6.33515 17.3683 6.0172 17.1339 5.78278C16.8995 5.54836 16.5815 5.41667 16.25 5.41667ZM17.5 8.33333H15V15.2083L16.25 17.0833L17.5 15.2083V8.33333ZM2.5 3.75V16.25C2.5 16.5815 2.6317 16.8995 2.86612 17.1339C3.10054 17.3683 3.41848 17.5 3.75 17.5H12.9167C13.2482 17.5 13.5661 17.3683 13.8005 17.1339C14.035 16.8995 14.1667 16.5815 14.1667 16.25V3.75C14.1667 3.41848 14.035 3.10054 13.8005 2.86612C13.5661 2.6317 13.2482 2.5 12.9167 2.5H3.75C3.41848 2.5 3.10054 2.6317 2.86612 2.86612C2.6317 3.10054 2.5 3.41848 2.5 3.75ZM8.33333 6.25C8.33333 6.13949 8.37723 6.03351 8.45537 5.95537C8.53351 5.87723 8.63949 5.83333 8.75 5.83333H12.0833C12.1938 5.83333 12.2998 5.87723 12.378 5.95537C12.4561 6.03351 12.5 6.13949 12.5 6.25C12.5 6.36051 12.4561 6.46649 12.378 6.54463C12.2998 6.62277 12.1938 6.66667 12.0833 6.66667H8.75C8.63949 6.66667 8.53351 6.62277 8.45537 6.54463C8.37723 6.46649 8.33333 6.36051 8.33333 6.25ZM8.75 7.5C8.63949 7.5 8.53351 7.5439 8.45537 7.62204C8.37723 7.70018 8.33333 7.80616 8.33333 7.91667C8.33333 8.02717 8.37723 8.13315 8.45537 8.21129C8.53351 8.28943 8.63949 8.33333 8.75 8.33333H12.0833C12.1938 8.33333 12.2998 8.28943 12.378 8.21129C12.4561 8.13315 12.5 8.02717 12.5 7.91667C12.5 7.80616 12.4561 7.70018 12.378 7.62204C12.2998 7.5439 12.1938 7.5 12.0833 7.5H8.75ZM8.33333 11.6667C8.33333 11.5562 8.37723 11.4502 8.45537 11.372C8.53351 11.2939 8.63949 11.25 8.75 11.25H12.0833C12.1938 11.25 12.2998 11.2939 12.378 11.372C12.4561 11.4502 12.5 11.5562 12.5 11.6667C12.5 11.7772 12.4561 11.8832 12.378 11.9613C12.2998 12.0394 12.1938 12.0833 12.0833 12.0833H8.75C8.63949 12.0833 8.53351 12.0394 8.45537 11.9613C8.37723 11.8832 8.33333 11.7772 8.33333 11.6667ZM8.75 12.9167C8.63949 12.9167 8.53351 12.9606 8.45537 13.0387C8.37723 13.1168 8.33333 13.2228 8.33333 13.3333C8.33333 13.4438 8.37723 13.5498 8.45537 13.628C8.53351 13.7061 8.63949 13.75 8.75 13.75H12.0833C12.1938 13.75 12.2998 13.7061 12.378 13.628C12.4561 13.5498 12.5 13.4438 12.5 13.3333C12.5 13.2228 12.4561 13.1168 12.378 13.0387C12.2998 12.9606 12.1938 12.9167 12.0833 12.9167H8.75ZM5 11.6667V12.9167H6.25V11.6667H5ZM4.58333 10.8333H6.66667C6.77717 10.8333 6.88315 10.8772 6.96129 10.9554C7.03943 11.0335 7.08333 11.1395 7.08333 11.25V13.3333C7.08333 13.4438 7.03943 13.5498 6.96129 13.628C6.88315 13.7061 6.77717 13.75 6.66667 13.75H4.58333C4.47283 13.75 4.36685 13.7061 4.28871 13.628C4.21057 13.5498 4.16667 13.4438 4.16667 13.3333V11.25C4.16667 11.1395 4.21057 11.0335 4.28871 10.9554C4.36685 10.8772 4.47283 10.8333 4.58333 10.8333ZM7.37792 6.54458C7.45382 6.466 7.49581 6.36075 7.49486 6.2515C7.49392 6.14225 7.45009 6.03775 7.37284 5.96049C7.29559 5.88324 7.19108 5.83942 7.08183 5.83847C6.97258 5.83752 6.86733 5.87952 6.78875 5.95542L5.41667 7.3275L4.87792 6.78875C4.79933 6.71285 4.69408 6.67085 4.58483 6.6718C4.47558 6.67275 4.37108 6.71657 4.29383 6.79383C4.21657 6.87108 4.17275 6.97558 4.1718 7.08483C4.17085 7.19408 4.21285 7.29933 4.28875 7.37792L5.41667 8.50583L7.37792 6.54458Z" fill="black"/>
</svg>
