<svg width="74" height="74" viewBox="0 0 74 74" fill="none" xmlns="http://www.w3.org/2000/svg">
<circle cx="37" cy="37" r="37" fill="#DBFDF5"/>
<g clip-path="url(#clip0_1002_73)">
<path d="M49.666 18.667L41.3327 27.0003V45.3337L49.666 37.8337V18.667ZM19.666 27.0003V51.417C19.666 51.8337 20.0827 52.2503 20.4993 52.2503C20.666 52.2503 20.7493 52.167 20.916 52.167C23.166 51.0837 26.416 50.3337 28.8327 50.3337C32.0827 50.3337 35.5827 51.0003 37.9993 52.8337V27.0003C35.5827 25.167 32.0827 24.5003 28.8327 24.5003C25.5827 24.5003 22.0827 25.167 19.666 27.0003ZM56.3327 49.5003V27.0003C55.3327 26.2503 54.2494 25.7503 52.9994 25.3337V47.8337C51.166 47.2503 49.166 47.0003 47.166 47.0003C44.3327 47.0003 40.2493 48.0837 37.9993 49.5003V52.8337C40.2493 51.417 44.3327 50.3337 47.166 50.3337C49.916 50.3337 52.7494 50.8337 55.0827 52.0837C55.2494 52.167 55.3327 52.167 55.4994 52.167C55.916 52.167 56.3327 51.7503 56.3327 51.3337V49.5003Z" fill="#2EA689"/>
</g>
<defs>
<clipPath id="clip0_1002_73">
<rect width="40" height="40" fill="white" transform="translate(18 17)"/>
</clipPath>
</defs>
</svg>
