<svg width="174" height="82" viewBox="0 0 174 82" fill="none" xmlns="http://www.w3.org/2000/svg">
<g filter="url(#filter0_d_74_6160)">
<rect x="5.49893" y="4" width="163.5" height="72" rx="8" fill="#7D5CDB"/>
</g>
<mask id="mask0_74_6160" style="mask-type:alpha" maskUnits="userSpaceOnUse" x="5" y="4" width="164" height="72">
<rect x="5.49893" y="4" width="163.5" height="72" rx="8" fill="#7D5CDB"/>
</mask>
<g mask="url(#mask0_74_6160)">
<path d="M193.61 5.49094C192.368 9.90033 190.27 14.0219 187.435 17.6204C184.6 21.2189 181.084 24.2238 177.088 26.4635C173.092 28.7032 168.694 30.134 164.145 30.674C159.596 31.214 154.985 30.8528 150.576 29.6108C146.166 28.3689 142.045 26.2707 138.446 23.4359C134.848 20.6011 131.843 17.0853 129.603 13.0893C127.364 9.0932 125.933 4.69511 125.393 0.146108C124.853 -4.40289 125.214 -9.01371 126.456 -13.4231L127.596 -13.1019C126.397 -8.84228 126.048 -4.38805 126.569 0.00645308C127.091 4.40096 128.473 8.64969 130.637 12.51C132.8 16.3704 135.703 19.7668 139.18 22.5053C142.656 25.2438 146.637 27.2708 150.897 28.4705C155.157 29.6703 159.611 30.0192 164.005 29.4976C168.4 28.9759 172.649 27.5938 176.509 25.4301C180.369 23.2664 183.766 20.3636 186.504 16.8873C189.243 13.411 191.27 9.4294 192.469 5.16977L193.61 5.49094Z" fill="white"/>
</g>
<path d="M6 69.5V11C6 11 37.5 11 38.5 39C39.5 67 6 69.5 6 69.5Z" fill="#583CA7"/>
<mask id="mask1_74_6160" style="mask-type:alpha" maskUnits="userSpaceOnUse" x="14" y="20" width="37" height="36">
<rect x="14.9989" y="20" width="36" height="36" fill="white"/>
</mask>
<g mask="url(#mask1_74_6160)">
<path d="M24.7489 44.0372C25.9989 44.0372 27.2114 44.1747 28.3864 44.4497C29.5614 44.7247 30.7239 45.1622 31.8739 45.7622V31.0247C30.8239 30.3497 29.6864 29.8372 28.4614 29.4872C27.2364 29.1372 25.9989 28.9622 24.7489 28.9622C23.8489 28.9622 23.0049 29.0372 22.2169 29.1872C21.4299 29.3372 20.6239 29.5622 19.7989 29.8622C19.6989 29.9122 19.6239 29.9747 19.5739 30.0497C19.5239 30.1247 19.4989 30.1997 19.4989 30.2747V44.4497C19.4989 44.5997 19.5489 44.7057 19.6489 44.7677C19.7489 44.8307 19.8489 44.8372 19.9489 44.7872C20.6739 44.5372 21.4299 44.3497 22.2169 44.2247C23.0049 44.0997 23.8489 44.0372 24.7489 44.0372ZM34.1239 45.7622C35.2739 45.1622 36.4364 44.7247 37.6114 44.4497C38.7864 44.1747 39.9989 44.0372 41.2489 44.0372C42.1489 44.0372 42.9929 44.0997 43.7809 44.2247C44.5679 44.3497 45.3239 44.5372 46.0489 44.7872C46.1489 44.8372 46.2489 44.8307 46.3489 44.7677C46.4489 44.7057 46.4989 44.5997 46.4989 44.4497V30.2747C46.4989 30.1997 46.4739 30.1247 46.4239 30.0497C46.3739 29.9747 46.2989 29.9122 46.1989 29.8622C45.3739 29.5622 44.5679 29.3372 43.7809 29.1872C42.9929 29.0372 42.1489 28.9622 41.2489 28.9622C39.9989 28.9622 38.7614 29.1372 37.5364 29.4872C36.3114 29.8372 35.1739 30.3497 34.1239 31.0247V45.7622ZM32.9989 48.4622C32.6989 48.4622 32.4239 48.4247 32.1739 48.3497C31.9239 48.2747 31.6864 48.1747 31.4614 48.0497C30.4364 47.4747 29.3549 47.0372 28.2169 46.7372C27.0799 46.4372 25.9239 46.2872 24.7489 46.2872C23.8239 46.2872 22.9239 46.3872 22.0489 46.5872C21.1739 46.7872 20.3239 47.0872 19.4989 47.4872C18.9739 47.7372 18.4679 47.6997 17.9809 47.3747C17.4929 47.0497 17.2489 46.5872 17.2489 45.9872V29.7122C17.2489 29.3872 17.3304 29.0807 17.4934 28.7927C17.6554 28.5057 17.8989 28.2997 18.2239 28.1747C19.2239 27.6747 20.2804 27.3057 21.3934 27.0677C22.5054 26.8307 23.6239 26.7122 24.7489 26.7122C26.1989 26.7122 27.6239 26.9122 29.0239 27.3122C30.4239 27.7122 31.7489 28.2997 32.9989 29.0747C34.2489 28.2997 35.5739 27.7122 36.9739 27.3122C38.3739 26.9122 39.7989 26.7122 41.2489 26.7122C42.3739 26.7122 43.4929 26.8307 44.6059 27.0677C45.7179 27.3057 46.7739 27.6747 47.7739 28.1747C48.0989 28.2997 48.3424 28.5057 48.5044 28.7927C48.6674 29.0807 48.7489 29.3872 48.7489 29.7122V45.9872C48.7489 46.5872 48.4989 47.0437 47.9989 47.3567C47.4989 47.6687 46.9739 47.6997 46.4239 47.4497C45.5989 47.0747 44.7554 46.7872 43.8934 46.5872C43.0304 46.3872 42.1489 46.2872 41.2489 46.2872C40.0739 46.2872 38.9179 46.4372 37.7809 46.7372C36.6429 47.0372 35.5614 47.4747 34.5364 48.0497C34.3114 48.1747 34.0739 48.2747 33.8239 48.3497C33.5739 48.4247 33.2989 48.4622 32.9989 48.4622Z" fill="white"/>
</g>
<mask id="mask2_74_6160" style="mask-type:alpha" maskUnits="userSpaceOnUse" x="14" y="20" width="37" height="36">
<rect x="14.9989" y="20" width="36" height="36" fill="white"/>
</mask>
<g mask="url(#mask2_74_6160)">
<path d="M35.9239 33.2752C35.9239 33.1252 35.9799 32.9627 36.0919 32.7877C36.2049 32.6127 36.3364 32.4877 36.4864 32.4127C37.2364 32.1127 38.0054 31.8877 38.7934 31.7377C39.5804 31.5877 40.3989 31.5127 41.2489 31.5127C41.7489 31.5127 42.2239 31.5442 42.6739 31.6072C43.1239 31.6692 43.5864 31.7502 44.0614 31.8502C44.2364 31.8752 44.3864 31.9627 44.5114 32.1127C44.6364 32.2627 44.6989 32.4377 44.6989 32.6377C44.6989 32.9877 44.5924 33.2377 44.3794 33.3877C44.1674 33.5377 43.8989 33.5752 43.5739 33.5002C43.1989 33.4252 42.8179 33.3752 42.4309 33.3502C42.0429 33.3252 41.6489 33.3127 41.2489 33.3127C40.5239 33.3127 39.8114 33.3812 39.1114 33.5182C38.4114 33.6562 37.7489 33.8377 37.1239 34.0627C36.7739 34.2127 36.4864 34.2127 36.2614 34.0627C36.0364 33.9127 35.9239 33.6502 35.9239 33.2752ZM35.9239 41.4877C35.9239 41.3127 35.9799 41.1377 36.0919 40.9627C36.2049 40.7877 36.3364 40.6627 36.4864 40.5877C37.2114 40.2877 37.9804 40.0627 38.7934 39.9127C39.6054 39.7627 40.4239 39.6877 41.2489 39.6877C41.7489 39.6877 42.2239 39.7192 42.6739 39.7822C43.1239 39.8442 43.5864 39.9252 44.0614 40.0252C44.2364 40.0752 44.3864 40.1752 44.5114 40.3252C44.6364 40.4752 44.6989 40.6502 44.6989 40.8502C44.6989 41.1752 44.5924 41.4187 44.3794 41.5807C44.1674 41.7437 43.8989 41.7877 43.5739 41.7127C43.1989 41.6377 42.8179 41.5812 42.4309 41.5432C42.0429 41.5062 41.6489 41.4877 41.2489 41.4877C40.5239 41.4877 39.8179 41.5562 39.1309 41.6932C38.4429 41.8312 37.7864 42.0252 37.1614 42.2752C36.7864 42.4252 36.4864 42.4187 36.2614 42.2557C36.0364 42.0937 35.9239 41.8377 35.9239 41.4877ZM35.9239 37.4002C35.9239 37.2252 35.9799 37.0502 36.0919 36.8752C36.2049 36.7002 36.3364 36.5752 36.4864 36.5002C37.2364 36.2002 38.0054 35.9752 38.7934 35.8252C39.5804 35.6752 40.3989 35.6002 41.2489 35.6002C41.7489 35.6002 42.2239 35.6312 42.6739 35.6932C43.1239 35.7562 43.5864 35.8377 44.0614 35.9377C44.2364 35.9627 44.3864 36.0562 44.5114 36.2182C44.6364 36.3812 44.6989 36.5627 44.6989 36.7627C44.6989 37.0877 44.5924 37.3312 44.3794 37.4932C44.1674 37.6562 43.8989 37.6877 43.5739 37.5877C43.1989 37.5127 42.8179 37.4627 42.4309 37.4377C42.0429 37.4127 41.6489 37.4002 41.2489 37.4002C40.5239 37.4002 39.8179 37.4692 39.1309 37.6072C38.4429 37.7442 37.7864 37.9377 37.1614 38.1877C36.7864 38.3377 36.4864 38.3312 36.2614 38.1682C36.0364 38.0062 35.9239 37.7502 35.9239 37.4002Z" fill="white"/>
</g>
<defs>
<filter id="filter0_d_74_6160" x="0.498932" y="0" width="173.5" height="82" filterUnits="userSpaceOnUse" color-interpolation-filters="sRGB">
<feFlood flood-opacity="0" result="BackgroundImageFix"/>
<feColorMatrix in="SourceAlpha" type="matrix" values="0 0 0 0 0 0 0 0 0 0 0 0 0 0 0 0 0 0 127 0" result="hardAlpha"/>
<feOffset dy="1"/>
<feGaussianBlur stdDeviation="2.5"/>
<feComposite in2="hardAlpha" operator="out"/>
<feColorMatrix type="matrix" values="0 0 0 0 0 0 0 0 0 0 0 0 0 0 0 0 0 0 0.25 0"/>
<feBlend mode="normal" in2="BackgroundImageFix" result="effect1_dropShadow_74_6160"/>
<feBlend mode="normal" in="SourceGraphic" in2="effect1_dropShadow_74_6160" result="shape"/>
</filter>
</defs>
</svg>
