<svg width="62" height="62" viewBox="0 0 62 62" fill="none" xmlns="http://www.w3.org/2000/svg">
<circle cx="31" cy="31" r="31" fill="#FFECD8"/>
<g clip-path="url(#clip0_1008_1737)">
<path d="M40.9161 16.4169L33.8328 23.5003V39.0836L40.9161 32.7086V16.4169ZM15.4161 23.5003V44.2544C15.4161 44.6086 15.7703 44.9628 16.1244 44.9628C16.2661 44.9628 16.3369 44.8919 16.4786 44.8919C18.3911 43.9711 21.1536 43.3336 23.2078 43.3336C25.9703 43.3336 28.9453 43.9003 30.9994 45.4586V23.5003C28.9453 21.9419 25.9703 21.3753 23.2078 21.3753C20.4453 21.3753 17.4703 21.9419 15.4161 23.5003ZM46.5828 42.6253V23.5003C45.7328 22.8628 44.8119 22.4378 43.7494 22.0836V41.2086C42.1911 40.7128 40.4911 40.5003 38.7911 40.5003C36.3828 40.5003 32.9119 41.4211 30.9994 42.6253V45.4586C32.9119 44.2544 36.3828 43.3336 38.7911 43.3336C41.1286 43.3336 43.5369 43.7586 45.5203 44.8211C45.6619 44.8919 45.7328 44.8919 45.8744 44.8919C46.2286 44.8919 46.5828 44.5378 46.5828 44.1836V42.6253Z" fill="#FFA23A"/>
</g>
<defs>
<clipPath id="clip0_1008_1737">
<rect width="34" height="34" fill="white" transform="translate(14 15)"/>
</clipPath>
</defs>
</svg>
