<svg width="16" height="16" viewBox="0 0 16 16" fill="none" xmlns="http://www.w3.org/2000/svg">
<path fill-rule="evenodd" clip-rule="evenodd" d="M14.25 3.41667C13.9185 3.41667 13.6005 3.54836 13.3661 3.78278C13.1317 4.0172 13 4.33515 13 4.66667V5.5H15.5V4.66667C15.5 4.33515 15.3683 4.0172 15.1339 3.78278C14.8995 3.54836 14.5815 3.41667 14.25 3.41667ZM15.5 6.33333H13V13.2083L14.25 15.0833L15.5 13.2083V6.33333ZM0.5 1.75V14.25C0.5 14.5815 0.631696 14.8995 0.866117 15.1339C1.10054 15.3683 1.41848 15.5 1.75 15.5H10.9167C11.2482 15.5 11.5661 15.3683 11.8005 15.1339C12.035 14.8995 12.1667 14.5815 12.1667 14.25V1.75C12.1667 1.41848 12.035 1.10054 11.8005 0.866117C11.5661 0.631696 11.2482 0.5 10.9167 0.5H1.75C1.41848 0.5 1.10054 0.631696 0.866117 0.866117C0.631696 1.10054 0.5 1.41848 0.5 1.75ZM6.33333 4.25C6.33333 4.13949 6.37723 4.03351 6.45537 3.95537C6.53351 3.87723 6.63949 3.83333 6.75 3.83333H10.0833C10.1938 3.83333 10.2998 3.87723 10.378 3.95537C10.4561 4.03351 10.5 4.13949 10.5 4.25C10.5 4.36051 10.4561 4.46649 10.378 4.54463C10.2998 4.62277 10.1938 4.66667 10.0833 4.66667H6.75C6.63949 4.66667 6.53351 4.62277 6.45537 4.54463C6.37723 4.46649 6.33333 4.36051 6.33333 4.25ZM6.75 5.5C6.63949 5.5 6.53351 5.5439 6.45537 5.62204C6.37723 5.70018 6.33333 5.80616 6.33333 5.91667C6.33333 6.02717 6.37723 6.13315 6.45537 6.21129C6.53351 6.28943 6.63949 6.33333 6.75 6.33333H10.0833C10.1938 6.33333 10.2998 6.28943 10.378 6.21129C10.4561 6.13315 10.5 6.02717 10.5 5.91667C10.5 5.80616 10.4561 5.70018 10.378 5.62204C10.2998 5.5439 10.1938 5.5 10.0833 5.5H6.75ZM6.33333 9.66667C6.33333 9.55616 6.37723 9.45018 6.45537 9.37204C6.53351 9.2939 6.63949 9.25 6.75 9.25H10.0833C10.1938 9.25 10.2998 9.2939 10.378 9.37204C10.4561 9.45018 10.5 9.55616 10.5 9.66667C10.5 9.77717 10.4561 9.88315 10.378 9.96129C10.2998 10.0394 10.1938 10.0833 10.0833 10.0833H6.75C6.63949 10.0833 6.53351 10.0394 6.45537 9.96129C6.37723 9.88315 6.33333 9.77717 6.33333 9.66667ZM6.75 10.9167C6.63949 10.9167 6.53351 10.9606 6.45537 11.0387C6.37723 11.1168 6.33333 11.2228 6.33333 11.3333C6.33333 11.4438 6.37723 11.5498 6.45537 11.628C6.53351 11.7061 6.63949 11.75 6.75 11.75H10.0833C10.1938 11.75 10.2998 11.7061 10.378 11.628C10.4561 11.5498 10.5 11.4438 10.5 11.3333C10.5 11.2228 10.4561 11.1168 10.378 11.0387C10.2998 10.9606 10.1938 10.9167 10.0833 10.9167H6.75ZM3 9.66667V10.9167H4.25V9.66667H3ZM2.58333 8.83333H4.66667C4.77717 8.83333 4.88315 8.87723 4.96129 8.95537C5.03943 9.03351 5.08333 9.13949 5.08333 9.25V11.3333C5.08333 11.4438 5.03943 11.5498 4.96129 11.628C4.88315 11.7061 4.77717 11.75 4.66667 11.75H2.58333C2.47283 11.75 2.36685 11.7061 2.28871 11.628C2.21057 11.5498 2.16667 11.4438 2.16667 11.3333V9.25C2.16667 9.13949 2.21057 9.03351 2.28871 8.95537C2.36685 8.87723 2.47283 8.83333 2.58333 8.83333ZM5.37792 4.54458C5.45382 4.466 5.49581 4.36075 5.49486 4.2515C5.49392 4.14225 5.45009 4.03775 5.37284 3.96049C5.29559 3.88324 5.19108 3.83942 5.08183 3.83847C4.97258 3.83752 4.86733 3.87952 4.78875 3.95542L3.41667 5.3275L2.87792 4.78875C2.79933 4.71285 2.69408 4.67085 2.58483 4.6718C2.47558 4.67275 2.37108 4.71657 2.29383 4.79383C2.21657 4.87108 2.17275 4.97558 2.1718 5.08483C2.17085 5.19408 2.21285 5.29933 2.28875 5.37792L3.41667 6.50583L5.37792 4.54458Z" fill="#FF6F67"/>
</svg>
