<svg width="62" height="62" viewBox="0 0 62 62" fill="none" xmlns="http://www.w3.org/2000/svg">
<circle cx="31" cy="31" r="31" fill="#FFEBEA"/>
<g clip-path="url(#clip0_1008_1739)">
<path d="M41.7083 35.4166V23.75C41.7083 22.1458 40.3958 20.8333 38.7917 20.8333H18.375C16.7708 20.8333 15.4583 22.1458 15.4583 23.75V35.4166C15.4583 37.0208 16.7708 38.3333 18.375 38.3333H38.7917C40.3958 38.3333 41.7083 37.0208 41.7083 35.4166ZM28.5833 33.9583C26.1625 33.9583 24.2083 32.0041 24.2083 29.5833C24.2083 27.1625 26.1625 25.2083 28.5833 25.2083C31.0042 25.2083 32.9583 27.1625 32.9583 29.5833C32.9583 32.0041 31.0042 33.9583 28.5833 33.9583ZM47.5417 25.2083V41.25C47.5417 42.8541 46.2292 44.1666 44.625 44.1666H19.8333V41.25H44.625V25.2083H47.5417Z" fill="#FF6F67"/>
</g>
<defs>
<clipPath id="clip0_1008_1739">
<rect width="35" height="35" fill="white" transform="translate(14 15)"/>
</clipPath>
</defs>
</svg>
