<svg width="74" height="74" viewBox="0 0 74 74" fill="none" xmlns="http://www.w3.org/2000/svg">
<circle cx="37" cy="37" r="37" fill="#FCF4DE"/>
<g clip-path="url(#clip0_1002_75)">
<path d="M46.875 39.75V26.75C46.875 24.9625 45.4125 23.5 43.625 23.5H20.875C19.0875 23.5 17.625 24.9625 17.625 26.75V39.75C17.625 41.5375 19.0875 43 20.875 43H43.625C45.4125 43 46.875 41.5375 46.875 39.75ZM32.25 38.125C29.5525 38.125 27.375 35.9475 27.375 33.25C27.375 30.5525 29.5525 28.375 32.25 28.375C34.9475 28.375 37.125 30.5525 37.125 33.25C37.125 35.9475 34.9475 38.125 32.25 38.125ZM53.375 28.375V46.25C53.375 48.0375 51.9125 49.5 50.125 49.5H22.5V46.25H50.125V28.375H53.375Z" fill="#AA8E42"/>
</g>
<defs>
<clipPath id="clip0_1002_75">
<rect width="39" height="39" fill="white" transform="translate(16 17)"/>
</clipPath>
</defs>
</svg>
