<svg width="39" height="39" viewBox="0 0 39 39" fill="none" xmlns="http://www.w3.org/2000/svg">
<g clip-path="url(#clip0_2564_4817)">
<path d="M30.875 22.75V9.75C30.875 7.9625 29.4125 6.5 27.625 6.5H4.875C3.0875 6.5 1.625 7.9625 1.625 9.75V22.75C1.625 24.5375 3.0875 26 4.875 26H27.625C29.4125 26 30.875 24.5375 30.875 22.75ZM16.25 21.125C13.5525 21.125 11.375 18.9475 11.375 16.25C11.375 13.5525 13.5525 11.375 16.25 11.375C18.9475 11.375 21.125 13.5525 21.125 16.25C21.125 18.9475 18.9475 21.125 16.25 21.125ZM37.375 11.375V29.25C37.375 31.0375 35.9125 32.5 34.125 32.5H6.5V29.25H34.125V11.375H37.375Z" fill="#F1F3FF"/>
</g>
<defs>
<clipPath id="clip0_2564_4817">
<rect width="39" height="39" fill="white"/>
</clipPath>
</defs>
</svg>
