<svg width="14" height="14" viewBox="0 0 14 14" fill="none" xmlns="http://www.w3.org/2000/svg">
<path id="Vector" d="M0 2C0 1.46957 0.210714 0.960859 0.585786 0.585786C0.960859 0.210714 1.46957 0 2 0H9C9.53043 0 10.0391 0.210714 10.4142 0.585786C10.7893 0.960859 11 1.46957 11 2V9H14V11C14 11.7956 13.6839 12.5587 13.1213 13.1213C12.5587 13.6839 11.7956 14 11 14H3C2.20435 14 1.44129 13.6839 0.87868 13.1213C0.316071 12.5587 0 11.7956 0 11V2ZM11 13C11.5304 13 12.0391 12.7893 12.4142 12.4142C12.7893 12.0391 13 11.5304 13 11V10H11V13ZM3.5 3C3.36739 3 3.24021 3.05268 3.14645 3.14645C3.05268 3.24021 3 3.36739 3 3.5C3 3.63261 3.05268 3.75979 3.14645 3.85355C3.24021 3.94732 3.36739 4 3.5 4H7.5C7.63261 4 7.75979 3.94732 7.85355 3.85355C7.94732 3.75979 8 3.63261 8 3.5C8 3.36739 7.94732 3.24021 7.85355 3.14645C7.75979 3.05268 7.63261 3 7.5 3H3.5ZM3.5 6C3.36739 6 3.24021 6.05268 3.14645 6.14645C3.05268 6.24021 3 6.36739 3 6.5C3 6.63261 3.05268 6.75979 3.14645 6.85355C3.24021 6.94732 3.36739 7 3.5 7H7.5C7.63261 7 7.75979 6.94732 7.85355 6.85355C7.94732 6.75979 8 6.63261 8 6.5C8 6.36739 7.94732 6.24021 7.85355 6.14645C7.75979 6.05268 7.63261 6 7.5 6H3.5ZM3.5 9C3.36739 9 3.24021 9.05268 3.14645 9.14645C3.05268 9.24021 3 9.36739 3 9.5C3 9.63261 3.05268 9.75979 3.14645 9.85355C3.24021 9.94732 3.36739 10 3.5 10H5.5C5.63261 10 5.75979 9.94732 5.85355 9.85355C5.94732 9.75979 6 9.63261 6 9.5C6 9.36739 5.94732 9.24021 5.85355 9.14645C5.75979 9.05268 5.63261 9 5.5 9H3.5Z" fill="black"/>
</svg>
