<svg width="375" height="286" viewBox="0 0 375 286" fill="none" xmlns="http://www.w3.org/2000/svg">
<path d="M65.0411 223.225C63.6891 220.873 59.6455 220.43 53.6472 221.997C50.9494 219.857 47.7032 218.519 44.2806 218.139C40.8579 217.758 37.3973 218.35 34.2953 219.845C31.1933 221.341 28.5754 223.68 26.7416 226.595C24.9079 229.51 23.9325 232.883 23.9272 236.327C23.9216 237.22 23.9872 238.113 24.1233 238.996C19.7554 243.394 18.1175 247.118 19.4695 249.47C20.2846 250.905 22.0568 251.624 24.6865 251.627C26.3443 251.602 27.9944 251.397 29.6079 251.016L30.8634 250.698C33.5611 252.839 36.8073 254.176 40.23 254.556C43.6526 254.937 47.1133 254.346 50.2153 252.85C53.3173 251.354 55.9352 249.015 57.7689 246.1C59.6027 243.185 60.5781 239.812 60.5834 236.369C60.589 235.475 60.5234 234.582 60.3872 233.699L61.2848 232.784C65.0148 228.724 66.3135 225.438 65.0411 223.225ZM42.2745 219.613C46.1547 219.62 49.912 220.974 52.9036 223.445C55.8953 225.916 57.9353 229.35 58.6746 233.159C55.3838 236.363 50.8976 239.645 45.8341 242.567C40.7706 245.49 35.6879 247.696 31.2638 248.946C28.6897 246.709 26.8611 243.739 26.0234 240.434C25.1857 237.129 25.379 233.646 26.5774 230.454C27.7757 227.261 29.9217 224.512 32.7276 222.574C35.5334 220.637 38.8647 219.603 42.2745 219.613ZM29.2711 249.441C24.8473 250.432 21.6999 250.15 20.845 248.675C19.9901 247.199 21.3681 244.253 24.4996 240.909C25.3312 244.141 27.0292 247.084 29.4106 249.422L29.2711 249.441ZM42.236 253.082C38.8638 253.085 35.5707 252.06 32.7964 250.143C37.0812 248.833 41.8848 246.687 46.6294 243.943C51.3739 241.199 55.6407 238.136 58.9313 235.092C58.9707 235.51 58.9901 235.949 58.9896 236.367C58.9793 240.804 57.2096 245.055 54.0688 248.188C50.9281 251.322 46.6727 253.082 42.236 253.082ZM55.1 223.274C59.5637 222.263 62.8106 222.526 63.6656 224.021C64.5205 225.516 63.1824 228.363 60.1106 231.687C60.0708 231.726 60.0508 231.766 60.0109 231.786C59.1719 228.558 57.4749 225.616 55.1 223.274Z" fill="white"/>
<path d="M71.2413 110.54L89.7239 99.2642L90.2478 120.909L71.2413 110.54Z" stroke="white" stroke-width="2"/>
<path d="M382.941 20.2457L382.918 19.3399C382.907 18.9249 382.574 18.5918 382.16 18.582L381.254 18.5587C376.385 18.4319 370.328 18.2743 365.912 20.8547C360.991 23.7294 356.765 27.993 352.677 32.1173C352.262 32.5361 351.851 32.9489 351.441 33.3606C351.413 33.359 351.389 33.3476 351.361 33.3487L340.499 33.8347C340.305 33.8434 340.122 33.9241 339.985 34.0617L329.228 44.8193C329.005 45.0414 328.939 45.3751 329.059 45.6661C329.179 45.9565 329.463 46.1455 329.777 46.1455H338.66L336.314 48.4908C336.011 48.7947 336.011 49.2855 336.314 49.5889L338.373 51.6476L334.891 53.6001C334.68 53.7188 334.535 53.93 334.502 54.1711C334.47 54.4117 334.551 54.6549 334.723 54.8266L346.674 66.7773C346.82 66.9241 347.019 67.0048 347.223 67.0048C347.258 67.0048 347.293 67.0027 347.329 66.9978C347.57 66.9642 347.782 66.8201 347.9 66.6088L349.853 63.127L351.911 65.1857C352.063 65.3374 352.262 65.4132 352.461 65.4132C352.659 65.4132 352.858 65.3374 353.01 65.1857L355.355 62.8404V71.7231C355.355 72.0368 355.545 72.3201 355.835 72.4409C355.931 72.4805 356.032 72.5 356.132 72.5C356.334 72.5 356.533 72.4209 356.681 72.2725L367.438 61.5154C367.576 61.3789 367.657 61.1947 367.665 61.0013L368.156 50.0426C368.562 49.6379 368.97 49.2326 369.383 48.8231C373.507 44.7354 377.771 40.5087 380.646 35.5879C383.226 31.1725 383.068 25.114 382.941 20.246L382.941 20.2457ZM331.652 44.5914L340.871 35.3733L349.834 34.9719L340.213 44.5913L331.652 44.5914ZM347.046 64.9538L336.546 54.4535L339.514 52.7881L348.711 61.9854L347.046 64.9538ZM366.126 60.6295L356.907 69.8475V61.2871L366.527 51.6672L366.126 60.6295ZM379.303 34.804C376.531 39.5487 372.341 43.7024 368.288 47.719C367.76 48.2418 367.238 48.7597 366.722 49.2749L352.459 63.5378L337.961 49.0392L352.225 34.7749C352.74 34.2602 353.259 33.7374 353.782 33.2092C357.799 29.1563 361.952 24.9663 366.696 22.1947C370.731 19.8381 376.3 19.9843 381.214 20.1112L381.384 20.115L381.388 20.2846C381.516 25.1995 381.661 30.7693 379.304 34.8026L379.303 34.804Z" fill="white"/>
<path d="M339.5 180.5L340.476 191.024L351 192L340.476 192.976L339.5 203.5L338.524 192.976L328 192L338.524 191.024L339.5 180.5Z" fill="#FE7E72" fill-opacity="0.7"/>
<path d="M59.5 47.5L60.4758 58.0242L71 59L60.4758 59.9758L59.5 70.5L58.5242 59.9758L48 59L58.5242 58.0242L59.5 47.5Z" fill="#FE7E72" fill-opacity="0.7"/>
<path d="M11.5 0L12.4758 10.5242L23 11.5L12.4758 12.4758L11.5 23L10.5242 12.4758L0 11.5L10.5242 10.5242L11.5 0Z" fill="#FE7E72" fill-opacity="0.7"/>
<path d="M265.5 263L266.476 273.524L277 274.5L266.476 275.476L265.5 286L264.524 275.476L254 274.5L264.524 273.524L265.5 263Z" fill="#FE7E72" fill-opacity="0.7"/>
<circle cx="211" cy="33.5" r="10" fill="#FE7E72"/>
<path d="M344.385 217.514H29V217.671H344.385V217.514Z" fill="#EBEBEB"/>
<path d="M228.116 221.81H212.056V221.967H228.116V221.81Z" fill="#EBEBEB"/>
<path d="M316.279 225.222H278.224V225.379H316.279V225.222Z" fill="#EBEBEB"/>
<path d="M208.637 221.886H169.321V222.043H208.637V221.886Z" fill="#EBEBEB"/>
<path d="M143.825 226.604H135.6V226.761H143.825V226.604Z" fill="#EBEBEB"/>
<path d="M189.273 226.604H151.817V226.761H189.273V226.604Z" fill="#EBEBEB"/>
<path d="M86.3435 223.941H62.0903V224.099H86.3435V223.941Z" fill="#EBEBEB"/>
<path d="M178.493 189.382H56.697C55.7428 189.38 54.8283 189 54.1542 188.325C53.4802 187.65 53.1016 186.734 53.1016 185.78V14.5702C53.1099 13.6215 53.4921 12.7144 54.1653 12.046C54.8385 11.3775 55.7483 11.0016 56.697 11H178.493C179.448 11 180.364 11.3795 181.039 12.0549C181.715 12.7304 182.094 13.6465 182.094 14.6017V185.78C182.094 186.736 181.715 187.652 181.039 188.327C180.364 189.003 179.448 189.382 178.493 189.382ZM56.697 11.1262C55.7846 11.1278 54.9103 11.4914 54.2658 12.1371C53.6212 12.7828 53.2593 13.6578 53.2593 14.5702V185.78C53.2593 186.693 53.6212 187.568 54.2658 188.213C54.9103 188.859 55.7846 189.223 56.697 189.224H178.493C179.405 189.223 180.28 188.859 180.926 188.214C181.571 187.568 181.935 186.693 181.937 185.78V14.5702C181.935 13.6573 181.571 12.7822 180.926 12.1367C180.28 11.4912 179.405 11.1278 178.493 11.1262H56.697Z" fill="#EBEBEB"/>
<path d="M314.935 189.382H193.133C192.178 189.38 191.263 189 190.588 188.325C189.913 187.65 189.533 186.735 189.531 185.78V14.5702C189.541 13.6209 189.925 12.7139 190.599 12.0456C191.273 11.3773 192.184 11.0016 193.133 11H314.935C315.882 11.0033 316.791 11.3799 317.462 12.0482C318.134 12.7165 318.516 13.6226 318.524 14.5702V185.78C318.524 186.733 318.146 187.648 317.473 188.323C316.801 188.998 315.888 189.379 314.935 189.382ZM193.133 11.1262C192.22 11.1278 191.345 11.4912 190.7 12.1367C190.054 12.7822 189.691 13.6573 189.689 14.5702V185.78C189.691 186.693 190.054 187.568 190.7 188.214C191.345 188.859 192.22 189.223 193.133 189.224H314.935C315.848 189.223 316.723 188.859 317.368 188.214C318.014 187.568 318.377 186.693 318.379 185.78V14.5702C318.377 13.6573 318.014 12.7822 317.368 12.1367C316.723 11.4912 315.848 11.1278 314.935 11.1262H193.133Z" fill="#EBEBEB"/>
<path d="M152.606 162.808H110.723L108.181 133.478H150.064L152.606 162.808Z" fill="#E6E6E6"/>
<path d="M154.776 162.808H112.893L110.351 133.478H152.234L154.776 162.808Z" fill="#F0F0F0"/>
<path d="M118.62 156.506L117.22 139.771H146.506L147.907 156.506H118.62Z" fill="white"/>
<path d="M162.023 162.808H157.109V217.514H162.023V162.808Z" fill="#E6E6E6"/>
<path d="M163.575 162.808H160.163V217.514H163.575V162.808Z" fill="#F0F0F0"/>
<path d="M116.008 168.844H163.575V162.807H116.008V168.844Z" fill="#F0F0F0"/>
<path d="M117.686 168.844H112.772V217.514H117.686V168.844Z" fill="#E6E6E6"/>
<path d="M119.238 168.844H115.826V217.514H119.238V168.844Z" fill="#F0F0F0"/>
<path d="M82.7101 168.844H77.7964V217.514H82.7101V168.844Z" fill="#E6E6E6"/>
<path d="M84.2616 168.844H80.8491V217.514H84.2616V168.844Z" fill="#F0F0F0"/>
<path d="M130.926 168.844H126.013V217.514H130.926V168.844Z" fill="#E6E6E6"/>
<path d="M132.472 168.844H129.059V217.514H132.472V168.844Z" fill="#F0F0F0"/>
<path d="M116.008 162.808H77.7964V168.844H116.008V162.808Z" fill="#E6E6E6"/>
<path d="M258.5 26.3975H110.691V108.688H258.5V26.3975Z" fill="#E0E0E0"/>
<path d="M266.618 26.3975H111.436V108.688H266.618V26.3975Z" fill="#F5F5F5"/>
<path d="M264.082 106.152V28.9326L113.971 28.9326V106.152L264.082 106.152Z" fill="white"/>
<path d="M174.753 106.152L203.093 28.9326H156.321L127.981 106.152H174.753Z" fill="#F5F5F5"/>
<path d="M219.77 106.152L248.111 28.9326H212.825L184.485 106.152H219.77Z" fill="#F5F5F5"/>
<path d="M305.347 138.92H292.782V217.514H305.347V138.92Z" fill="#E6E6E6"/>
<path d="M302.042 217.514H305.347V211.465H298.579L302.042 217.514Z" fill="#FAFAFA"/>
<path d="M189.5 138.92H176.935V217.514H189.5V138.92Z" fill="#E6E6E6"/>
<path d="M305.347 138.92H186.617V215.88H305.347V138.92Z" fill="#FAFAFA"/>
<path d="M303.102 163.754H188.869V142.018H303.102V163.754ZM189.5 163.123H302.471V142.648H189.5V163.123Z" fill="#E6E6E6"/>
<path d="M282.992 152.57H211.192C207.861 152.57 204.651 149.883 202.361 145.19L202.146 144.742H292.031L291.817 145.19C289.508 149.883 286.354 152.57 282.992 152.57ZM203.181 145.354C205.313 149.536 208.227 151.92 211.192 151.92H282.992C285.97 151.92 288.871 149.536 291.003 145.354H203.181Z" fill="#E6E6E6"/>
<path d="M189.922 217.514H186.617V211.465H193.385L189.922 217.514Z" fill="#FAFAFA"/>
<path d="M303.102 188.247H188.869V166.536H303.102V188.247ZM189.5 187.617H302.471V167.167H189.5V187.617Z" fill="#E6E6E6"/>
<path d="M282.992 177.088H211.192C207.861 177.088 204.651 174.395 202.361 169.708L202.146 169.254H292.031L291.817 169.708C289.508 174.369 286.354 177.088 282.992 177.088ZM203.181 169.885C205.313 174.067 208.227 176.457 211.192 176.457H282.992C285.97 176.457 288.871 174.067 291.003 169.885H203.181Z" fill="#E6E6E6"/>
<path d="M303.102 212.783H188.869V191.047H303.102V212.783ZM189.5 212.152H302.471V191.678H189.5V212.152Z" fill="#E6E6E6"/>
<path d="M282.992 201.6H211.192C207.861 201.6 204.651 198.913 202.361 194.227L202.146 193.772H292.031L291.817 194.227C289.508 198.913 286.354 201.6 282.992 201.6ZM203.181 194.403C205.313 198.585 208.227 200.97 211.192 200.97H282.992C285.97 200.97 288.871 198.585 291.003 194.403H203.181Z" fill="#E6E6E6"/>
<path d="M105.31 149.315V150.842H104.339L103.532 162.808H91.6479L90.8468 150.842H89.8691V149.315H105.31Z" fill="#E6E6E6"/>
<path d="M101.4 119.626C100.429 112.498 90.8095 110.467 78.6041 110.202C66.9916 109.956 63.27 105.85 63.27 105.85C63.27 105.85 63.3079 122.483 80.0422 128.513C95.9313 134.228 102.378 126.766 101.4 119.626Z" fill="#E6E6E6"/>
<path d="M95.4706 135.779C95.6725 132.853 100.353 127.466 111.612 129.913C119.749 131.686 122.777 127.466 122.777 127.466C122.777 127.466 122.02 139.375 109.783 142.951C98.1577 146.351 95.1111 140.939 95.4706 135.779Z" fill="#E6E6E6"/>
<path d="M98.0381 153.807C98.1015 153.808 98.1642 153.794 98.222 153.768C98.2797 153.742 98.331 153.704 98.3724 153.656C99.1861 152.691 98.5175 150.382 97.5965 147.184C96.4107 143.084 94.9347 137.975 96.1836 134.272C96.8759 132.316 97.6847 130.404 98.6058 128.545C100.372 124.81 101.898 121.606 100.624 118.213C100.604 118.159 100.574 118.109 100.535 118.067C100.496 118.025 100.449 117.991 100.396 117.967C100.344 117.943 100.287 117.93 100.23 117.928C100.172 117.926 100.115 117.936 100.061 117.956C100.007 117.977 99.9583 118.007 99.9165 118.047C99.8747 118.087 99.8412 118.134 99.8179 118.187C99.7946 118.239 99.7819 118.296 99.7807 118.353C99.7794 118.411 99.7896 118.468 99.8105 118.522C100.952 121.543 99.5708 124.47 97.8173 128.179C96.8845 130.068 96.0631 132.01 95.3573 133.994C94.0264 137.956 95.5402 143.21 96.7576 147.424C97.4767 149.947 98.221 152.47 97.7101 153.101C97.6695 153.144 97.6385 153.196 97.6189 153.252C97.5993 153.308 97.5917 153.368 97.5964 153.427C97.6012 153.486 97.6182 153.544 97.6465 153.596C97.6747 153.649 97.7136 153.695 97.7605 153.731C97.8411 153.789 97.9395 153.816 98.0381 153.807Z" fill="#E6E6E6"/>
<path d="M186.693 245.999C254.237 245.999 308.993 242.803 308.993 238.859C308.993 234.916 254.237 231.719 186.693 231.719C119.148 231.719 64.3926 234.916 64.3926 238.859C64.3926 242.803 119.148 245.999 186.693 245.999Z" fill="#F5F5F5"/>
<path d="M186.668 204.047H97.0984L92.1973 59.998H181.767L186.668 204.047Z" fill="#FF828A"/>
<path d="M191.14 199.575H101.57L96.6631 55.5254H186.233L191.14 199.575Z" fill="#FF828A"/>
<path opacity="0.3" d="M191.14 199.575H101.57L96.6631 55.5254H186.233L191.14 199.575Z" fill="white"/>
<path d="M161.13 114.801C170.72 105.045 170.312 89.093 160.218 79.1705C150.125 69.2481 134.168 69.1129 124.577 78.8687C114.987 88.6246 115.395 104.577 125.489 114.499C135.582 124.422 151.539 124.557 161.13 114.801Z" fill="#FF828A"/>
<path d="M163.651 96.8404C163.78 100.273 163.031 103.681 161.475 106.743C159.795 110.043 157.23 112.81 154.065 114.733C150.901 116.656 147.264 117.66 143.561 117.631C139.771 117.61 136.054 116.593 132.781 114.683C129.508 112.772 126.796 110.034 124.915 106.743C123.162 103.728 122.183 100.326 122.064 96.8404C121.948 94.1376 122.382 91.4393 123.341 88.9096C124.3 86.3798 125.763 84.0714 127.641 82.1245C129.52 80.1777 131.774 78.6331 134.268 77.5845C136.762 76.5359 139.443 76.0053 142.148 76.0249C147.721 76.0644 153.065 78.2491 157.069 82.1254C161.073 86.0017 163.431 91.2716 163.651 96.8404Z" fill="white"/>
<path opacity="0.6" d="M161.462 106.744C159.783 110.044 157.217 112.811 154.053 114.734C150.889 116.657 147.251 117.66 143.548 117.631C139.759 117.611 136.041 116.594 132.769 114.683C129.496 112.772 126.783 110.034 124.903 106.744C130.237 103.107 136.55 101.174 143.006 101.199C149.566 101.214 155.98 103.14 161.462 106.744Z" fill="#FF828A"/>
<path opacity="0.6" d="M149.334 96.3218C152.86 92.7345 152.71 86.8686 148.999 83.22C145.287 79.5714 139.42 79.5218 135.893 83.1091C132.367 86.6964 132.517 92.5623 136.228 96.2108C139.94 99.8594 145.807 99.9091 149.334 96.3218Z" fill="#FF828A"/>
<path d="M173.144 147.411H116.009L115.624 136.057H172.759L173.144 147.411Z" fill="white"/>
<path d="M173.838 167.702H116.696L116.312 156.348H173.453L173.838 167.702Z" fill="white"/>
<path d="M151.786 157.912L138.016 159.804C137.885 159.819 137.758 159.861 137.644 159.928C137.529 159.994 137.43 160.083 137.352 160.19C137.273 160.297 137.218 160.418 137.189 160.547C137.16 160.676 137.158 160.81 137.184 160.94L138.994 170.168C139.053 170.439 139.212 170.678 139.438 170.837C139.664 170.997 139.943 171.067 140.218 171.032L153.987 169.14C154.118 169.123 154.245 169.08 154.358 169.012C154.472 168.945 154.571 168.855 154.648 168.748C154.726 168.641 154.78 168.519 154.809 168.39C154.837 168.261 154.839 168.128 154.814 167.998L153.01 158.77C152.95 158.499 152.792 158.261 152.565 158.102C152.338 157.943 152.06 157.875 151.786 157.912ZM147.831 167.26L145.308 167.594L145.062 164.617C144.802 164.505 144.573 164.331 144.394 164.112C144.215 163.892 144.091 163.633 144.034 163.356C143.987 163.141 143.987 162.919 144.032 162.703C144.076 162.488 144.166 162.285 144.294 162.107C144.423 161.928 144.587 161.779 144.777 161.668C144.967 161.557 145.178 161.487 145.396 161.463C145.844 161.406 146.298 161.518 146.667 161.779C147.036 162.039 147.294 162.428 147.389 162.87C147.444 163.136 147.427 163.413 147.341 163.671C147.255 163.929 147.102 164.16 146.897 164.34L147.831 167.26Z" fill="#FF828A"/>
<path d="M150.423 157.414C150.18 157.445 149.934 157.384 149.733 157.242C149.532 157.101 149.392 156.89 149.338 156.651L149.162 155.749C148.91 154.518 148.22 153.42 147.22 152.659C146.22 151.898 144.978 151.526 143.725 151.611C143.092 151.647 142.475 151.819 141.914 152.114C141.354 152.41 140.864 152.823 140.477 153.325C140.091 153.827 139.817 154.407 139.674 155.024C139.531 155.641 139.523 156.282 139.65 156.903L139.852 157.944C139.875 158.059 139.874 158.178 139.849 158.293C139.824 158.408 139.775 158.516 139.706 158.611C139.636 158.706 139.548 158.786 139.446 158.845C139.344 158.903 139.231 158.94 139.114 158.953C138.87 158.987 138.622 158.927 138.421 158.785C138.219 158.644 138.079 158.431 138.029 158.19L137.858 157.313C137.685 156.493 137.679 155.647 137.842 154.826C138.004 154.004 138.33 153.224 138.801 152.531C139.273 151.839 139.879 151.249 140.584 150.797C141.29 150.345 142.079 150.04 142.905 149.901C144.695 149.601 146.533 150.001 148.036 151.019C149.54 152.038 150.593 153.596 150.978 155.37L151.18 156.405C151.204 156.521 151.202 156.642 151.176 156.758C151.15 156.874 151.099 156.983 151.028 157.079C150.956 157.174 150.866 157.253 150.761 157.311C150.657 157.369 150.542 157.404 150.423 157.414Z" fill="#FF828A"/>
<path d="M164.408 183.604H127.211L126.965 176.211H164.156L164.408 183.604Z" fill="#FF828A"/>
<path d="M146.463 141.733C146.474 142.002 146.43 142.271 146.334 142.523C146.238 142.776 146.092 143.006 145.904 143.2C145.717 143.394 145.492 143.548 145.243 143.652C144.994 143.757 144.727 143.81 144.457 143.808C143.901 143.803 143.367 143.586 142.967 143.2C142.567 142.813 142.33 142.288 142.306 141.733C142.295 141.463 142.339 141.194 142.435 140.942C142.53 140.689 142.677 140.459 142.864 140.265C143.052 140.071 143.277 139.917 143.526 139.813C143.774 139.708 144.042 139.655 144.312 139.657C144.868 139.66 145.403 139.877 145.803 140.264C146.204 140.65 146.44 141.176 146.463 141.733Z" fill="#263238"/>
<path d="M137.493 141.733C137.505 142.002 137.462 142.272 137.366 142.524C137.271 142.777 137.124 143.008 136.937 143.202C136.749 143.396 136.524 143.55 136.274 143.654C136.025 143.758 135.757 143.811 135.487 143.808C134.932 143.803 134.399 143.585 134 143.199C133.601 142.813 133.365 142.288 133.343 141.733C133.331 141.463 133.375 141.194 133.471 140.942C133.567 140.689 133.713 140.459 133.901 140.265C134.088 140.071 134.313 139.917 134.562 139.813C134.811 139.708 135.079 139.655 135.348 139.657C135.904 139.66 136.438 139.878 136.837 140.264C137.237 140.651 137.472 141.177 137.493 141.733Z" fill="#263238"/>
<path d="M128.58 141.733C128.591 142.002 128.548 142.271 128.452 142.523C128.356 142.776 128.21 143.006 128.022 143.2C127.834 143.394 127.609 143.548 127.361 143.652C127.112 143.757 126.844 143.81 126.575 143.808C126.019 143.805 125.485 143.587 125.085 143.201C124.686 142.814 124.451 142.288 124.43 141.733C124.419 141.463 124.463 141.194 124.559 140.942C124.655 140.689 124.801 140.459 124.988 140.265C125.176 140.071 125.401 139.917 125.65 139.813C125.898 139.708 126.166 139.655 126.436 139.657C126.992 139.66 127.525 139.878 127.925 140.264C128.324 140.651 128.559 141.177 128.58 141.733Z" fill="#263238"/>
<path d="M155.4 141.733C155.411 142.003 155.368 142.272 155.272 142.524C155.176 142.776 155.029 143.007 154.842 143.201C154.654 143.395 154.429 143.549 154.18 143.653C153.932 143.758 153.664 143.81 153.394 143.808C152.838 143.806 152.305 143.588 151.905 143.202C151.506 142.815 151.271 142.289 151.25 141.733C151.24 141.464 151.286 141.196 151.383 140.946C151.48 140.695 151.627 140.466 151.815 140.274C152.003 140.082 152.229 139.93 152.477 139.827C152.726 139.724 152.993 139.673 153.262 139.677C153.814 139.681 154.343 139.897 154.741 140.279C155.138 140.662 155.374 141.182 155.4 141.733Z" fill="#263238"/>
<path d="M164.339 141.733C164.351 142.002 164.308 142.272 164.212 142.524C164.116 142.777 163.97 143.008 163.782 143.202C163.595 143.396 163.369 143.55 163.12 143.654C162.871 143.758 162.603 143.811 162.333 143.808C161.777 143.803 161.245 143.585 160.845 143.199C160.446 142.813 160.211 142.288 160.188 141.733C160.177 141.463 160.221 141.194 160.317 140.942C160.413 140.689 160.559 140.459 160.747 140.265C160.934 140.071 161.159 139.917 161.408 139.813C161.657 139.708 161.924 139.655 162.194 139.657C162.75 139.66 163.284 139.878 163.683 140.264C164.083 140.651 164.318 141.177 164.339 141.733Z" fill="#263238"/>
<path d="M239.621 86.2383C240.46 87.5881 241.16 88.8749 241.879 90.2184C242.598 91.562 243.248 92.9118 243.885 94.2932C245.185 97.0903 246.261 99.9863 247.102 102.954C247.216 103.326 247.298 103.723 247.392 104.108L247.531 104.695L247.6 104.985L247.682 105.464C247.825 106.552 247.758 107.656 247.487 108.719C247.052 110.369 246.389 111.95 245.519 113.418C243.962 116.086 242.081 118.55 239.918 120.754L237.262 118.748C238.595 116.298 239.781 113.77 240.813 111.179C241.273 110.037 241.597 108.845 241.778 107.628C241.836 107.256 241.819 106.876 241.728 106.511L241.476 105.742C241.375 105.426 241.28 105.111 241.16 104.789C240.201 102.187 239.091 99.6429 237.836 97.1695C236.575 94.6465 235.218 92.1234 233.862 89.7138L239.621 86.2383Z" fill="#FF8B7B"/>
<path d="M237.937 117.871L235.035 119.404L238.366 123.302C238.366 123.302 240.447 121.895 240.542 119.751L237.937 117.871Z" fill="#FF8B7B"/>
<path d="M231.144 121.808L234.707 124.64L238.366 123.302L235.035 119.404L231.144 121.808Z" fill="#FF8B7B"/>
<path d="M218.957 65.5996C218.888 65.9528 218.642 66.1988 218.415 66.1546C218.188 66.1105 218.055 65.7825 218.124 65.4356C218.194 65.0886 218.44 64.8048 218.673 64.8805C218.907 64.9562 219.026 65.2463 218.957 65.5996Z" fill="#263238"/>
<path d="M218.673 66.2041C218.038 67.1921 217.269 68.0878 216.39 68.866C216.597 69.0813 216.849 69.2492 217.128 69.358C217.407 69.4669 217.706 69.5142 218.004 69.4967L218.673 66.2041Z" fill="#FF5652"/>
<path d="M217.538 78.5802V74.4424L223.013 75.0732C223.013 75.0732 222.924 78.6307 219.859 79.6778L217.538 78.5802Z" fill="#FF8B7B"/>
<path d="M219.115 71.4658L222.969 72.576L223.038 75.1054L217.563 74.4431L219.115 71.4658Z" fill="#FF8B7B"/>
<path opacity="0.2" d="M222.969 72.576L219.115 71.4658L218.364 72.904C218.405 74.0372 218.759 75.1369 219.387 76.0811C220.015 77.0252 220.893 77.777 221.922 78.2529C222.584 77.328 222.971 76.2346 223.038 75.0991L222.969 72.576Z" fill="black"/>
<path d="M220.635 63.9145C220.675 63.9134 220.715 63.9009 220.748 63.8785C220.782 63.856 220.809 63.8245 220.825 63.7876C220.842 63.7506 220.847 63.7098 220.842 63.6698C220.836 63.6297 220.819 63.5921 220.793 63.5613C220.571 63.3111 220.293 63.1175 219.981 62.9968C219.67 62.8761 219.334 62.8318 219.001 62.8674C218.947 62.8767 218.899 62.9071 218.867 62.9521C218.835 62.997 218.822 63.0528 218.831 63.1071C218.84 63.1619 218.87 63.2109 218.915 63.2438C218.96 63.2768 219.016 63.2911 219.071 63.2837C219.334 63.2579 219.599 63.2954 219.845 63.393C220.091 63.4907 220.31 63.6457 220.484 63.8451C220.503 63.8662 220.526 63.8832 220.552 63.8951C220.578 63.907 220.606 63.9136 220.635 63.9145Z" fill="#263238"/>
<path d="M228.696 71.9824C228.065 75.2309 227.674 79.7283 229.958 81.8918C229.958 81.8918 229.075 85.1845 223.019 85.1845C216.39 85.1845 219.834 82.2955 219.834 82.2955C222.59 81.4377 222.565 78.3027 221.934 75.7797L228.696 71.9824Z" fill="#FF8B7B"/>
<path d="M231.188 84.0615C231.78 83.2288 231.755 80.5859 231.124 80.1191C230.109 79.3685 225.75 79.1919 219.89 80.5417C220.521 83.1027 219.165 84.4399 219.165 84.4399L231.188 84.0615Z" fill="#407BFF"/>
<path d="M250.906 233.813C250.726 233.876 250.535 233.903 250.344 233.893C250.154 233.882 249.967 233.833 249.795 233.75C249.73 233.689 249.686 233.61 249.668 233.523C249.65 233.436 249.659 233.346 249.695 233.264C249.714 233.196 249.749 233.133 249.796 233.08C249.843 233.026 249.901 232.984 249.966 232.955C250.565 232.665 251.94 233.226 252.003 233.252C252.022 233.259 252.038 233.272 252.049 233.289C252.061 233.306 252.066 233.326 252.066 233.346C252.066 233.366 252.061 233.386 252.051 233.404C252.041 233.422 252.027 233.436 252.009 233.447C251.654 233.603 251.284 233.726 250.906 233.813ZM250.18 233.1C250.139 233.11 250.098 233.125 250.06 233.144C250.021 233.159 249.986 233.182 249.957 233.213C249.929 233.244 249.908 233.281 249.896 233.321C249.84 233.51 249.896 233.573 249.934 233.592C250.174 233.794 251.057 233.592 251.681 233.359C251.206 233.162 250.694 233.074 250.18 233.1Z" fill="#407BFF"/>
<path d="M251.984 233.453H251.934C251.429 233.308 250.357 232.545 250.344 232.047C250.344 231.968 250.37 231.891 250.42 231.829C250.469 231.767 250.538 231.724 250.615 231.706C250.69 231.678 250.77 231.667 250.85 231.674C250.93 231.68 251.007 231.704 251.076 231.744C251.669 232.047 252.047 233.271 252.06 233.327C252.069 233.343 252.073 233.36 252.073 233.378C252.073 233.396 252.069 233.413 252.06 233.428C252.05 233.438 252.038 233.446 252.025 233.45C252.012 233.454 251.998 233.456 251.984 233.453ZM250.723 231.883H250.672C250.546 231.927 250.546 231.99 250.546 232.022C250.546 232.318 251.265 232.917 251.808 233.157C251.675 232.804 251.385 232.104 251 231.895C250.915 231.857 250.818 231.852 250.729 231.883H250.723Z" fill="#407BFF"/>
<path d="M218.143 234.557C217.576 234.557 217.027 234.475 216.844 234.223C216.796 234.156 216.771 234.075 216.771 233.993C216.771 233.91 216.796 233.83 216.844 233.762C216.88 233.701 216.928 233.647 216.986 233.605C217.043 233.562 217.109 233.532 217.178 233.516C217.916 233.314 219.468 234.198 219.531 234.235C219.55 234.245 219.566 234.261 219.575 234.28C219.584 234.3 219.587 234.322 219.582 234.343C219.579 234.364 219.57 234.384 219.555 234.4C219.54 234.416 219.521 234.427 219.5 234.431C219.052 234.513 218.598 234.555 218.143 234.557ZM217.443 233.693C217.376 233.682 217.308 233.682 217.241 233.693C217.199 233.702 217.158 233.719 217.122 233.744C217.087 233.769 217.056 233.801 217.033 233.838C216.958 233.97 216.989 234.034 217.033 234.071C217.241 234.362 218.358 234.368 219.184 234.248C218.645 233.953 218.054 233.765 217.443 233.693Z" fill="#407BFF"/>
<path d="M219.493 234.431H219.449C218.913 234.191 217.853 233.233 217.935 232.728C217.935 232.608 218.036 232.463 218.326 232.438C218.43 232.426 218.535 232.435 218.635 232.465C218.735 232.496 218.827 232.547 218.907 232.614C219.311 233.098 219.553 233.695 219.6 234.324C219.6 234.342 219.596 234.36 219.589 234.376C219.581 234.392 219.57 234.407 219.556 234.418C219.537 234.428 219.515 234.433 219.493 234.431ZM218.408 232.633H218.345C218.156 232.633 218.143 232.722 218.143 232.747C218.093 233.05 218.812 233.807 219.361 234.135C219.313 233.628 219.107 233.15 218.774 232.766C218.67 232.677 218.538 232.63 218.402 232.633H218.408Z" fill="#407BFF"/>
<path d="M224.363 234.33H219.928L219.487 224.055H223.921L224.363 234.33Z" fill="#FF8B7B"/>
<path d="M256.929 232.274L252.596 233.214L248.237 223.645L252.577 222.705L256.929 232.274Z" fill="#FF8B7B"/>
<path d="M252.173 232.779L257.049 231.725C257.134 231.707 257.223 231.718 257.301 231.757C257.379 231.796 257.441 231.861 257.478 231.94L259.169 235.611C259.214 235.7 259.237 235.798 259.237 235.898C259.236 235.997 259.212 236.095 259.167 236.184C259.121 236.273 259.055 236.349 258.975 236.407C258.894 236.466 258.8 236.504 258.702 236.519C256.999 236.853 256.147 236.935 254.009 237.396C252.691 237.686 249.713 238.411 247.89 238.802C246.067 239.194 245.443 237.446 246.156 237.125C249.341 235.667 250.666 234.387 251.53 233.195C251.686 232.982 251.915 232.834 252.173 232.779Z" fill="#263238"/>
<path d="M219.96 233.813H224.804C224.892 233.814 224.977 233.844 225.046 233.899C225.115 233.954 225.163 234.031 225.183 234.116L226.059 238.059C226.085 238.154 226.088 238.254 226.068 238.35C226.048 238.447 226.006 238.538 225.944 238.615C225.883 238.692 225.804 238.754 225.715 238.796C225.625 238.837 225.527 238.857 225.429 238.853C223.681 238.822 221.158 238.721 218.963 238.721C216.39 238.721 214.176 238.86 211.16 238.86C209.338 238.86 208.833 237.018 209.596 236.847C213.065 236.091 215.904 236.009 218.9 234.16C219.215 233.95 219.581 233.83 219.96 233.813Z" fill="#263238"/>
<path d="M237.893 82.9078C242.049 83.8603 245.462 94.4762 245.462 94.4762L237.155 100.828C234.998 98.5226 233.477 95.6972 232.739 92.628C231.27 87.0646 233.641 81.9238 237.893 82.9078Z" fill="#407BFF"/>
<path opacity="0.4" d="M237.893 82.9078C242.049 83.8603 245.462 94.4762 245.462 94.4762L237.155 100.828C234.998 98.5226 233.477 95.6972 232.739 92.628C231.27 87.0646 233.641 81.9238 237.893 82.9078Z" fill="black"/>
<path d="M216.024 95.567C214.989 96.6835 213.955 97.6801 212.87 98.7209C212.334 99.2255 211.791 99.7301 211.236 100.216L210.397 100.954L210.189 101.137L209.83 101.427C209.46 101.723 209.05 101.965 208.612 102.146C208.125 102.353 207.602 102.46 207.073 102.461C206.621 102.463 206.173 102.384 205.749 102.228C205.278 102.049 204.849 101.776 204.487 101.427C204.025 100.975 203.686 100.413 203.503 99.7932C203.407 99.4877 203.346 99.1724 203.32 98.8533C203.287 98.4798 203.287 98.1041 203.32 97.7305C203.352 97.4278 203.39 97.1629 203.44 96.9169C203.613 96.0568 203.857 95.2128 204.172 94.3938C204.456 93.6153 204.782 92.853 205.149 92.1104C205.553 91.3093 205.938 90.7227 206.323 90.0541C207.885 87.4939 209.669 85.0752 211.653 82.8254C213.616 80.589 215.781 78.5367 218.118 76.6943L220.439 79.085C218.812 81.2674 217.21 83.6076 215.727 85.9099C214.252 88.1992 212.905 90.5682 211.691 93.0061C211.419 93.599 211.06 94.2676 210.889 94.747C210.664 95.3039 210.468 95.8724 210.303 96.4501C210.144 96.9703 210.024 97.5016 209.943 98.0396C209.939 98.1237 209.939 98.2079 209.943 98.2919C209.943 98.3424 209.943 98.3676 209.943 98.2352C209.933 98.0936 209.905 97.9538 209.861 97.8189C209.725 97.3717 209.475 96.9675 209.136 96.6456C208.834 96.3685 208.48 96.1541 208.095 96.0149C207.757 95.8866 207.398 95.8203 207.035 95.8193C206.687 95.8151 206.342 95.8816 206.02 96.0149C205.911 96.0593 205.806 96.1121 205.705 96.1725L205.944 95.9518L206.707 95.2579L208.215 93.845C209.212 92.9051 210.215 91.9022 211.161 90.9687L216.024 95.567Z" fill="#FF8B7B"/>
<path opacity="0.2" d="M234.329 90.7041C236.587 92.937 237.325 97.0118 237.483 100.544L237.117 100.828C234.96 98.5225 233.439 95.6972 232.701 92.628C232.619 92.3 232.544 91.9972 232.487 91.6376L234.329 90.7041Z" fill="black"/>
<path d="M211.615 87.3229C210.707 92.1168 210.139 101.963 212.769 121.454H236.524C236.688 117.814 234.399 100.039 237.912 82.876C235.287 82.3719 232.632 82.037 229.964 81.8731C226.603 81.6803 223.233 81.6803 219.872 81.8731C218.762 81.974 217.664 82.138 216.718 82.3083C215.46 82.5291 214.298 83.1267 213.387 84.0222C212.476 84.9176 211.858 86.0687 211.615 87.3229Z" fill="#407BFF"/>
<path opacity="0.4" d="M211.615 87.3229C210.707 92.1168 210.139 101.963 212.769 121.454H236.524C236.688 117.814 234.399 100.039 237.912 82.876C235.287 82.3719 232.632 82.037 229.964 81.8731C226.603 81.6803 223.233 81.6803 219.872 81.8731C218.762 81.974 217.664 82.138 216.718 82.3083C215.46 82.5291 214.298 83.1267 213.387 84.0222C212.476 84.9176 211.858 86.0687 211.615 87.3229Z" fill="black"/>
<path opacity="0.2" d="M215.248 94.4315L210.959 93.4033C210.826 96.0021 210.814 99.219 211.003 103.199C212.977 100.954 215.5 97.4466 215.248 94.4315Z" fill="black"/>
<path opacity="0.2" d="M219.487 224.055L219.714 229.353H224.155L223.927 224.055H219.487Z" fill="black"/>
<path opacity="0.2" d="M252.577 222.705L248.237 223.645L250.483 228.578L254.823 227.638L252.577 222.705Z" fill="black"/>
<path d="M230.803 67.2391C229.667 71.4905 229.213 74.0388 226.589 75.805C222.647 78.4921 217.727 75.4139 217.601 70.9228C217.462 66.8669 219.348 60.5908 223.909 59.7329C224.911 59.5448 225.944 59.6151 226.912 59.9369C227.879 60.2588 228.749 60.8218 229.439 61.5728C230.129 62.3237 230.616 63.238 230.854 64.2293C231.093 65.2207 231.075 66.2565 230.803 67.2391Z" fill="#FF8B7B"/>
<path d="M220.85 67.3968C220.635 66.8291 219.657 62.4326 220.578 61.2909C221.499 60.1492 232.002 60.9755 233.553 62.502C236.133 65.025 234.342 67.2958 231.522 70.2163C229.403 72.4114 229.321 74.884 228.249 75.2625C226.356 75.8932 223.467 75.3003 222.887 73.3008C222.307 71.3012 220.85 67.3968 220.85 67.3968Z" fill="#263238"/>
<path d="M232.279 57.4997C228.57 55.9228 221.612 57.67 217.853 56.7617C217.805 58.1596 218.265 59.5276 219.147 60.6129C220.03 61.6981 221.275 62.4273 222.653 62.6657C225.772 63.2601 228.94 63.5537 232.115 63.5425C236.24 63.3533 235.433 58.8433 232.279 57.4997Z" fill="#263238"/>
<path d="M232.859 62.6344C234.214 62.7677 235.579 62.5071 236.789 61.8838C237.483 63.5616 233.667 64.0221 232.859 62.6344Z" fill="#263238"/>
<path d="M222.868 67.5729C222.782 68.6668 222.339 69.7021 221.606 70.5186C220.635 71.5846 219.625 70.916 219.455 69.6229C219.304 68.4496 219.619 66.469 220.805 65.9013C221.991 65.3336 222.95 66.2546 222.868 67.5729Z" fill="#FF8B7B"/>
<path d="M221.19 121.473C221.19 121.473 226.236 155.377 228.993 168.08C232.014 181.989 248.25 228.003 248.25 228.003L256.191 226.281C256.191 226.281 244.838 188.776 242.314 169.329C240.359 154.393 236.518 121.46 236.518 121.46L221.19 121.473Z" fill="#5669F5"/>
<path d="M246.345 225.361C246.314 225.361 247.828 228.237 247.828 228.237L256.759 226.3L256.009 223.613L246.345 225.361Z" fill="#263238"/>
<path opacity="0.3" d="M224.375 133.553C230.197 134.694 229.579 156.405 228.879 167.576C227.201 159.679 224.741 144.49 223.063 133.71C223.47 133.509 223.933 133.454 224.375 133.553Z" fill="black"/>
<path d="M212.769 121.472C212.769 121.472 212.138 154.645 212.643 168.15C213.148 182.222 218.061 228.3 218.061 228.3H225.58C225.58 228.3 225.851 183.042 226.211 169.222C226.577 154.159 228.393 121.447 228.393 121.447L212.769 121.472Z" fill="#5669F5"/>
<path d="M216.617 225.336C216.579 225.336 217.04 228.452 217.04 228.452H226.179L226.432 225.67L216.617 225.336Z" fill="#263238"/>
<path d="M220.912 88.7995C223.038 94.5332 210.542 101.289 210.542 101.289L205.13 94.3503C205.13 94.3503 208.77 87.1469 213.185 83.9047C218.641 79.9056 219.291 84.4346 220.912 88.7995Z" fill="#407BFF"/>
<path opacity="0.4" d="M220.912 88.7995C223.038 94.5332 210.542 101.289 210.542 101.289L205.13 94.3503C205.13 94.3503 208.77 87.1469 213.185 83.9047C218.641 79.9056 219.291 84.4346 220.912 88.7995Z" fill="black"/>
<path d="M269.873 45.2694C282.445 45.2694 292.637 38.774 292.637 30.7616C292.637 22.7492 282.445 16.2539 269.873 16.2539C257.3 16.2539 247.108 22.7492 247.108 30.7616C247.108 38.774 257.3 45.2694 269.873 45.2694Z" fill="#407BFF"/>
<path d="M261.66 38.0665C260.161 38.0617 258.711 37.5285 257.565 36.5606C256.42 35.5928 255.652 34.2522 255.397 32.7744C255.146 31.1736 255.507 29.5371 256.408 28.1906C257.309 26.8441 258.684 25.8863 260.26 25.5079C261.553 25.21 262.906 25.3248 264.131 25.8362C265.355 26.3476 266.388 27.2299 267.085 28.359L281.7 25.3439C282.261 25.2209 282.849 25.3143 283.345 25.6054C283.84 25.8966 284.208 26.3641 284.374 26.9145C284.451 27.2039 284.467 27.5058 284.423 27.8019C284.379 28.0979 284.275 28.3819 284.117 28.6363C283.96 28.8908 283.752 29.1104 283.506 29.2818C283.261 29.4532 282.983 29.5727 282.69 29.6331L282.312 29.7088C282.255 29.7189 282.202 29.7418 282.156 29.7757C282.11 29.8096 282.073 29.8536 282.047 29.9044C282.023 29.9559 282.011 30.0118 282.011 30.0684C282.011 30.1249 282.023 30.1808 282.047 30.2324L282.305 30.901C282.392 31.1177 282.4 31.3579 282.329 31.5801C282.258 31.8023 282.111 31.9927 281.914 32.1184C281.759 32.2142 281.628 32.3441 281.531 32.4982C281.433 32.6523 281.373 32.8266 281.353 33.0078C281.334 33.2157 281.25 33.4124 281.113 33.5699C280.976 33.7274 280.793 33.8375 280.59 33.8845L280.293 33.9476C280.088 33.9856 279.875 33.9571 279.687 33.8664C279.499 33.7757 279.344 33.6274 279.246 33.443C279.115 33.223 278.919 33.0493 278.685 32.9462C278.45 32.8431 278.19 32.8156 277.939 32.8677C277.688 32.9198 277.46 33.0488 277.286 33.2367C277.112 33.4246 277.001 33.6621 276.969 33.9161C276.951 34.1227 276.869 34.3184 276.733 34.4748C276.597 34.6313 276.414 34.7405 276.212 34.7865L275.916 34.8496C275.71 34.8866 275.498 34.8577 275.31 34.7671C275.122 34.6765 274.968 34.5287 274.869 34.345C274.774 34.1886 274.647 34.0545 274.495 33.9521C274.344 33.8498 274.172 33.7815 273.992 33.7521C273.749 33.7229 273.526 33.6062 273.363 33.4238C273.2 33.2415 273.11 33.0061 273.109 32.7618V32.0427C273.106 31.9864 273.091 31.9314 273.066 31.8813C273.04 31.8313 273.004 31.7874 272.959 31.7526C272.915 31.7179 272.864 31.6931 272.809 31.6801C272.754 31.667 272.697 31.6659 272.642 31.6768L267.98 32.6356C267.79 33.927 267.207 35.1285 266.31 36.0765C265.412 37.0246 264.245 37.6732 262.966 37.9341C262.536 38.0219 262.099 38.0663 261.66 38.0665ZM260.399 26.0819C258.968 26.4161 257.717 27.2799 256.898 28.4995C256.078 29.719 255.752 31.2037 255.983 32.6545C256.231 34.0043 256.954 35.2207 258.021 36.0837C259.088 36.9468 260.429 37.3994 261.801 37.3598C263.173 37.3201 264.485 36.7909 265.5 35.8677C266.516 34.9445 267.167 33.6884 267.337 32.3265V32.0994L272.478 31.0587C272.625 31.023 272.779 31.0206 272.927 31.0517C273.076 31.0828 273.216 31.1465 273.336 31.2383C273.457 31.3301 273.556 31.4477 273.626 31.5824C273.696 31.7172 273.734 31.8658 273.739 32.0174V32.7365C273.741 32.8221 273.772 32.9046 273.827 32.9701C273.882 33.0356 273.958 33.0801 274.042 33.0961C274.318 33.1356 274.581 33.2373 274.812 33.3936C275.042 33.5499 275.234 33.7566 275.373 33.9981C275.407 34.0661 275.46 34.1221 275.527 34.1583C275.594 34.1945 275.67 34.209 275.745 34.1999L276.035 34.1368C276.109 34.1179 276.174 34.0758 276.222 34.0167C276.27 33.9576 276.297 33.8847 276.3 33.8088C276.34 33.4162 276.504 33.0463 276.767 32.7527C277.031 32.4591 277.381 32.257 277.768 32.1755C278.154 32.0941 278.556 32.1375 278.916 32.2996C279.276 32.4617 279.575 32.734 279.77 33.0771C279.802 33.1447 279.855 33.2005 279.92 33.2367C279.986 33.2729 280.061 33.2877 280.135 33.279L280.438 33.2159C280.511 33.1958 280.575 33.1532 280.621 33.0942C280.668 33.0352 280.694 32.963 280.697 32.8879C280.728 32.611 280.822 32.3448 280.972 32.1098C281.122 31.8747 281.323 31.677 281.561 31.5318C281.63 31.4816 281.681 31.4097 281.705 31.3274C281.729 31.2452 281.725 31.1572 281.693 31.0776L281.435 30.409C281.381 30.2711 281.359 30.1233 281.368 29.9757C281.378 29.8282 281.42 29.6845 281.49 29.5548C281.561 29.425 281.66 29.3123 281.779 29.2245C281.898 29.1368 282.034 29.076 282.179 29.0465L282.564 28.9645C282.772 28.9201 282.969 28.8342 283.144 28.7118C283.318 28.5895 283.466 28.4332 283.578 28.2524C283.691 28.0717 283.765 27.8701 283.798 27.6597C283.831 27.4493 283.821 27.2345 283.769 27.0281C283.646 26.6311 283.377 26.2954 283.017 26.0883C282.656 25.8812 282.231 25.8181 281.826 25.9116L266.801 29.0339L266.687 28.8384C266.084 27.7637 265.147 26.9147 264.018 26.4197C262.889 25.9247 261.63 25.8106 260.43 26.0945L260.399 26.0819ZM261.66 35.7201C260.877 35.7288 260.107 35.5097 259.446 35.0893C258.664 34.5758 258.084 33.8069 257.805 32.9137C257.527 32.0205 257.566 31.0582 257.918 30.191C258.269 29.3238 258.91 28.6053 259.732 28.158C260.554 27.7107 261.506 27.5623 262.425 27.7381C263.344 27.9139 264.173 28.403 264.772 29.122C265.371 29.841 265.702 30.7454 265.708 31.6811C265.715 32.6168 265.397 33.5257 264.808 34.253C264.219 34.9804 263.397 35.481 262.48 35.6696C262.212 35.7182 261.939 35.7393 261.666 35.7327L261.66 35.7201ZM261.66 28.2707C261.425 28.272 261.191 28.2952 260.96 28.3401C260.521 28.4337 260.104 28.6129 259.734 28.8675C259.364 29.1222 259.047 29.4472 258.803 29.8241C258.558 30.2011 258.39 30.6225 258.308 31.0643C258.227 31.5061 258.233 31.9596 258.327 32.3991C258.42 32.8385 258.599 33.2552 258.854 33.6254C259.109 33.9955 259.434 34.3119 259.811 34.5564C260.188 34.801 260.609 34.9689 261.051 35.0506C261.493 35.1323 261.946 35.1261 262.386 35.0325C263.045 34.8952 263.65 34.5656 264.122 34.0854C264.595 33.6052 264.915 32.9957 265.042 32.334C265.168 31.6722 265.096 30.9877 264.835 30.3667C264.573 29.7458 264.134 29.2162 263.571 28.8447C263.013 28.4733 262.356 28.2777 261.685 28.2833L261.66 28.2707Z" fill="white"/>
<path opacity="0.6" d="M251.347 53.7785C255.479 53.7785 258.828 51.6435 258.828 49.0098C258.828 46.3762 255.479 44.2412 251.347 44.2412C247.216 44.2412 243.866 46.3762 243.866 49.0098C243.866 51.6435 247.216 53.7785 251.347 53.7785Z" fill="#407BFF"/>
<path opacity="0.3" d="M239.444 55.733C241.141 55.733 242.516 54.8576 242.516 53.7777C242.516 52.6977 241.141 51.8223 239.444 51.8223C237.748 51.8223 236.373 52.6977 236.373 53.7777C236.373 54.8576 237.748 55.733 239.444 55.733Z" fill="#407BFF"/>
<path d="M42.3994 107.023L49.6215 86.6125L63.6865 103.072L42.3994 107.023Z" stroke="white" stroke-width="2"/>
<path d="M197.912 104.412L198.888 114.936L209.412 115.912L198.888 116.888L197.912 127.412L196.936 116.888L186.412 115.912L196.936 114.936L197.912 104.412Z" fill="#FE7E72" fill-opacity="0.7"/>
<circle cx="289.412" cy="137.412" r="10" fill="#FE7E72"/>
</svg>
