<svg width="20" height="20" viewBox="0 0 20 20" fill="none" xmlns="http://www.w3.org/2000/svg">
<mask id="mask0_48_4286" style="mask-type:alpha" maskUnits="userSpaceOnUse" x="0" y="0" width="20" height="20">
<rect width="20" height="20" fill="black"/>
</mask>
<g mask="url(#mask0_48_4286)">
<path d="M4.41638 15.8333H15.583C15.6386 15.8333 15.6942 15.8056 15.7497 15.75C15.8053 15.6944 15.833 15.6389 15.833 15.5833V4.41667C15.833 4.36111 15.8053 4.30556 15.7497 4.25C15.6942 4.19444 15.6386 4.16667 15.583 4.16667H4.41638C4.36083 4.16667 4.30527 4.19444 4.24972 4.25C4.19416 4.30556 4.16638 4.36111 4.16638 4.41667V15.5833C4.16638 15.6389 4.19416 15.6944 4.24972 15.75C4.30527 15.8056 4.36083 15.8333 4.41638 15.8333ZM4.41638 17.0833C3.99972 17.0833 3.64555 16.9375 3.35388 16.6458C3.06222 16.3542 2.91638 16 2.91638 15.5833V4.41667C2.91638 4 3.06222 3.64583 3.35388 3.35417C3.64555 3.0625 3.99972 2.91667 4.41638 2.91667H8.12471C8.18027 2.45833 8.38527 2.06583 8.73972 1.73917C9.0936 1.41306 9.5136 1.25 9.99971 1.25C10.4997 1.25 10.9233 1.41306 11.2705 1.73917C11.6178 2.06583 11.8192 2.45833 11.8747 2.91667H15.583C15.9997 2.91667 16.3539 3.0625 16.6455 3.35417C16.9372 3.64583 17.083 4 17.083 4.41667V15.5833C17.083 16 16.9372 16.3542 16.6455 16.6458C16.3539 16.9375 15.9997 17.0833 15.583 17.0833H4.41638ZM9.99971 3.625C10.1803 3.625 10.3297 3.56583 10.448 3.4475C10.5658 3.32972 10.6247 3.18056 10.6247 3C10.6247 2.81944 10.5658 2.67 10.448 2.55167C10.3297 2.43389 10.1803 2.375 9.99971 2.375C9.81916 2.375 9.66999 2.43389 9.55221 2.55167C9.43388 2.67 9.37471 2.81944 9.37471 3C9.37471 3.18056 9.43388 3.32972 9.55221 3.4475C9.66999 3.56583 9.81916 3.625 9.99971 3.625Z" fill="black"/>
</g>
<mask id="mask1_48_4286" style="mask-type:alpha" maskUnits="userSpaceOnUse" x="0" y="0" width="20" height="20">
<rect width="20" height="20" fill="black"/>
</mask>
<g mask="url(#mask1_48_4286)">
<path d="M6.66638 13.8543H10.833C11.0136 13.8543 11.163 13.7954 11.2814 13.6777C11.3992 13.5593 11.458 13.4099 11.458 13.2293C11.458 13.0627 11.3992 12.9168 11.2814 12.7918C11.163 12.6668 11.0136 12.6043 10.833 12.6043H6.66638C6.48583 12.6043 6.33666 12.6668 6.21888 12.7918C6.10055 12.9168 6.04138 13.0627 6.04138 13.2293C6.04138 13.4099 6.10055 13.5593 6.21888 13.6777C6.33666 13.7954 6.48583 13.8543 6.66638 13.8543ZM6.66638 10.6252H13.333C13.5136 10.6252 13.663 10.566 13.7814 10.4477C13.8992 10.3299 13.958 10.1807 13.958 10.0002C13.958 9.81961 13.8992 9.67016 13.7814 9.55183C13.663 9.43405 13.5136 9.37516 13.333 9.37516H6.66638C6.48583 9.37516 6.33666 9.43405 6.21888 9.55183C6.10055 9.67016 6.04138 9.81961 6.04138 10.0002C6.04138 10.1807 6.10055 10.3299 6.21888 10.4477C6.33666 10.566 6.48583 10.6252 6.66638 10.6252ZM6.66638 7.396H13.333C13.5136 7.396 13.663 7.3335 13.7814 7.2085C13.8992 7.0835 13.958 6.93766 13.958 6.771C13.958 6.59044 13.8992 6.44127 13.7814 6.3235C13.663 6.20516 13.5136 6.146 13.333 6.146H6.66638C6.48583 6.146 6.33666 6.20516 6.21888 6.3235C6.10055 6.44127 6.04138 6.59044 6.04138 6.771C6.04138 6.93766 6.10055 7.0835 6.21888 7.2085C6.33666 7.3335 6.48583 7.396 6.66638 7.396Z" fill="black"/>
</g>
</svg>
