<svg width="20" height="20" viewBox="0 0 20 20" fill="none" xmlns="http://www.w3.org/2000/svg">
<path d="M18.3334 10H13.3334L11.6667 12.5H8.33341L6.66675 10H1.66675" stroke="black" stroke-width="1.66667" stroke-linecap="round" stroke-linejoin="round"/>
<path d="M4.54175 4.25801L1.66675 9.99967V14.9997C1.66675 15.4417 1.84234 15.8656 2.1549 16.1782C2.46746 16.4907 2.89139 16.6663 3.33341 16.6663H16.6667C17.1088 16.6663 17.5327 16.4907 17.8453 16.1782C18.1578 15.8656 18.3334 15.4417 18.3334 14.9997V9.99967L15.4584 4.25801C15.3204 3.98033 15.1077 3.74665 14.8442 3.58324C14.5807 3.41983 14.2768 3.33317 13.9667 3.33301H6.03341C5.72334 3.33317 5.41947 3.41983 5.15595 3.58324C4.89244 3.74665 4.67973 3.98033 4.54175 4.25801V4.25801Z" stroke="black" stroke-width="1.66667" stroke-linecap="round" stroke-linejoin="round"/>
</svg>
