<svg width="62" height="62" viewBox="0 0 62 62" fill="none" xmlns="http://www.w3.org/2000/svg">
<circle cx="31" cy="31" r="31" fill="#FFFCE1"/>
<g clip-path="url(#clip0_1008_1736)">
<path d="M26.2083 45.1667H32.0417C32.0417 46.7708 30.7292 48.0833 29.125 48.0833C27.5208 48.0833 26.2083 46.7708 26.2083 45.1667ZM23.2917 43.7083H34.9583V40.7917H23.2917V43.7083ZM40.0625 29.8542C40.0625 35.425 36.1833 38.4 34.5646 39.3333H23.6854C22.0667 38.4 18.1875 35.425 18.1875 29.8542C18.1875 23.8167 23.0875 18.9167 29.125 18.9167C35.1625 18.9167 40.0625 23.8167 40.0625 29.8542ZM47.1646 26.7479L45.1667 27.6667L47.1646 28.5854L48.0833 30.5833L49.0021 28.5854L51 27.6667L49.0021 26.7479L48.0833 24.75L47.1646 26.7479ZM43.7083 24.75L45.0792 21.7458L48.0833 20.375L45.0792 19.0042L43.7083 16L42.3375 19.0042L39.3333 20.375L42.3375 21.7458L43.7083 24.75Z" fill="#FFE81E"/>
</g>
<defs>
<clipPath id="clip0_1008_1736">
<rect width="35" height="35" fill="white" transform="translate(16 16)"/>
</clipPath>
</defs>
</svg>
