<svg width="74" height="74" viewBox="0 0 74 74" fill="none" xmlns="http://www.w3.org/2000/svg">
<circle cx="37" cy="37" r="37" fill="#D3EFFF"/>
<g clip-path="url(#clip0_1002_72)">
<path d="M30.6667 51.3333H37.3333C37.3333 53.1667 35.8333 54.6667 34 54.6667C32.1667 54.6667 30.6667 53.1667 30.6667 51.3333ZM27.3333 49.6667H40.6667V46.3333H27.3333V49.6667ZM46.5 33.8333C46.5 40.2 42.0667 43.6 40.2167 44.6667H27.7833C25.9333 43.6 21.5 40.2 21.5 33.8333C21.5 26.9333 27.1 21.3333 34 21.3333C40.9 21.3333 46.5 26.9333 46.5 33.8333ZM54.6167 30.2833L52.3333 31.3333L54.6167 32.3833L55.6667 34.6667L56.7167 32.3833L59 31.3333L56.7167 30.2833L55.6667 28L54.6167 30.2833ZM50.6667 28L52.2333 24.5667L55.6667 23L52.2333 21.4333L50.6667 18L49.1 21.4333L45.6667 23L49.1 24.5667L50.6667 28Z" fill="#1075AE"/>
</g>
<defs>
<clipPath id="clip0_1002_72">
<rect width="40" height="40" fill="white" transform="translate(19 18)"/>
</clipPath>
</defs>
</svg>
