<svg width="16" height="16" viewBox="0 0 16 16" fill="none" xmlns="http://www.w3.org/2000/svg">
<path d="M7.99967 11.9585C8.18023 11.9585 8.32967 11.8996 8.44801 11.7818C8.56579 11.6635 8.62467 11.5141 8.62467 11.3335V7.771C8.62467 7.60433 8.56579 7.46183 8.44801 7.3435C8.32967 7.22572 8.18023 7.16683 7.99967 7.16683C7.81912 7.16683 7.66995 7.22572 7.55217 7.3435C7.43384 7.46183 7.37467 7.61127 7.37467 7.79183V11.3543C7.37467 11.521 7.43384 11.6635 7.55217 11.7818C7.66995 11.8996 7.81912 11.9585 7.99967 11.9585ZM7.99967 5.75016C8.19412 5.75016 8.35384 5.68405 8.47884 5.55183C8.60384 5.42016 8.66634 5.25711 8.66634 5.06266C8.66634 4.88211 8.60384 4.72572 8.47884 4.5935C8.35384 4.46183 8.19412 4.396 7.99967 4.396C7.80523 4.396 7.64551 4.46183 7.52051 4.5935C7.39551 4.72572 7.33301 4.88211 7.33301 5.06266C7.33301 5.25711 7.39551 5.42016 7.52051 5.55183C7.64551 5.68405 7.80523 5.75016 7.99967 5.75016ZM7.99967 15.9168C6.90245 15.9168 5.87134 15.7085 4.90634 15.2918C3.94079 14.8752 3.10384 14.3127 2.39551 13.6043C1.68717 12.896 1.12467 12.0591 0.708008 11.0935C0.291341 10.1285 0.0830078 9.09738 0.0830078 8.00016C0.0830078 6.90294 0.291341 5.87155 0.708008 4.906C1.12467 3.941 1.68717 3.10433 2.39551 2.396C3.10384 1.68766 3.94079 1.12516 4.90634 0.708496C5.87134 0.291829 6.90245 0.0834961 7.99967 0.0834961C9.0969 0.0834961 10.1283 0.291829 11.0938 0.708496C12.0588 1.12516 12.8955 1.68766 13.6038 2.396C14.3122 3.10433 14.8747 3.941 15.2913 4.906C15.708 5.87155 15.9163 6.90294 15.9163 8.00016C15.9163 9.09738 15.708 10.1285 15.2913 11.0935C14.8747 12.0591 14.3122 12.896 13.6038 13.6043C12.8955 14.3127 12.0588 14.8752 11.0938 15.2918C10.1283 15.7085 9.0969 15.9168 7.99967 15.9168ZM7.99967 14.6668C9.8469 14.6668 11.42 14.0177 12.7188 12.7193C14.0172 11.4204 14.6663 9.84738 14.6663 8.00016C14.6663 6.15294 14.0172 4.57989 12.7188 3.281C11.42 1.98266 9.8469 1.3335 7.99967 1.3335C6.15245 1.3335 4.57967 1.98266 3.28134 3.281C1.98245 4.57989 1.33301 6.15294 1.33301 8.00016C1.33301 9.84738 1.98245 11.4204 3.28134 12.7193C4.57967 14.0177 6.15245 14.6668 7.99967 14.6668Z" fill="#1C1B1F"/>
</svg>
