<svg width="19" height="18" viewBox="0 0 19 18" fill="none" xmlns="http://www.w3.org/2000/svg">
<path d="M9.49967 17.0212H11.8569C11.8897 15.9378 12.0484 15.342 12.3334 15.234C15.3062 14.1058 17.4163 11.2555 17.4163 7.91699H1.58301C1.58301 11.183 3.60295 13.9823 6.47432 15.1584C6.77436 15.2811 6.9988 15.9025 7.14684 17.0212H9.49967Z" stroke="#31E1F7" stroke-width="1.58333" stroke-linejoin="round"/>
<path d="M5.7168 10.6966C5.8593 11.1665 6.04771 11.5548 6.28165 11.8611C6.52556 12.1753 6.81046 12.4554 7.12873 12.694M9.98032 7.92696C10.8582 6.12028 11.732 4.31159 12.6015 2.50088C13.0172 1.62609 13.8603 1.4155 14.6381 1.748C15.4159 2.0805 15.7306 3.0313 15.404 3.69432C15.2022 4.10361 14.5174 5.51159 13.3497 7.91825" stroke="#31E1F7" stroke-width="1.58333" stroke-linecap="round"/>
</svg>
