<svg width="14" height="14" viewBox="0 0 14 14" fill="none" xmlns="http://www.w3.org/2000/svg">
<path d="M2.00033 13.6667C1.63366 13.6667 1.31988 13.5363 1.05899 13.2754C0.797659 13.014 0.666992 12.7 0.666992 12.3334V1.66671C0.666992 1.30004 0.797659 0.986041 1.05899 0.724707C1.31988 0.463818 1.63366 0.333374 2.00033 0.333374H6.78366C6.96144 0.333374 7.13099 0.366707 7.29233 0.433374C7.45321 0.500041 7.59477 0.594485 7.71699 0.716707L10.9503 3.95004C11.0725 4.07226 11.167 4.21382 11.2337 4.37471C11.3003 4.53604 11.3337 4.7056 11.3337 4.88337V6.40004L6.00033 11.7167V13.6667H2.00033ZM7.66699 13.6667C7.5781 13.6667 7.50033 13.6334 7.43366 13.5667C7.36699 13.5 7.33366 13.4223 7.33366 13.3334V12.5334C7.33366 12.4445 7.35321 12.3556 7.39233 12.2667C7.43099 12.1778 7.4781 12.1056 7.53366 12.05L10.767 8.80004L12.2003 10.2L8.95033 13.4667C8.89477 13.5334 8.82255 13.5834 8.73366 13.6167C8.64477 13.65 8.55588 13.6667 8.46699 13.6667H7.66699ZM12.6837 9.73337L11.267 8.31671L11.7337 7.85004C11.867 7.71671 12.0281 7.65004 12.217 7.65004C12.4059 7.65004 12.5614 7.71671 12.6837 7.85004L13.1503 8.33337C13.2725 8.46671 13.3337 8.62493 13.3337 8.80804C13.3337 8.9916 13.2725 9.14448 13.1503 9.26671L12.6837 9.73337ZM7.33366 5.00004H10.0003L6.66699 1.66671V4.33337C6.66699 4.52226 6.73099 4.68048 6.85899 4.80804C6.98655 4.93604 7.14477 5.00004 7.33366 5.00004Z" fill="#28B6C8"/>
</svg>
