<svg width="20" height="18" viewBox="0 0 20 18" fill="none" xmlns="http://www.w3.org/2000/svg">
<path d="M19.3279 0.00447736H0.676627C0.434832 0.00447736 0.211433 0.13581 0.0906143 0.348986C-0.0302048 0.562002 -0.0302048 0.824687 0.0906143 1.03769C0.211433 1.25087 0.434824 1.3822 0.676627 1.3822H1.86517V11.2554C1.86517 11.8035 2.07896 12.329 2.45968 12.7166C2.84022 13.1042 3.35656 13.3218 3.89489 13.3218H7.72884L4.86474 16.2379C4.71891 16.3622 4.63144 16.5434 4.62342 16.7368C4.61539 16.9301 4.68776 17.1182 4.82274 17.2545C4.95756 17.3909 5.14272 17.4632 5.33259 17.4537C5.52247 17.4443 5.69977 17.3538 5.8209 17.2045L9.65486 13.3012H10.3653L14.1993 17.2045C14.372 17.3684 14.6162 17.4287 14.8433 17.3639C15.0706 17.2988 15.2483 17.118 15.312 16.8867C15.3757 16.6553 15.3165 16.4067 15.1556 16.231L12.271 13.3172H16.105C16.6433 13.3172 17.1597 13.0995 17.5404 12.7119C17.9209 12.3245 18.1349 11.7988 18.1349 11.2508V1.37757H19.3234C19.5651 1.37757 19.7884 1.24623 19.9093 1.03322C20.0302 0.820041 20.0302 0.557516 19.9093 0.344348C19.7884 0.131173 19.5651 0 19.3234 0L19.3279 0.00447736ZM16.7861 11.2553L16.7863 11.2555C16.7863 11.4381 16.715 11.6133 16.5881 11.7426C16.4611 11.8716 16.2892 11.9442 16.1097 11.9442H3.89485C3.71535 11.9442 3.5434 11.8716 3.41644 11.7426C3.28949 11.6133 3.21822 11.4381 3.21822 11.2555V1.38229H16.7862L16.7861 11.2553Z" fill="black"/>
<path d="M6.54538 9.81792C6.73832 9.81792 6.92331 9.73404 7.0596 9.58481C7.19606 9.43539 7.27266 9.23283 7.27266 9.02176V8.06881C7.27266 7.78423 7.134 7.52149 6.90894 7.37911C6.68405 7.23691 6.40671 7.23691 6.18183 7.37911C5.95677 7.52149 5.81812 7.78422 5.81812 8.06881V9.02176C5.81812 9.23283 5.89471 9.43539 6.03117 9.58481C6.16746 9.73404 6.35245 9.81792 6.54539 9.81792H6.54538Z" fill="black"/>
<path d="M10.1716 9.81801C10.3645 9.81801 10.5495 9.73414 10.6858 9.58491C10.8223 9.43549 10.8989 9.23293 10.8989 9.02186V4.17329C10.8989 3.88872 10.7602 3.62598 10.5352 3.4836C10.3103 3.3414 10.0329 3.3414 9.80805 3.4836C9.58299 3.62598 9.44434 3.88871 9.44434 4.17329L9.44434 9.02186C9.44434 9.23293 9.52093 9.43549 9.6574 9.58491C9.79368 9.73414 9.97867 9.81801 10.1716 9.81801Z" fill="black"/>
<path d="M13.4546 9.81836C13.6475 9.81836 13.8325 9.74217 13.9688 9.60661C14.1052 9.47089 14.1818 9.28689 14.1818 9.09515V6.54174C14.1818 6.28324 14.0432 6.0444 13.8181 5.91523C13.5932 5.78607 13.3159 5.78607 13.091 5.91523C12.8659 6.0444 12.7273 6.28323 12.7273 6.54174V9.09515C12.7273 9.28688 12.8039 9.47088 12.9404 9.60661C13.0766 9.74217 13.2616 9.81836 13.4546 9.81836H13.4546Z" fill="black"/>
</svg>
