<svg width="18" height="18" viewBox="0 0 18 18" fill="none" xmlns="http://www.w3.org/2000/svg">
<path d="M2.32602 2.93823H6.3671C7.0816 2.93823 7.76685 3.22207 8.27208 3.7273C8.77731 4.23253 9.06115 4.91778 9.06115 5.63228V15.0615C9.06115 14.5256 8.84827 14.0116 8.46935 13.6327C8.09042 13.2538 7.57649 13.0409 7.04061 13.0409H2.32602V2.93823Z" stroke="#4169E1" stroke-width="1.34703" stroke-linecap="round" stroke-linejoin="round"/>
<path d="M15.7963 2.93823H11.7552C11.0407 2.93823 10.3555 3.22207 9.85023 3.7273C9.34499 4.23253 9.06116 4.91778 9.06116 5.63228V15.0615C9.06116 14.5256 9.27403 14.0116 9.65296 13.6327C10.0319 13.2538 10.5458 13.0409 11.0817 13.0409H15.7963V2.93823Z" stroke="#4169E1" stroke-width="1.34703" stroke-linecap="round" stroke-linejoin="round"/>
</svg>
