<svg width="95" height="95" viewBox="0 0 95 95" fill="none" xmlns="http://www.w3.org/2000/svg">
<g filter="url(#filter0_d_1_1198)">
<path d="M71.547 6.15039L88.0651 23.3691V88.8479H26.3596V89.0616H88.2759V23.5859L71.547 6.15039Z" fill="#909090"/>
<path d="M71.342 5.9375H26.1487V88.8487H88.065V23.373L71.339 5.9375" fill="#F4F4F4"/>
<path d="M25.6946 10.3906H6.72427V30.6583H66.3961V10.3906H25.6946Z" fill="#7A7B7C"/>
<path d="M66.7138 30.3138H7.11023V10.0312H66.7138V30.3138Z" fill="#DD2025"/>
<path d="M26.8731 13.461H22.993V27.711H26.0448V22.9046L26.7187 22.9432C27.3736 22.9319 28.0222 22.8146 28.6395 22.5958C29.1807 22.4097 29.6786 22.1158 30.1031 21.7319C30.5351 21.3662 30.8756 20.9047 31.0976 20.3841C31.3954 19.5187 31.5017 18.599 31.4094 17.6885C31.3908 17.038 31.2768 16.3939 31.0709 15.7766C30.8835 15.331 30.6054 14.9293 30.2543 14.5971C29.9031 14.2649 29.4867 14.0094 29.0314 13.8469C28.6378 13.7044 28.2311 13.601 27.8172 13.5382C27.5037 13.4898 27.1873 13.464 26.8701 13.461M26.309 20.2713H26.0448V15.8775H26.6178C26.8707 15.8593 27.1244 15.8981 27.3603 15.9911C27.5961 16.0841 27.8081 16.2289 27.9805 16.4149C28.3376 16.8929 28.5285 17.4747 28.5237 18.0714C28.5237 18.8017 28.5237 19.4638 27.8647 19.9299C27.3899 20.191 26.8494 20.3086 26.309 20.2683M37.2073 13.4224C36.8778 13.4224 36.5572 13.4461 36.3315 13.455L35.625 13.4728H33.3094V27.7228H36.0347C37.0762 27.7514 38.1131 27.5749 39.0865 27.2033C39.87 26.8925 40.5638 26.3916 41.1053 25.7457C41.6318 25.0939 42.0098 24.335 42.2126 23.5221C42.4459 22.6014 42.5596 21.6545 42.5511 20.7047C42.6087 19.583 42.5219 18.4585 42.2928 17.3589C42.0754 16.5495 41.6684 15.8036 41.1053 15.1828C40.6635 14.6816 40.1227 14.2773 39.517 13.9953C38.9968 13.7546 38.4496 13.5772 37.8872 13.4669C37.6635 13.43 37.437 13.4131 37.2103 13.4164M36.67 25.1044H36.3731V16.0082H36.4117C37.0237 15.9377 37.643 16.0482 38.193 16.3258C38.5957 16.6474 38.9239 17.0526 39.1548 17.5133C39.4041 17.9982 39.5477 18.5304 39.5764 19.0749C39.6031 19.728 39.5764 20.2624 39.5764 20.7047C39.5885 21.2143 39.5557 21.7239 39.4784 22.2277C39.3869 22.7449 39.2178 23.2454 38.9767 23.7121C38.7038 24.146 38.3352 24.5116 37.899 24.7808C37.5328 25.0177 37.099 25.1282 36.664 25.0955M51.7453 13.4728H44.5312V27.7228H47.5831V22.0703H51.4425V19.4222H47.5831V16.121H51.7394V13.4728" fill="#464648"/>
<path d="M64.6625 60.1321C64.6625 60.1321 74.1269 58.4162 74.1269 61.6491C74.1269 64.8821 68.2636 63.5669 64.6625 60.1321ZM57.6652 60.3785C56.1615 60.7108 54.6961 61.1973 53.2922 61.8302L54.4797 59.1584C55.6672 56.4865 56.8992 52.8438 56.8992 52.8438C58.3163 55.2287 59.965 57.4681 61.8214 59.5295C60.4214 59.7382 59.0339 60.0236 57.6652 60.3845V60.3785ZM53.9186 41.0816C53.9186 38.2643 54.83 37.4954 55.5396 37.4954C56.2491 37.4954 57.0477 37.8368 57.0744 40.283C56.8432 42.7428 56.3282 45.1676 55.5396 47.509C54.4593 45.5432 53.9002 43.3336 53.9156 41.0905L53.9186 41.0816ZM40.1169 72.301C37.2135 70.5643 46.2058 65.2176 47.8357 65.0454C47.8267 65.0484 43.1569 74.1179 40.1169 72.301ZM76.8908 62.0321C76.8611 61.7352 76.5939 58.4488 70.7455 58.5884C68.3078 58.5491 65.8712 58.7209 63.4632 59.102C61.1305 56.7519 59.1217 54.1012 57.49 51.2199C58.518 48.2495 59.1402 45.1538 59.3396 42.0168C59.2535 38.4543 58.4014 36.4118 55.6702 36.4415C52.9389 36.4712 52.5411 38.861 52.9003 42.4176C53.2522 44.8076 53.9159 47.1411 54.8746 49.3585C54.8746 49.3585 53.6128 53.2862 51.9444 57.193C50.276 61.0999 49.136 63.1484 49.136 63.1484C46.2347 64.0928 43.5035 65.496 41.0461 67.3046C38.5999 69.5816 37.6053 71.3302 38.8938 73.0788C40.0041 74.587 43.8902 74.9284 47.3636 70.3773C49.2092 68.0266 50.8952 65.5551 52.4105 62.9791C52.4105 62.9791 57.7067 61.5274 59.3544 61.1296C61.0021 60.7318 62.9941 60.4171 62.9941 60.4171C62.9941 60.4171 67.8302 65.2829 72.4941 65.1107C77.158 64.9385 76.9324 62.323 76.9027 62.038" fill="#DD2025"/>
<path d="M71.1134 6.1665V23.602H87.8363L71.1134 6.1665Z" fill="#909090"/>
<path d="M71.342 5.9375V23.373H88.065L71.342 5.9375Z" fill="#F4F4F4"/>
<path d="M26.6444 13.2317H22.7643V27.4817H25.828V22.6783L26.5049 22.7169C27.1597 22.7056 27.8084 22.5883 28.4257 22.3695C28.9669 22.1833 29.4647 21.8894 29.8893 21.5056C30.318 21.139 30.6554 20.6775 30.8749 20.1578C31.1727 19.2924 31.279 18.3727 31.1866 17.4622C31.1681 16.8118 31.0541 16.1676 30.8482 15.5503C30.6608 15.1047 30.3827 14.703 30.0315 14.3708C29.6804 14.0386 29.2639 13.7831 28.8087 13.6206C28.4132 13.4767 28.0045 13.3723 27.5885 13.3089C27.2751 13.2605 26.9586 13.2348 26.6415 13.2317M26.0804 20.042H25.8162V15.6483H26.3921C26.645 15.63 26.8987 15.6689 27.1346 15.7619C27.3704 15.8549 27.5824 15.9997 27.7548 16.1856C28.1119 16.6636 28.3028 17.2455 28.298 17.8422C28.298 18.5725 28.298 19.2345 27.639 19.7006C27.1642 19.9618 26.6237 20.0793 26.0833 20.0391M36.9787 13.1931C36.6491 13.1931 36.3285 13.2169 36.1029 13.2258L35.4052 13.2436H33.0896V27.4936H35.8149C36.8564 27.5221 37.8934 27.3456 38.8668 26.9741C39.6503 26.6633 40.3441 26.1623 40.8855 25.5164C41.4121 24.8646 41.79 24.1058 41.9929 23.2928C42.2261 22.3721 42.3399 21.4252 42.3313 20.4755C42.3889 19.3537 42.3021 18.2293 42.073 17.1297C41.8557 16.3203 41.4486 15.5743 40.8855 14.9536C40.4438 14.4524 39.903 14.048 39.2973 13.7661C38.7771 13.5254 38.2299 13.348 37.6674 13.2377C37.4437 13.2007 37.2172 13.1838 36.9905 13.1872M36.4502 24.8752H36.1533V15.7789H36.1919C36.804 15.7085 37.4232 15.8189 37.9732 16.0966C38.3759 16.4182 38.7041 16.8233 38.9351 17.2841C39.1843 17.769 39.328 18.3012 39.3566 18.8456C39.3833 19.4988 39.3566 20.0331 39.3566 20.4755C39.3687 20.985 39.3359 21.4946 39.2587 21.9984C39.1672 22.5157 38.998 23.0161 38.7569 23.4828C38.4841 23.9167 38.1154 24.2823 37.6793 24.5516C37.313 24.7885 36.8793 24.899 36.4443 24.8663M51.5166 13.2436H44.3026V27.4936H47.3544V21.8411H51.2138V19.193H47.3544V15.8917H51.5107V13.2436" fill="white"/>
</g>
<defs>
<filter id="filter0_d_1_1198" x="-4" y="-3" width="103" height="103" filterUnits="userSpaceOnUse" color-interpolation-filters="sRGB">
<feFlood flood-opacity="0" result="BackgroundImageFix"/>
<feColorMatrix in="SourceAlpha" type="matrix" values="0 0 0 0 0 0 0 0 0 0 0 0 0 0 0 0 0 0 127 0" result="hardAlpha"/>
<feOffset dy="1"/>
<feGaussianBlur stdDeviation="2"/>
<feComposite in2="hardAlpha" operator="out"/>
<feColorMatrix type="matrix" values="0 0 0 0 0 0 0 0 0 0 0 0 0 0 0 0 0 0 0.25 0"/>
<feBlend mode="normal" in2="BackgroundImageFix" result="effect1_dropShadow_1_1198"/>
<feBlend mode="normal" in="SourceGraphic" in2="effect1_dropShadow_1_1198" result="shape"/>
</filter>
</defs>
</svg>
