<svg width="21" height="21" viewBox="0 0 21 21" fill="none" xmlns="http://www.w3.org/2000/svg">
<path d="M5.85705 0.444971C7.00005 1.27797 7.89005 2.41497 8.65004 3.50297L9.09205 4.14697L9.50905 4.76197C9.71763 5.0667 9.80681 5.43752 9.7596 5.80377C9.71239 6.17002 9.53209 6.5061 9.25305 6.74797L7.30205 8.19697C7.20779 8.26504 7.14144 8.365 7.11532 8.47829C7.08921 8.59159 7.1051 8.71051 7.16005 8.81297C7.60205 9.61597 8.38805 10.812 9.28805 11.712C10.189 12.612 11.441 13.45 12.3 13.942C12.4077 14.0024 12.5345 14.0193 12.6543 13.9892C12.7741 13.9591 12.8778 13.8842 12.944 13.78L14.214 11.847C14.4475 11.5368 14.792 11.329 15.1752 11.2672C15.5585 11.2053 15.9508 11.2941 16.27 11.515L16.933 11.974C18.172 12.834 19.503 13.811 20.521 15.114C20.6825 15.3218 20.7852 15.5691 20.8184 15.8301C20.8517 16.0912 20.8143 16.3563 20.71 16.598C19.873 18.551 17.755 20.214 15.552 20.133L15.252 20.116L15.019 20.096L14.761 20.066L14.48 20.028L14.175 19.978C14.1216 19.9683 14.0683 19.9583 14.015 19.948L13.679 19.876C13.6203 19.8631 13.5616 19.8497 13.503 19.836L13.137 19.742L12.752 19.632L12.35 19.502C10.504 18.876 8.16105 17.646 5.75705 15.242C3.35405 12.839 2.12405 10.496 1.49805 8.64997L1.36805 8.24797L1.25805 7.86297L1.16405 7.49697L1.08605 7.15097C1.06352 7.04261 1.04251 6.93393 1.02305 6.82497L0.973046 6.51997L0.933045 6.23897L0.904046 5.98097L0.884045 5.74797L0.868046 5.44797C0.787046 3.25197 2.46805 1.11897 4.41205 0.285971C4.64602 0.184938 4.90225 0.146472 5.15558 0.174347C5.40891 0.202222 5.65063 0.29548 5.85705 0.444971ZM13.992 4.03997L14.108 4.05297C14.836 4.18137 15.5045 4.53691 16.0179 5.06865C16.5314 5.60039 16.8632 6.28101 16.966 7.01297C17.0027 7.26615 16.9409 7.52375 16.7934 7.73277C16.646 7.9418 16.424 8.08635 16.1732 8.13669C15.9223 8.18704 15.6618 8.13934 15.445 8.00342C15.2283 7.8675 15.0719 7.65369 15.008 7.40597L14.985 7.29097C14.9448 7.00407 14.8224 6.73496 14.6325 6.51616C14.4426 6.29735 14.1934 6.13821 13.915 6.05797L13.76 6.02297C13.5089 5.97847 13.2843 5.83971 13.1321 5.63508C12.98 5.43045 12.9117 5.17541 12.9413 4.92212C12.971 4.66883 13.0963 4.43643 13.2916 4.27245C13.4869 4.10848 13.7375 4.02531 13.992 4.03997ZM14 0.999971C15.5913 0.999971 17.1175 1.63211 18.2427 2.75733C19.3679 3.88255 20 5.40867 20 6.99997C19.9998 7.25485 19.9022 7.5 19.7272 7.68534C19.5522 7.87068 19.3131 7.98221 19.0587 7.99714C18.8042 8.01208 18.5537 7.9293 18.3582 7.76571C18.1628 7.60212 18.0371 7.37007 18.007 7.11697L18 6.99997C18.0004 5.98439 17.6143 5.00673 16.92 4.2655C16.2258 3.52426 15.2755 3.07502 14.262 3.00897L14 2.99997C13.7348 2.99997 13.4805 2.89461 13.2929 2.70708C13.1054 2.51954 13 2.26519 13 1.99997C13 1.73475 13.1054 1.4804 13.2929 1.29286C13.4805 1.10533 13.7348 0.999971 14 0.999971Z" fill="#1E38FC"/>
</svg>
