<svg width="133" height="133" viewBox="0 0 133 133" fill="none" xmlns="http://www.w3.org/2000/svg">
<path d="M133 101.718H0V101.785H133V101.718Z" fill="#EBEBEB"/>
<path d="M119.673 105.998H110.864V106.065H119.673V105.998Z" fill="#EBEBEB"/>
<path d="M88.1045 106.722H85.793V106.788H88.1045V106.722Z" fill="#EBEBEB"/>
<path d="M110.597 103.53H105.493V103.596H110.597V103.53Z" fill="#EBEBEB"/>
<path d="M25.4429 103.977H13.9543V104.043H25.4429V103.977Z" fill="#EBEBEB"/>
<path d="M29.4968 103.977H27.813V104.043H29.4968V103.977Z" fill="#EBEBEB"/>
<path d="M59.8899 105.099H34.9711V105.166H59.8899V105.099Z" fill="#EBEBEB"/>
<path d="M63.042 89.8547H11.68C11.2777 89.854 10.892 89.6936 10.6077 89.4089C10.3235 89.1241 10.1638 88.7382 10.1638 88.3358V16.1354C10.1673 15.7354 10.3285 15.3529 10.6124 15.071C10.8963 14.7891 11.2799 14.6306 11.68 14.6299H63.042C63.4448 14.6299 63.8311 14.7899 64.116 15.0747C64.4008 15.3596 64.5608 15.7459 64.5608 16.1487V88.3358C64.5608 88.7386 64.4008 89.125 64.116 89.4098C63.8311 89.6947 63.4448 89.8547 63.042 89.8547V89.8547ZM11.68 14.6831C11.2953 14.6838 10.9266 14.8371 10.6548 15.1094C10.383 15.3817 10.2303 15.7507 10.2303 16.1354V88.3358C10.2303 88.7206 10.383 89.0896 10.6548 89.3619C10.9266 89.6342 11.2953 89.7875 11.68 89.7882H63.042C63.4269 89.7875 63.7959 89.6342 64.0682 89.362C64.3404 89.0898 64.4936 88.7208 64.4943 88.3358V16.1354C64.4936 15.7505 64.3404 15.3815 64.0682 15.1092C63.7959 14.837 63.4269 14.6838 63.042 14.6831H11.68Z" fill="#EBEBEB"/>
<path d="M120.58 89.8547H69.2159C68.8133 89.854 68.4274 89.6937 68.1427 89.409C67.858 89.1244 67.6977 88.7384 67.697 88.3358V16.1354C67.7012 15.7351 67.863 15.3526 68.1473 15.0708C68.4316 14.789 68.8156 14.6306 69.2159 14.6299H120.58C120.98 14.6313 121.363 14.7901 121.646 15.0719C121.93 15.3537 122.091 15.7358 122.094 16.1354V88.3358C122.094 88.7377 121.935 89.1233 121.651 89.4079C121.367 89.6926 120.982 89.8533 120.58 89.8547V89.8547ZM69.2159 14.6831C68.8309 14.6838 68.4619 14.837 68.1897 15.1092C67.9175 15.3815 67.7642 15.7505 67.7635 16.1354V88.3358C67.7642 88.7208 67.9175 89.0898 68.1897 89.362C68.4619 89.6342 68.8309 89.7875 69.2159 89.7882H120.58C120.965 89.7875 121.334 89.6342 121.607 89.362C121.879 89.0898 122.032 88.7208 122.033 88.3358V16.1354C122.032 15.7505 121.879 15.3815 121.607 15.1092C121.334 14.837 120.965 14.6838 120.58 14.6831H69.2159Z" fill="#EBEBEB"/>
<path d="M104.559 20.2583H26.9431V56.5726H104.559V20.2583Z" fill="#E6E6E6"/>
<path d="M105.727 20.2583H27.4884V56.5726H105.727V20.2583Z" fill="#F0F0F0"/>
<path d="M104.559 56.5728H26.9431V58.4241H104.559V56.5728Z" fill="#E6E6E6"/>
<path d="M107.674 56.5728H29.4355V58.4241H107.674V56.5728Z" fill="#F0F0F0"/>
<path d="M104.091 54.9368V21.897L29.127 21.897V54.9368L104.091 54.9368Z" fill="#FAFAFA"/>
<path d="M37.1682 54.9368L41.7248 21.897H48.835L44.2784 54.9368H37.1682Z" fill="white"/>
<path d="M29.8824 53.3061C29.8514 53.3061 29.8216 53.2937 29.7997 53.2718C29.7777 53.2498 29.7654 53.2201 29.7654 53.189V22.9608C29.7654 22.9297 29.7777 22.9 29.7997 22.878C29.8216 22.8561 29.8514 22.8438 29.8824 22.8438C29.8978 22.8438 29.913 22.8468 29.9272 22.8527C29.9414 22.8585 29.9543 22.8672 29.9652 22.878C29.976 22.8889 29.9847 22.9018 29.9906 22.916C29.9964 22.9302 29.9995 22.9454 29.9995 22.9608V53.1997C29.9974 53.2291 29.9841 53.2565 29.9623 53.2764C29.9405 53.2962 29.9119 53.3068 29.8824 53.3061V53.3061Z" fill="#F0F0F0"/>
<path d="M45.8052 54.9368L50.3618 21.897H53.1335L48.5769 54.9368H45.8052Z" fill="white"/>
<path d="M104.091 54.9368V21.897H103.884V54.9368H104.091Z" fill="#E6E6E6"/>
<path opacity="0.6" d="M106.113 24.3655H28.4993L28.3477 22.5327H105.964L106.113 24.3655Z" fill="#EBEBEB"/>
<path opacity="0.6" d="M106.113 27.3684H28.4993L28.3477 25.5356H105.964L106.113 27.3684Z" fill="#EBEBEB"/>
<path opacity="0.6" d="M106.113 30.3742H28.4993L28.3477 28.5415H105.964L106.113 30.3742Z" fill="#EBEBEB"/>
<path opacity="0.6" d="M106.113 33.3777H28.4993L28.3477 31.5449H105.964L106.113 33.3777Z" fill="#EBEBEB"/>
<path opacity="0.6" d="M106.113 36.3835H28.4993L28.3477 34.5508H105.964L106.113 36.3835Z" fill="#EBEBEB"/>
<path opacity="0.6" d="M106.113 39.3865H28.4993L28.3477 37.5537H105.964L106.113 39.3865Z" fill="#EBEBEB"/>
<path d="M116.774 65.7017H104.929V101.718H116.774V65.7017Z" fill="#E6E6E6"/>
<path d="M113.611 101.718H116.774V96.7466H110.294L113.611 101.718Z" fill="#FAFAFA"/>
<path d="M84.4789 65.7017H72.6339V101.718H84.4789V65.7017Z" fill="#E6E6E6"/>
<path d="M116.774 65.7017H81.7179V100.008H116.774V65.7017Z" fill="#FAFAFA"/>
<path d="M84.8806 101.718H81.7179V96.7466H88.1977L84.8806 101.718Z" fill="#FAFAFA"/>
<path d="M114.319 78.4858H84.1704V87.0697H114.319V78.4858Z" fill="#F0F0F0"/>
<path d="M114.319 88.9053H84.1704V97.4891H114.319V88.9053Z" fill="#F0F0F0"/>
<path d="M88.9078 77.7412H109.592V78.1588C109.592 78.4883 109.461 78.8043 109.228 79.0372C108.995 79.2702 108.679 79.401 108.35 79.401H90.1527C89.8233 79.401 89.5073 79.2702 89.2743 79.0372C89.0414 78.8043 88.9105 78.4883 88.9105 78.1588V77.7412H88.9078Z" fill="#FAFAFA"/>
<path d="M114.319 68.064H84.1704V76.6478H114.319V68.064Z" fill="#F0F0F0"/>
<path d="M88.9078 67.3218H109.592V67.7394C109.592 68.0689 109.461 68.3848 109.228 68.6178C108.995 68.8507 108.679 68.9816 108.35 68.9816H90.1527C89.8233 68.9816 89.5073 68.8507 89.2743 68.6178C89.0414 68.3848 88.9105 68.0689 88.9105 67.7394V67.3218H88.9078Z" fill="#FAFAFA"/>
<path d="M88.9078 88.1602H109.592V88.5778C109.592 88.9072 109.461 89.2232 109.228 89.4562C108.995 89.6891 108.679 89.82 108.35 89.82H90.1527C89.8233 89.82 89.5073 89.6891 89.2743 89.4562C89.0414 89.2232 88.9105 88.9072 88.9105 88.5778V88.1602H88.9078Z" fill="#FAFAFA"/>
<path d="M14.2097 73.3813C14.8694 71.4847 20.0617 74.0622 22.1897 77.201C23.5969 79.2918 24.456 81.5235 24.8497 84.5214C24.8018 81.1006 24.7486 77.4271 24.6954 73.9585C24.2672 73.094 23.291 71.099 22.5914 69.519C20.2506 64.2468 14.6859 62.2838 12.7494 58.9561C10.2304 54.5937 10.2463 48.0501 12.3903 45.6933C14.2523 43.6398 20.4235 57.5117 21.1204 59.0625C23.5144 64.3825 24.206 68.3486 24.6529 72.1816C24.6023 68.9231 24.5545 65.9333 24.5146 63.6244C24.3842 56.0966 24.2193 53.676 24.1448 52.9312C23.8788 52.5668 23.5836 52.1332 23.4053 51.9151C21.9131 49.9919 18.5987 47.7043 16.9442 44.9086C14.5263 40.8282 14.9173 35.9444 16.6117 34.125C18.3992 32.2231 21.546 36.7079 23.1979 41.1713C24.8497 45.6348 24.1501 49.8855 24.6183 53.5856C24.7167 54.3091 24.8151 57.0648 24.9109 60.8873C25.4163 56.7749 26.4218 54.0191 28.2838 51.4522C30.5767 48.2948 32.5557 44.4511 34.4443 44.9485C36.3329 45.446 35.3168 50.5345 33.8219 54.1043C32.4919 57.283 25.927 60.4563 24.9588 63.0126C25.0732 68.1943 25.1742 74.7565 25.2487 80.8665C25.7648 77.7091 25.4083 77.4458 27.531 72.6205C28.7918 69.7477 33.9602 66.2073 34.5773 68.181C35.1945 70.1547 34.2555 73.884 32.3057 76.4961C30.731 78.6055 27.2517 78.6029 26.4298 79.9089C26.2409 80.2148 25.6318 81.3852 25.262 82.0555C25.3445 89.5168 25.3844 96.1003 25.3418 98.3454L25.0013 98.3693C25.02 97.7894 24.9774 93.9936 24.9109 88.9715C24.0624 86.3115 18.354 84.7421 16.5904 81.9624C14.7444 79.0471 13.417 75.6529 14.2097 73.3813Z" fill="#E6E6E6"/>
<path d="M19.5776 101.718H30.5368C30.8272 101.718 31.1086 101.618 31.3334 101.434C31.5583 101.25 31.7129 100.995 31.7711 100.71L32.5478 96.8745H17.556L18.354 100.71C18.4118 100.993 18.5649 101.247 18.7876 101.431C19.0102 101.614 19.2891 101.716 19.5776 101.718V101.718Z" fill="#F0F0F0"/>
<path d="M17.2528 98.3612H32.8617C33.0427 98.3611 33.2173 98.2943 33.3522 98.1736C33.4871 98.0529 33.5729 97.8868 33.5932 97.7069L33.9124 94.8713C33.9236 94.7685 33.913 94.6645 33.8814 94.5661C33.8497 94.4676 33.7977 94.3769 33.7287 94.2999C33.6597 94.2229 33.5753 94.1612 33.4809 94.119C33.3865 94.0767 33.2843 94.0548 33.1809 94.0547H16.9336C16.8302 94.0548 16.728 94.0767 16.6336 94.119C16.5392 94.1612 16.4547 94.2229 16.3857 94.2999C16.3167 94.3769 16.2647 94.4676 16.2331 94.5661C16.2015 94.6645 16.1909 94.7685 16.2021 94.8713L16.5213 97.7069C16.5415 97.8868 16.6273 98.0529 16.7622 98.1736C16.8971 98.2943 17.0718 98.3611 17.2528 98.3612Z" fill="#F0F0F0"/>
<path d="M47.3054 84.4868H37.9396V101.718H47.3054V84.4868Z" fill="#E0E0E0"/>
<path d="M71.1763 101.718H39.8176L36.5219 78.3369H67.8806L71.1763 101.718Z" fill="#E6E6E6"/>
<path d="M75.7514 101.718H41.0624L37.7693 78.3369H72.4557L75.7514 101.718Z" fill="#F0F0F0"/>
<path d="M44.4566 98.0634L41.6823 81.9917H69.0616L71.836 98.0634H44.4566Z" fill="white"/>
<path d="M56.2218 98.0634L46.9171 81.9917H49.8351L59.1425 98.0634H56.2218Z" fill="#FAFAFA"/>
<path d="M60.3794 98.0634L51.072 81.9917H56.0515L65.3562 98.0634H60.3794Z" fill="#FAFAFA"/>
<path d="M66.5 113.731C94.984 113.731 118.075 112.383 118.075 110.72C118.075 109.057 94.984 107.708 66.5 107.708C38.0161 107.708 14.9253 109.057 14.9253 110.72C14.9253 112.383 38.0161 113.731 66.5 113.731Z" fill="#F5F5F5"/>
<path d="M20.5538 58.9268C20.5252 58.9269 20.4976 58.9164 20.4765 58.8972C20.4553 58.878 20.4421 58.8515 20.4394 58.8231L19.8489 51.7209C19.8474 51.6921 19.8571 51.6638 19.8759 51.642C19.8948 51.6202 19.9213 51.6065 19.95 51.6038C19.9799 51.6016 20.0095 51.6112 20.0324 51.6307C20.0553 51.6501 20.0696 51.6777 20.0723 51.7076L20.6629 58.8098C20.6651 58.8397 20.6554 58.8693 20.636 58.8922C20.6166 58.9151 20.589 58.9294 20.5591 58.9321L20.5538 58.9268Z" fill="#1E38FC"/>
<path d="M20.9049 63.1454C20.8764 63.1456 20.8488 63.135 20.8276 63.1158C20.8064 63.0966 20.7932 63.0702 20.7906 63.0417L20.6123 60.8924C20.6109 60.8775 20.6124 60.8625 20.6169 60.8482C20.6214 60.8339 20.6286 60.8207 20.6383 60.8093C20.648 60.7979 20.6599 60.7885 20.6732 60.7818C20.6866 60.775 20.7012 60.7711 20.7161 60.7701C20.731 60.7686 20.746 60.7702 20.7603 60.7746C20.7746 60.7791 20.7878 60.7864 20.7992 60.796C20.8106 60.8057 20.82 60.8176 20.8267 60.8309C20.8335 60.8443 20.8375 60.8589 20.8384 60.8738L21.0167 63.0231C21.0189 63.053 21.0093 63.0826 20.9898 63.1055C20.9704 63.1284 20.9428 63.1427 20.9129 63.1454H20.9049Z" fill="#1E38FC"/>
<path d="M80.7469 83.3561H25.8232C25.1313 83.3426 24.4683 83.0757 23.9599 82.606C23.4515 82.1364 23.1331 81.4966 23.0648 80.8079L19.9712 43.6237C19.9382 43.2989 19.9742 42.9708 20.077 42.661C20.1797 42.3511 20.3469 42.0665 20.5675 41.8258C20.7881 41.5851 21.0571 41.3938 21.3568 41.2645C21.6566 41.1352 21.9803 41.0708 22.3067 41.0754H77.2277C77.92 41.0889 78.5833 41.3557 79.0921 41.8253C79.601 42.2949 79.92 42.9347 79.9888 43.6237L83.0824 80.8025C83.1158 81.1277 83.0801 81.4562 82.9775 81.7665C82.875 82.0768 82.7079 82.3619 82.4873 82.6031C82.2668 82.8443 81.9977 83.0361 81.6977 83.1658C81.3977 83.2956 81.0737 83.3605 80.7469 83.3561V83.3561Z" fill="white"/>
<path d="M80.747 83.4627H25.8233C25.1043 83.451 24.4149 83.175 23.8864 82.6873C23.358 82.1996 23.0277 81.5344 22.9585 80.8187L19.8649 43.6372C19.8337 43.298 19.8736 42.9559 19.9822 42.633C20.0907 42.3101 20.2655 42.0134 20.4953 41.7619C20.724 41.5088 21.0036 41.3068 21.3158 41.1693C21.628 41.0318 21.9657 40.9618 22.3068 40.9639H77.2278C77.9498 40.9754 78.642 41.2534 79.1713 41.7444C79.7007 42.2354 80.0298 42.9049 80.0953 43.6239L83.1862 80.8027C83.2204 81.1418 83.1825 81.4843 83.075 81.8076C82.9675 82.131 82.7929 82.428 82.5626 82.6792C82.3322 82.9304 82.0514 83.13 81.7385 83.2651C81.4257 83.4001 81.0878 83.4674 80.747 83.4627V83.4627ZM22.3068 41.1874C21.9946 41.1823 21.6848 41.2435 21.398 41.367C21.1112 41.4905 20.8538 41.6734 20.6429 41.9036C20.432 42.1339 20.2723 42.4063 20.1744 42.7029C20.0765 42.9994 20.0427 43.3133 20.0751 43.6239L23.1686 80.8001C23.2344 81.4636 23.5418 82.0797 24.0322 82.5314C24.5227 82.9831 25.162 83.2388 25.8286 83.2499H80.747C81.0585 83.2545 81.3675 83.1932 81.6536 83.0698C81.9397 82.9465 82.1964 82.764 82.407 82.5344C82.6175 82.3048 82.7771 82.0332 82.8752 81.7375C82.9733 81.4418 83.0077 81.1286 82.9761 80.8187L79.8825 43.6372C79.8173 42.9735 79.5101 42.357 79.0195 41.9052C78.529 41.4534 77.8893 41.1979 77.2225 41.1874H22.3068Z" fill="#1E38FC"/>
<path d="M77.2278 41.0808H22.3068C21.9809 41.0762 21.6576 41.1405 21.3583 41.2695C21.0589 41.3985 20.7902 41.5893 20.5697 41.8294C20.3492 42.0695 20.1819 42.3534 20.0788 42.6626C19.9757 42.9719 19.9391 43.2994 19.9713 43.6238H79.9889C79.9188 42.9357 79.5993 42.2972 79.0906 41.8287C78.5819 41.3602 77.9193 41.0941 77.2278 41.0808V41.0808Z" fill="#1E38FC"/>
<path d="M23.5915 42.3553C23.5991 42.4254 23.5916 42.4963 23.5697 42.5633C23.5477 42.6304 23.5118 42.6919 23.4643 42.744C23.4167 42.7961 23.3587 42.8374 23.2939 42.8654C23.2292 42.8933 23.1593 42.9071 23.0888 42.906C22.9393 42.9028 22.7962 42.8451 22.6864 42.7436C22.5767 42.6422 22.5078 42.5041 22.4929 42.3553C22.4858 42.2853 22.4935 42.2146 22.5156 42.1478C22.5377 42.081 22.5737 42.0196 22.6211 41.9676C22.6686 41.9156 22.7265 41.8742 22.791 41.8462C22.8556 41.8181 22.9253 41.804 22.9957 41.8047C23.1454 41.8067 23.2892 41.8641 23.3992 41.9657C23.5092 42.0674 23.5777 42.2062 23.5915 42.3553Z" fill="white"/>
<path d="M25.826 42.3553C25.8335 42.4254 25.8261 42.4963 25.8042 42.5633C25.7822 42.6304 25.7463 42.6919 25.6988 42.744C25.6512 42.7961 25.5932 42.8374 25.5284 42.8654C25.4637 42.8933 25.3937 42.9071 25.3232 42.906C25.1757 42.9003 25.0351 42.8414 24.9276 42.7402C24.82 42.639 24.7527 42.5023 24.738 42.3553C24.7309 42.2853 24.7387 42.2146 24.7608 42.1478C24.7829 42.081 24.8188 42.0196 24.8663 41.9676C24.9137 41.9156 24.9716 41.8742 25.0361 41.8462C25.1007 41.8181 25.1704 41.804 25.2408 41.8047C25.3887 41.8093 25.5299 41.8678 25.6376 41.9692C25.7454 42.0706 25.8124 42.208 25.826 42.3553V42.3553Z" fill="white"/>
<path d="M28.0604 42.3553C28.0679 42.4254 28.0605 42.4963 28.0386 42.5633C28.0166 42.6304 27.9807 42.6919 27.9331 42.744C27.8856 42.7961 27.8275 42.8374 27.7628 42.8654C27.6981 42.8933 27.6281 42.9071 27.5576 42.906C27.4082 42.9028 27.2651 42.8451 27.1553 42.7436C27.0455 42.6422 26.9767 42.5041 26.9618 42.3553C26.9547 42.2853 26.9624 42.2146 26.9845 42.1478C27.0066 42.081 27.0426 42.0196 27.09 41.9676C27.1375 41.9156 27.1953 41.8742 27.2599 41.8462C27.3244 41.8181 27.3942 41.804 27.4645 41.8047C27.6143 41.8067 27.7581 41.8641 27.8681 41.9657C27.9781 42.0674 28.0466 42.2062 28.0604 42.3553V42.3553Z" fill="white"/>
<path d="M75.9802 78.4834H29.792C29.2418 78.4731 28.7146 78.2614 28.3101 77.8883C27.9056 77.5152 27.6521 77.0067 27.5975 76.4592L25.4269 50.5401C25.401 50.2816 25.4301 50.0206 25.5122 49.7741C25.5944 49.5277 25.7278 49.3014 25.9037 49.1102C26.0796 48.919 26.2939 48.7672 26.5327 48.6647C26.7714 48.5623 27.0292 48.5116 27.2889 48.5159H73.4851C74.0353 48.5262 74.5626 48.7379 74.967 49.111C75.3715 49.4841 75.625 49.9926 75.6796 50.5401L77.8369 76.4725C77.8608 76.7295 77.8304 76.9886 77.7476 77.2331C77.6649 77.4776 77.5316 77.7019 77.3565 77.8915C77.1814 78.0812 76.9684 78.2319 76.7313 78.3338C76.4942 78.4358 76.2383 78.4868 75.9802 78.4834Z" fill="#F0F0F0"/>
<path opacity="0.1" d="M61.6907 53.0428L47.3799 70.2743C46.9301 70.8153 46.6273 71.4632 46.5009 72.1554C46.3744 72.8476 46.4285 73.5606 46.6579 74.2258C46.8873 74.891 47.2842 75.4858 47.8105 75.9529C48.3367 76.42 48.9744 76.7435 49.6622 76.8923L72.884 81.9118C73.6103 82.0693 74.3657 82.0262 75.0694 81.787C75.773 81.5478 76.3983 81.1215 76.878 80.554C77.3578 79.9864 77.6741 79.2989 77.7929 78.5653C77.9116 77.8317 77.8285 77.0796 77.5523 76.3896L68.6492 54.136C68.3862 53.4757 67.9558 52.8953 67.4004 52.4518C66.8449 52.0083 66.1836 51.7171 65.4815 51.6067C64.7793 51.4964 64.0605 51.5708 63.3958 51.8226C62.7312 52.0744 62.1435 52.4949 61.6907 53.0428V53.0428Z" fill="#263238"/>
<path opacity="0.1" d="M29.8346 55.4581L24.8498 68.8938C24.7005 69.304 24.6575 69.7453 24.7248 70.1766C24.792 70.6079 24.9674 71.0151 25.2346 71.3604C25.5017 71.7056 25.8519 71.9775 26.2526 72.1509C26.6532 72.3242 27.0912 72.3934 27.5257 72.3518L42.0839 70.9233C42.5472 70.8781 42.9896 70.7086 43.3646 70.4328C43.7395 70.157 44.0331 69.7851 44.2142 69.3563C44.3954 68.9275 44.4574 68.4578 44.3938 67.9967C44.3302 67.5356 44.1433 67.1002 43.8528 66.7365L34.2768 54.7399C33.9907 54.3828 33.615 54.1081 33.188 53.9437C32.761 53.7793 32.298 53.7311 31.8463 53.8041C31.3947 53.8772 30.9704 54.0687 30.617 54.3593C30.2636 54.6499 29.9936 55.0291 29.8346 55.4581V55.4581Z" fill="#263238"/>
<path d="M66.6276 48.7044L53.2478 68.1224C52.8299 68.7289 52.5747 69.4325 52.5065 70.1659C52.4383 70.8993 52.5595 71.6379 52.8585 72.3111C53.1574 72.9843 53.6241 73.5694 54.2139 74.0106C54.8037 74.4518 55.4968 74.7343 56.227 74.8309L80.8214 78.1054C81.5949 78.2084 82.3818 78.0992 83.098 77.7895C83.8143 77.4797 84.4328 76.9811 84.8874 76.3469C85.3421 75.7127 85.6158 74.9668 85.6792 74.1891C85.7427 73.4114 85.5935 72.631 85.2476 71.9315L74.0331 49.2311C73.7002 48.5586 73.1973 47.9848 72.5742 47.5667C71.9512 47.1485 71.2296 46.9005 70.4811 46.8473C69.7327 46.794 68.9833 46.9374 68.3073 47.2632C67.6314 47.589 67.0523 48.0858 66.6276 48.7044V48.7044Z" fill="#1E38FC"/>
<path d="M56.8096 73.0967C56.3654 73.0362 55.943 72.8669 55.5801 72.6038C55.2172 72.3407 54.925 71.9918 54.7295 71.5884C54.5279 71.2071 54.4331 70.7784 54.4551 70.3476C54.4772 69.9169 54.6151 69.5 54.8545 69.1412L68.2689 49.6647C68.5114 49.3173 68.8469 49.0452 69.2369 48.8796C69.6269 48.714 70.0556 48.6616 70.474 48.7284C70.9184 48.7883 71.3409 48.9575 71.7039 49.2207C72.0669 49.4839 72.359 49.8329 72.5541 50.2366L83.79 72.9929C83.9915 73.3743 84.0863 73.803 84.0643 74.2337C84.0423 74.6645 83.9043 75.0813 83.6649 75.4401C83.423 75.7882 83.0877 76.061 82.6976 76.2272C82.3075 76.3933 81.8785 76.4459 81.4598 76.3791L56.8096 73.0967Z" fill="white"/>
<path d="M69.3329 55.6127L70.8996 55.8202C71.3894 55.8893 71.8367 56.1363 72.1561 56.5141C72.4754 56.8918 72.6446 57.3739 72.6312 57.8684L72.5249 59.9113C72.5223 59.9854 72.5143 60.0592 72.5009 60.1321L71.3864 66.29C71.3066 66.7144 71.0642 67.0909 70.711 67.3393C70.3578 67.5877 69.9215 67.6884 69.4951 67.62C69.0425 67.5557 68.6251 67.34 68.3106 67.0082C67.9962 66.6764 67.8034 66.2479 67.7635 65.7926L67.3139 59.4298C67.3086 59.3563 67.3086 59.2826 67.3139 59.2091L67.4177 57.1635C67.4289 56.9311 67.489 56.7038 67.5942 56.4963C67.6994 56.2887 67.8473 56.1058 68.0281 55.9594C68.2089 55.813 68.4186 55.7064 68.6434 55.6467C68.8683 55.587 69.1032 55.5754 69.3329 55.6127V55.6127ZM69.2078 69.3277L69.6334 69.3836C70.0718 69.4454 70.4721 69.6664 70.7581 70.0044C71.0441 70.3424 71.1957 70.7737 71.1842 71.2163C71.1749 71.425 71.1215 71.6294 71.0276 71.816C70.9337 72.0026 70.8014 72.1672 70.6394 72.2991C70.4774 72.431 70.2893 72.5271 70.0875 72.5812C69.8857 72.6352 69.6748 72.646 69.4685 72.6128L69.0429 72.5543C68.6048 72.493 68.2045 72.2726 67.9185 71.935C67.6324 71.5975 67.4807 71.1665 67.4921 70.7242V70.7242C67.5011 70.5154 67.5542 70.3108 67.6479 70.124C67.7417 69.9371 67.874 69.7723 68.0361 69.6404C68.1982 69.5084 68.3865 69.4123 68.5885 69.3584C68.7904 69.3045 69.0015 69.2941 69.2078 69.3277V69.3277Z" fill="#1E38FC"/>
<path d="M34.979 51.673L31.3056 65.6035C31.1948 66.0268 31.1932 66.4713 31.3011 66.8953C31.4089 67.3194 31.6226 67.7091 31.9222 68.0281C32.2217 68.347 32.5973 68.5847 33.0138 68.719C33.4302 68.8532 33.874 68.8795 34.3034 68.7955L48.553 66.0158C49.0051 65.9256 49.4249 65.7162 49.7688 65.4092C50.1128 65.1022 50.3684 64.7089 50.5092 64.2699C50.65 63.8309 50.6709 63.3623 50.5697 62.9125C50.4685 62.4627 50.2488 62.0482 49.9335 61.7119L39.368 50.5532C39.0511 50.2165 38.6498 49.9708 38.2058 49.8417C37.7618 49.7126 37.2914 49.7048 36.8433 49.8191C36.3953 49.9334 35.9861 50.1657 35.6582 50.4917C35.3304 50.8178 35.0958 51.2257 34.979 51.673V51.673Z" fill="#1E38FC"/>
<path d="M34.2741 67.6731C34.0124 67.7204 33.7431 67.7009 33.491 67.6162C33.239 67.5316 33.0124 67.3846 32.8324 67.1889C32.6466 67.0004 32.5124 66.7674 32.4425 66.5122C32.3727 66.257 32.3695 65.9881 32.4334 65.7313L36.1148 51.7636C36.1786 51.5195 36.3106 51.2987 36.4952 51.1267C36.6798 50.9548 36.9095 50.839 37.1575 50.7927C37.4194 50.7459 37.6888 50.766 37.9408 50.8511C38.1929 50.9362 38.4193 51.0835 38.5992 51.2795L49.202 62.4515C49.388 62.6398 49.5226 62.8727 49.5929 63.1279C49.6632 63.3831 49.6669 63.6521 49.6037 63.9092C49.5394 64.1527 49.4073 64.373 49.2227 64.5444C49.0381 64.7159 48.8086 64.8313 48.5609 64.8774L34.2741 67.6731Z" fill="white"/>
<path d="M37.8491 55.0432L38.7562 54.865C39.0491 54.8177 39.3491 54.8804 39.5985 55.041C39.848 55.2015 40.0292 55.4486 40.1075 55.7348L40.432 56.9504C40.4443 56.995 40.4541 57.0403 40.4613 57.0861L41.0385 60.9138C41.0835 61.1715 41.0249 61.4366 40.8754 61.6513C40.726 61.866 40.4978 62.013 40.2405 62.0603V62.0603C39.9707 62.1051 39.6937 62.0561 39.4556 61.9216C39.2175 61.787 39.0326 61.575 38.9318 61.3208L37.4581 57.6819C37.4403 57.6395 37.4251 57.5959 37.4129 57.5516L37.0777 56.3333C37.0342 56.1979 37.02 56.0547 37.0361 55.9133C37.0523 55.772 37.0984 55.6357 37.1714 55.5136C37.2444 55.3915 37.3426 55.2864 37.4595 55.2053C37.5764 55.1241 37.7092 55.0689 37.8491 55.0432V55.0432ZM40.416 63.0977L40.6634 63.0498C40.9258 63.0044 41.1956 63.0589 41.4197 63.2027C41.6437 63.3465 41.8057 63.5691 41.8737 63.8265C41.9112 63.9464 41.923 64.0728 41.9084 64.1976C41.8937 64.3223 41.8529 64.4426 41.7887 64.5505C41.7244 64.6584 41.6381 64.7516 41.5355 64.8239C41.4328 64.8962 41.316 64.9461 41.1928 64.9703L40.9454 65.0182C40.6834 65.0637 40.4139 65.0095 40.1899 64.8663C39.9659 64.723 39.8036 64.5011 39.7351 64.2441V64.2441C39.6976 64.1241 39.6858 63.9975 39.7004 63.8726C39.7151 63.7477 39.7558 63.6272 39.82 63.5191C39.8843 63.411 39.9705 63.3176 40.0732 63.245C40.1759 63.1724 40.2927 63.1222 40.416 63.0977V63.0977Z" fill="#1E38FC"/>
<path d="M103.304 54.7959L101.24 55.4662L102.899 57.4293C103.371 57.0211 103.779 56.5451 104.11 56.0168C104.195 55.8673 104.219 55.6901 104.175 55.5234C104.131 55.3567 104.024 55.2139 103.876 55.1257L103.304 54.7959Z" fill="#7F3E3B"/>
<path d="M100.29 57.089L101.527 58.5919L102.902 57.4401L101.24 55.4771L100.29 57.089Z" fill="#7F3E3B"/>
<path d="M103.971 38.751C104.474 40.1342 104.937 41.5174 105.376 42.9192C105.815 44.321 106.219 45.7282 106.573 47.2018L106.698 47.7684L106.756 48.0636L106.786 48.2126V48.2498V48.3057L106.802 48.4174C106.86 48.9235 106.835 49.4357 106.727 49.9336C106.558 50.7325 106.301 51.5104 105.961 52.2531C105.341 53.6411 104.578 54.9605 103.684 56.1899L102.304 55.4265C102.793 54.0965 103.277 52.7373 103.634 51.4206C103.81 50.8036 103.932 50.1726 104.001 49.5346C104.023 49.3144 104.012 49.092 103.969 48.8749L103.854 48.46L103.705 47.9679C103.288 46.6379 102.812 45.268 102.341 43.9061C101.87 42.5441 101.399 41.1689 100.947 39.8043L103.971 38.751Z" fill="#7F3E3B"/>
<path d="M92.4829 30.5208C92.5175 30.6884 92.4589 30.8427 92.3525 30.8719C92.2461 30.9012 92.1291 30.7842 92.0865 30.6059C92.044 30.4277 92.1078 30.2841 92.2169 30.2575C92.3259 30.2309 92.4483 30.3559 92.4829 30.5208Z" fill="#263238"/>
<path d="M92.475 30.8403C92.385 31.3974 92.2223 31.9403 91.9908 32.455C92.1216 32.5077 92.2625 32.5308 92.4032 32.5225C92.544 32.5143 92.6811 32.4748 92.8048 32.4071L92.475 30.8403Z" fill="#630F0F"/>
<path d="M92.036 29.5258C92.0198 29.5258 92.0039 29.522 91.9896 29.5145C91.9752 29.5071 91.9629 29.4964 91.9535 29.4832C91.9459 29.4726 91.9405 29.4606 91.9375 29.4479C91.9346 29.4351 91.9343 29.4219 91.9365 29.4091C91.9387 29.3962 91.9435 29.3839 91.9505 29.3729C91.9576 29.3619 91.9667 29.3524 91.9775 29.3449C92.1113 29.2621 92.263 29.2127 92.4199 29.2006C92.5768 29.1886 92.7343 29.2144 92.8792 29.2758C92.8914 29.2807 92.9024 29.288 92.9117 29.2973C92.921 29.3066 92.9283 29.3176 92.9332 29.3297C92.9382 29.3419 92.9407 29.3549 92.9405 29.368C92.9404 29.3811 92.9376 29.3941 92.9324 29.4061C92.9224 29.4307 92.9031 29.4503 92.8787 29.4607C92.8543 29.4712 92.8268 29.4716 92.8021 29.462C92.6888 29.4119 92.5651 29.3899 92.4414 29.3978C92.3178 29.4057 92.1979 29.4432 92.0918 29.5072C92.0759 29.5196 92.0562 29.5262 92.036 29.5258V29.5258Z" fill="#263238"/>
<path d="M98.1833 31.0474C98.3695 32.9785 98.0955 34.8485 98.5265 36.527C98.5265 36.527 98.0477 38.0857 95.1935 38.0857C92.0547 38.0857 93.7544 36.527 93.7544 36.527C95.4834 36.12 95.4861 34.8485 95.236 33.6542L98.1833 31.0474Z" fill="#7F3E3B"/>
<path d="M99.1356 37.0619C99.3803 36.5698 99.5426 35.8702 99.0372 35.6946C98.4812 35.5004 95.51 35.4286 94.4327 35.801C94.1454 35.8769 93.8992 36.0621 93.7467 36.3171C93.5941 36.5721 93.5472 36.8766 93.6161 37.1656L99.1356 37.0619Z" fill="#263238"/>
<path d="M105.549 107.116C105.745 107.065 105.934 106.992 106.113 106.898C106.122 106.893 106.13 106.886 106.136 106.877C106.142 106.868 106.145 106.858 106.145 106.847C106.144 106.836 106.141 106.826 106.134 106.817C106.127 106.808 106.118 106.802 106.107 106.799C106.014 106.767 105.19 106.493 104.972 106.68C104.948 106.7 104.93 106.727 104.92 106.757C104.91 106.787 104.909 106.819 104.916 106.85C104.92 106.905 104.938 106.959 104.969 107.006C105 107.052 105.042 107.09 105.091 107.116C105.239 107.167 105.401 107.167 105.549 107.116V107.116ZM105.942 106.85C105.581 107.015 105.288 107.071 105.144 106.996C105.111 106.98 105.083 106.955 105.062 106.924C105.042 106.893 105.03 106.858 105.027 106.821C105.023 106.808 105.023 106.795 105.026 106.783C105.029 106.771 105.036 106.76 105.046 106.751C105.155 106.666 105.602 106.759 105.942 106.86V106.85Z" fill="#1E38FC"/>
<path d="M106.102 106.903C106.109 106.901 106.116 106.898 106.122 106.893C106.128 106.889 106.133 106.883 106.137 106.877C106.14 106.87 106.143 106.863 106.144 106.856C106.145 106.848 106.144 106.841 106.142 106.834C106.142 106.807 105.927 106.174 105.61 106.036C105.573 106.016 105.532 106.005 105.491 106.002C105.449 105.999 105.407 106.005 105.368 106.02C105.328 106.029 105.293 106.052 105.268 106.085C105.243 106.117 105.231 106.157 105.232 106.198C105.232 106.464 105.807 106.842 106.068 106.914L106.102 106.903ZM105.437 106.105C105.482 106.095 105.529 106.1 105.57 106.121C105.773 106.286 105.923 106.509 105.998 106.759C105.732 106.64 105.355 106.336 105.349 106.182C105.349 106.169 105.349 106.137 105.413 106.11L105.437 106.105Z" fill="#1E38FC"/>
<path d="M91.0199 108.741C91.2218 108.735 91.4225 108.707 91.6184 108.658C91.6289 108.655 91.6384 108.649 91.6458 108.641C91.6533 108.633 91.6585 108.624 91.6609 108.613C91.6619 108.602 91.6599 108.591 91.6552 108.581C91.6506 108.572 91.6433 108.563 91.6343 108.557C91.5519 108.507 90.8124 108.052 90.5571 108.182C90.5287 108.197 90.5049 108.219 90.4884 108.246C90.472 108.273 90.4635 108.304 90.4639 108.336C90.4582 108.39 90.4654 108.444 90.4848 108.494C90.5043 108.544 90.5354 108.588 90.5757 108.624C90.7069 108.71 90.863 108.751 91.0199 108.741V108.741ZM91.4614 108.581C91.0731 108.658 90.7725 108.645 90.6475 108.539C90.6195 108.515 90.598 108.484 90.5849 108.45C90.5719 108.415 90.5678 108.378 90.573 108.342C90.573 108.299 90.5916 108.286 90.6076 108.278C90.7379 108.211 91.1609 108.406 91.4614 108.581V108.581Z" fill="#1E38FC"/>
<path d="M91.6051 108.659C91.6156 108.661 91.6265 108.661 91.637 108.659C91.6449 108.653 91.6512 108.645 91.6554 108.636C91.6595 108.628 91.6615 108.618 91.6609 108.608C91.6609 108.581 91.6024 107.919 91.3364 107.701C91.3051 107.673 91.2683 107.653 91.2283 107.641C91.1883 107.629 91.1463 107.626 91.105 107.632V107.632C91.0643 107.632 91.0248 107.646 90.9932 107.671C90.9617 107.697 90.9401 107.733 90.9321 107.773C90.8842 108.039 91.3417 108.531 91.5811 108.661L91.6051 108.659ZM91.1422 107.73C91.188 107.729 91.2325 107.746 91.2672 107.776C91.4265 107.984 91.5192 108.235 91.5332 108.496C91.2965 108.315 91.0012 107.938 91.0332 107.786C91.0332 107.786 91.0332 107.738 91.113 107.73H91.1369H91.1422Z" fill="#1E38FC"/>
<path d="M94.0762 108.576H91.9748L91.9535 103.713H94.0549L94.0762 108.576Z" fill="#7F3E3B"/>
<path d="M108.704 106.778L106.682 107.147L105.232 102.362L107.254 101.992L108.704 106.778Z" fill="#7F3E3B"/>
<path d="M106.299 106.61L108.595 106.078C108.634 106.069 108.677 106.073 108.713 106.091C108.75 106.109 108.78 106.139 108.797 106.177L109.557 107.914C109.576 107.957 109.584 108.004 109.582 108.051C109.581 108.098 109.569 108.144 109.547 108.186C109.525 108.228 109.495 108.264 109.458 108.293C109.42 108.322 109.377 108.342 109.331 108.353C108.533 108.528 108.129 108.571 107.118 108.81C106.498 108.956 105.232 109.326 104.373 109.528C103.514 109.731 103.237 108.901 103.575 108.73C105.081 108.01 105.581 107.4 105.993 106.815C106.067 106.713 106.176 106.64 106.299 106.61V106.61Z" fill="#263238"/>
<path d="M91.9988 108.331H94.2917C94.3328 108.331 94.3726 108.345 94.4042 108.372C94.4358 108.398 94.4572 108.434 94.4646 108.475L94.8078 110.337C94.816 110.383 94.814 110.43 94.8018 110.475C94.7896 110.52 94.7676 110.562 94.7374 110.598C94.7071 110.633 94.6694 110.662 94.6268 110.681C94.5842 110.7 94.5379 110.71 94.4912 110.709C93.664 110.696 92.4723 110.648 91.4322 110.648C90.2166 110.648 89.783 110.714 88.3573 110.714C87.4954 110.714 87.2933 109.842 87.655 109.765C89.3095 109.403 90.0331 109.366 91.4881 108.491C91.6405 108.392 91.8172 108.336 91.9988 108.331V108.331Z" fill="#263238"/>
<path d="M103.208 37.0696C105.168 38.4502 105.759 42.0039 105.759 42.0039L101.317 44.2543C100.614 42.8497 100.07 41.3715 99.6941 39.8467C99.218 37.7453 101.814 36.0908 103.208 37.0696Z" fill="#1E38FC"/>
<path opacity="0.2" d="M100.987 39.3359L102.737 43.5281L101.317 44.2543C100.876 43.3643 100.493 42.4474 100.168 41.5092L100.987 39.3359Z" fill="black"/>
<path d="M90.1448 46.2838C90.1607 48.6273 90.3017 51.5426 90.6502 55.1602H101.878C102.014 53.511 101.325 45.7359 102.998 37.95C103.027 37.8129 103.029 37.6712 103.001 37.5336C102.974 37.396 102.919 37.2654 102.84 37.1499C102.76 37.0343 102.658 36.9362 102.539 36.8615C102.421 36.7869 102.288 36.7373 102.149 36.7158C101.268 36.5748 100.38 36.4798 99.4893 36.4312C97.8991 36.3393 96.3049 36.3393 94.7146 36.4312C94.073 36.4868 93.4346 36.5756 92.8021 36.6972C92.3317 36.7928 91.8979 37.0192 91.5506 37.3505C91.2033 37.6818 90.9567 38.1045 90.839 38.5698C90.4896 40.0044 90.2838 41.4702 90.2246 42.9455C90.174 43.9031 90.1368 45.0123 90.1448 46.2838Z" fill="#1E38FC"/>
<path opacity="0.2" d="M93.6879 41.8844C92.9457 42.4164 91.5253 42.6824 90.2299 42.7915C90.2511 42.4483 90.2777 42.1238 90.307 41.8179C90.6555 41.6344 90.9906 41.4668 91.3072 41.3125L93.6879 41.8844Z" fill="black"/>
<g opacity="0.2">
<path d="M91.9535 103.713L91.9668 106.416H94.0655L94.0549 103.713H91.9535Z" fill="black"/>
<path d="M107.254 101.992L105.232 102.365L105.982 104.83L108.004 104.458L107.254 101.992Z" fill="black"/>
</g>
<path d="M97.888 28.7864C98.1939 30.8532 98.4786 32.0449 97.6806 33.3482C97.4272 33.7721 97.0627 34.1186 96.6265 34.3502C96.1904 34.5819 95.6992 34.6898 95.2062 34.6625C94.7131 34.6351 94.2369 34.4734 93.8291 34.1948C93.4213 33.9163 93.0974 33.5316 92.8926 33.0822C92.0706 31.3639 91.7062 28.2703 93.507 26.9643C93.889 26.6722 94.3411 26.4858 94.8179 26.4238C95.2947 26.3617 95.7794 26.4263 96.2234 26.611C96.6673 26.7956 97.0549 27.0938 97.3471 27.4757C97.6393 27.8575 97.8258 28.3096 97.888 28.7864Z" fill="#7F3E3B"/>
<path d="M93.5894 30.2974C92.81 29.9543 92.8845 28.728 93.1212 28.212C92.2195 28.5206 90.9161 28.6988 90.682 27.7811C90.4479 26.8634 91.2433 26.5708 90.7565 25.7861C90.2697 25.0014 91.8205 24.1475 92.544 25.2541C93.2675 26.3606 95.0551 25.8659 96.2095 24.8099C97.0501 24.0411 98.279 25.0333 97.7922 26.0361C97.7922 26.0361 100.319 25.8739 99.8165 27.5896C99.3137 29.3053 98.6035 29.3638 98.7658 30.5847C98.8775 31.4093 98.9732 33.0851 97.9837 33.3219C96.7867 33.5958 93.8022 32.5345 93.5894 30.2974Z" fill="#263238"/>
<path opacity="0.2" d="M93.5735 32.5344C93.3448 32.6994 93.108 32.8749 92.866 33.0664L92.8793 33.0957C93.1156 33.5942 93.4941 34.0116 93.9672 34.2954C94.1188 34.1491 94.2039 33.657 94.4859 33.6649C95.3291 33.6889 96.9597 33.3351 97.231 32.3828L93.5735 32.5344Z" fill="black"/>
<path d="M94.2305 30.2684C94.2886 30.728 94.2187 31.1947 94.0283 31.617C93.7889 32.1038 93.4112 31.7926 93.2649 31.1941C93.1319 30.6621 93.0973 29.755 93.4431 29.489C93.7889 29.223 94.164 29.6619 94.2305 30.2684Z" fill="#7F3E3B"/>
<path d="M94.6348 55.1685C94.6348 55.1685 96.3983 71.2136 97.473 77.2252C98.6514 83.8087 104.753 104.472 104.753 104.472L108.515 103.674C108.515 103.674 104.315 84.3407 103.74 77.8237C103.125 70.7481 101.878 55.1685 101.878 55.1685H94.6348Z" fill="#1E38FC"/>
<path opacity="0.3" d="M94.6348 55.1685C94.6348 55.1685 96.3983 71.2136 97.473 77.2252C98.6514 83.8087 104.753 104.472 104.753 104.472L108.515 103.674C108.515 103.674 104.315 84.3407 103.74 77.8237C103.155 71.0992 103.155 71.1125 101.878 55.1685H94.6348Z" fill="black"/>
<path d="M103.913 103.208C103.897 103.208 104.551 104.581 104.551 104.581L108.794 103.674L108.493 102.392L103.913 103.208Z" fill="#263238"/>
<path opacity="0.2" d="M95.9196 60.8874C98.6541 61.4194 97.9652 71.7003 97.4305 76.9857C96.7815 73.2617 95.8957 66.0611 95.3025 60.9619C95.4935 60.8669 95.7115 60.8406 95.9196 60.8874V60.8874Z" fill="black"/>
<path d="M90.6502 55.1687C90.6502 55.1687 89.7564 70.8627 89.7378 77.2706C89.7165 83.9206 91.2008 105.733 91.2008 105.733H94.7599C94.7599 105.733 95.7175 84.317 96.1271 77.776C96.574 70.6446 98.0343 55.166 98.0343 55.166L90.6502 55.1687Z" fill="#1E38FC"/>
<path opacity="0.3" d="M90.6502 55.1687C90.6502 55.1687 89.7564 70.8627 89.7378 77.2706C89.7165 83.9206 91.2008 105.733 91.2008 105.733H94.7599C94.7599 105.733 95.7175 84.317 96.1271 77.776C96.574 70.6446 98.0343 55.166 98.0343 55.166L90.6502 55.1687Z" fill="black"/>
<path d="M90.573 104.32C90.5571 104.32 90.7167 105.796 90.7167 105.796H95.0418L95.2094 104.466L90.573 104.32Z" fill="#263238"/>
<path d="M95.1003 40.3629C94.6747 40.4028 94.3156 40.4268 93.9246 40.4374C93.5336 40.448 93.1612 40.456 92.7808 40.4534C92.0147 40.4534 91.2486 40.4055 90.4772 40.3204C89.6942 40.2396 88.9175 40.1063 88.1524 39.9214C87.3421 39.7309 86.5553 39.4517 85.8063 39.0888L85.7185 39.0436C85.5542 38.9634 85.4075 38.8514 85.2866 38.7143C85.1658 38.5771 85.0733 38.4174 85.0144 38.2443C84.9556 38.0712 84.9316 37.8882 84.9438 37.7058C84.9559 37.5234 85.0041 37.3453 85.0854 37.1816C85.1225 37.1061 85.1661 37.034 85.2158 36.9661C85.5333 36.5453 85.8944 36.1593 86.2931 35.8143C86.6522 35.4951 87.0113 35.2105 87.373 34.9392C88.0965 34.3939 88.836 33.9124 89.5782 33.4443C90.3203 32.9761 91.0784 32.5425 91.8418 32.1143C92.6052 31.686 93.374 31.3003 94.172 30.9306C94.3474 30.8604 94.542 30.8548 94.7212 30.9147C94.9004 30.9746 95.0525 31.0961 95.1505 31.2576C95.2485 31.4191 95.286 31.6102 95.2563 31.7967C95.2267 31.9833 95.1318 32.1533 94.9886 32.2765V32.2765C94.3209 32.7899 93.632 33.298 92.9643 33.8193C92.2967 34.3407 91.6343 34.8541 90.972 35.3807C90.3097 35.9074 89.6792 36.4447 89.0754 36.9767C88.7748 37.2427 88.4849 37.5087 88.2269 37.7987C87.9948 38.0344 87.7847 38.2909 87.5991 38.5648L87.0113 36.4368C87.5907 36.6518 88.1892 36.8112 88.7988 36.9129C89.4513 37.0237 90.1093 37.1001 90.7698 37.1417C91.4428 37.1842 92.1238 37.2082 92.8074 37.2082C93.1505 37.2082 93.4937 37.2082 93.8342 37.2082C94.1746 37.2082 94.5337 37.1816 94.8317 37.1656H94.8662C95.2686 37.1652 95.6562 37.3167 95.9516 37.5899C96.2469 37.8631 96.4282 38.2377 96.4592 38.6389C96.4901 39.04 96.3684 39.438 96.1184 39.7533C95.8684 40.0685 95.5086 40.2777 95.111 40.339L95.1003 40.3629Z" fill="#7F3E3B"/>
<path d="M96.5899 30.5156L95.2599 30.8108C95.2599 30.8108 93.4803 30.59 93.0734 31.9307L94.1374 32.8298L95.7653 33.0958C96.0228 33.1358 96.2865 33.093 96.5181 32.9734L96.933 32.7579C97.0274 32.7094 97.108 32.6379 97.1675 32.5501C97.227 32.4622 97.2634 32.3608 97.2735 32.2552L97.3719 31.1912C97.3817 31.0904 97.3671 30.9888 97.3295 30.8948C97.2919 30.8009 97.2323 30.7173 97.1557 30.6511C97.0791 30.5849 96.9877 30.5381 96.8893 30.5145C96.7908 30.4909 96.6882 30.4913 96.5899 30.5156V30.5156Z" fill="#7F3E3B"/>
<path d="M93.9938 41.9163C91.7568 42.5387 89.2058 41.762 89.2058 41.762L90.1448 36.7532C90.1448 36.7532 92.3659 36.5564 93.7544 36.5271C97.3268 36.442 98.0264 40.7991 93.9938 41.9163Z" fill="#1E38FC"/>
</svg>
