<svg width="18" height="18" viewBox="0 0 18 18" fill="none" xmlns="http://www.w3.org/2000/svg">
<path d="M1.15458 0.316017C1.04995 0.263689 0.93274 0.241774 0.816276 0.252765C0.699812 0.263757 0.588771 0.307213 0.495783 0.378191C0.402795 0.449169 0.331594 0.54482 0.290278 0.654262C0.248963 0.763705 0.239191 0.882546 0.262076 0.997267L2.01583 7.05977C2.04853 7.17274 2.11244 7.2742 2.20023 7.35248C2.28801 7.43076 2.3961 7.48267 2.51208 7.50227L9.62458 8.69352C9.95958 8.75977 9.95958 9.23977 9.62458 9.30602L2.51208 10.4973C2.3961 10.5169 2.28801 10.5688 2.20023 10.6471C2.11244 10.7253 2.04853 10.8268 2.01583 10.9398L0.262076 17.0023C0.239191 17.117 0.248963 17.2358 0.290278 17.3453C0.331594 17.4547 0.402795 17.5504 0.495783 17.6213C0.588771 17.6923 0.699812 17.7358 0.816276 17.7468C0.93274 17.7578 1.04995 17.7358 1.15458 17.6835L17.4046 9.55852C17.5082 9.50655 17.5954 9.42677 17.6563 9.32809C17.7173 9.22942 17.7495 9.11573 17.7495 8.99977C17.7495 8.8838 17.7173 8.77012 17.6563 8.67144C17.5954 8.57276 17.5082 8.49298 17.4046 8.44102L1.15458 0.316017V0.316017Z" fill="#F8F8F8"/>
</svg>
