<svg width="375" height="287" viewBox="0 0 375 287" fill="none" xmlns="http://www.w3.org/2000/svg">
<path d="M313.635 239.424H292.24V239.585H313.635V239.424Z" fill="#EBEBEB"/>
<path d="M236.968 241.181H231.354V241.342H236.968V241.181Z" fill="#EBEBEB"/>
<path d="M291.594 233.429H279.197V233.59H291.594V233.429Z" fill="#EBEBEB"/>
<path d="M84.7899 234.514H56.8892V234.675H84.7899V234.514Z" fill="#EBEBEB"/>
<path d="M94.6351 234.514H90.5459V234.675H94.6351V234.514Z" fill="#EBEBEB"/>
<path d="M168.447 237.24H107.93V237.402H168.447V237.24Z" fill="#EBEBEB"/>
<path d="M176.102 200.218H51.3723C50.394 200.218 49.4557 199.829 48.764 199.138C48.0722 198.446 47.6836 197.508 47.6836 196.529V21.1857C47.6921 20.213 48.0845 19.283 48.7753 18.5982C49.4662 17.9134 50.3995 17.5293 51.3723 17.5293H176.102C177.08 17.5293 178.018 17.9179 178.71 18.6097C179.402 19.3014 179.791 20.2397 179.791 21.218V196.529C179.791 197.508 179.402 198.446 178.71 199.138C178.018 199.829 177.08 200.218 176.102 200.218ZM51.3723 17.6585C50.4373 17.6602 49.5412 18.0324 48.8801 18.6935C48.219 19.3546 47.8468 20.2507 47.8451 21.1857V196.529C47.8468 197.464 48.219 198.361 48.8801 199.022C49.5412 199.683 50.4373 200.055 51.3723 200.057H176.102C177.037 200.055 177.933 199.683 178.594 199.022C179.255 198.361 179.627 197.464 179.629 196.529V21.1857C179.627 20.2507 179.255 19.3546 178.594 18.6935C177.933 18.0324 177.037 17.6602 176.102 17.6585H51.3723Z" fill="#EBEBEB"/>
<path d="M315.838 200.218H191.096C190.118 200.216 189.181 199.827 188.49 199.136C187.798 198.444 187.409 197.507 187.407 196.529V21.1857C187.417 20.2135 187.81 19.2845 188.501 18.6001C189.191 17.9157 190.124 17.5309 191.096 17.5293H315.838C316.809 17.5327 317.739 17.9183 318.427 18.6028C319.115 19.2872 319.506 20.2152 319.514 21.1857V196.529C319.514 197.506 319.127 198.442 318.438 199.133C317.749 199.825 316.815 200.215 315.838 200.218ZM191.096 17.6585C190.161 17.6602 189.265 18.0324 188.604 18.6935C187.943 19.3546 187.57 20.2507 187.569 21.1857V196.529C187.57 197.464 187.943 198.361 188.604 199.022C189.265 199.683 190.161 200.055 191.096 200.057H315.838C316.773 200.055 317.67 199.683 318.331 199.022C318.992 198.361 319.364 197.464 319.366 196.529V21.1857C319.364 20.2507 318.992 19.3546 318.331 18.6935C317.67 18.0324 316.773 17.6602 315.838 17.6585H191.096Z" fill="#EBEBEB"/>
<path d="M346 229.03H23V229.192H346V229.03Z" fill="#EBEBEB"/>
<path d="M267.078 120.992H304.733C305.933 120.99 307.112 120.689 308.166 120.117C309.22 119.545 310.115 118.719 310.771 117.715C311.427 116.711 311.822 115.56 311.922 114.365C312.021 113.17 311.822 111.968 311.342 110.87C308.842 105.127 303.525 102.013 298.719 106.348C291.49 112.808 291.833 100.256 283.183 102.019C275.618 103.563 276.658 111.012 272.026 112.543C267.395 114.074 260.999 119.281 267.078 120.992Z" fill="#FAFAFA"/>
<path d="M207.42 53.3177H234.888C235.762 53.3173 236.622 53.0998 237.391 52.6849C238.16 52.2701 238.814 51.6707 239.294 50.9407C239.775 50.2107 240.066 49.3728 240.143 48.5023C240.219 47.6319 240.078 46.756 239.733 45.9533C237.905 41.7608 234.022 39.4933 230.521 42.6329C225.243 47.3745 225.489 38.1884 219.177 39.4804C213.654 40.6045 214.416 46.0438 211.031 47.1549C207.646 48.266 202.989 52.0645 207.42 53.3177Z" fill="#FAFAFA"/>
<path d="M261.814 229.107H257.292V84.5C257.295 80.6078 258.842 76.876 261.594 74.1232C264.345 71.3704 268.076 69.8215 271.969 69.8164H275.967V74.3384H271.969C269.275 74.3418 266.693 75.4137 264.789 77.3188C262.885 79.2239 261.815 81.8066 261.814 84.5V229.107Z" fill="#F0F0F0"/>
<path d="M293.112 46.5996H275.967V95.0367H293.112V46.5996Z" fill="#EBEBEB"/>
<path d="M275.967 95.0488H293.112V95.1393C293.112 96.025 292.76 96.8745 292.133 97.5009C291.507 98.1272 290.658 98.4791 289.772 98.4791H279.307C278.421 98.4791 277.571 98.1272 276.945 97.5009C276.319 96.8745 275.967 96.025 275.967 95.1393V95.0488Z" fill="#E6E6E6"/>
<path d="M284.539 61.9291C287.475 61.9291 289.856 59.5487 289.856 56.6125C289.856 53.6762 287.475 51.2959 284.539 51.2959C281.603 51.2959 279.223 53.6762 279.223 56.6125C279.223 59.5487 281.603 61.9291 284.539 61.9291Z" fill="#F0F0F0"/>
<path d="M284.539 60.6361C287.475 60.6361 289.856 58.2558 289.856 55.3195C289.856 52.3832 287.475 50.0029 284.539 50.0029C281.603 50.0029 279.223 52.3832 279.223 55.3195C279.223 58.2558 281.603 60.6361 284.539 60.6361Z" fill="#FAFAFA"/>
<path d="M284.539 76.4632C287.475 76.4632 289.856 74.0829 289.856 71.1467C289.856 68.2104 287.475 65.8301 284.539 65.8301C281.603 65.8301 279.223 68.2104 279.223 71.1467C279.223 74.0829 281.603 76.4632 284.539 76.4632Z" fill="#F0F0F0"/>
<path d="M284.539 75.1712C287.475 75.1712 289.856 72.7909 289.856 69.8547C289.856 66.9184 287.475 64.5381 284.539 64.5381C281.603 64.5381 279.223 66.9184 279.223 69.8547C279.223 72.7909 281.603 75.1712 284.539 75.1712Z" fill="#FAFAFA"/>
<path d="M284.539 90.9984C287.475 90.9984 289.856 88.6181 289.856 85.6818C289.856 82.7455 287.475 80.3652 284.539 80.3652C281.603 80.3652 279.223 82.7455 279.223 85.6818C279.223 88.6181 281.603 90.9984 284.539 90.9984Z" fill="#F0F0F0"/>
<path d="M284.539 89.7064C287.475 89.7064 289.856 87.3261 289.856 84.3898C289.856 81.4536 287.475 79.0732 284.539 79.0732C281.603 79.0732 279.223 81.4536 279.223 84.3898C279.223 87.3261 281.603 89.7064 284.539 89.7064Z" fill="#FAFAFA"/>
<path d="M305.244 186.813H275.405V199.837H305.244V186.813Z" fill="#EBEBEB"/>
<path d="M277.479 185.011H273.325V201.639H277.479V185.011Z" fill="#F5F5F5"/>
<path d="M307.317 185.011H303.164V201.639H307.317V185.011Z" fill="#F5F5F5"/>
<path d="M272.588 191.252H275.405V195.406H272.588C272.232 195.406 271.89 195.264 271.638 195.012C271.386 194.76 271.245 194.418 271.245 194.062V192.596C271.245 192.239 271.386 191.897 271.638 191.645C271.89 191.394 272.232 191.252 272.588 191.252Z" fill="#F5F5F5"/>
<path d="M308.047 195.405H305.231V191.251H308.047C308.404 191.251 308.746 191.393 308.998 191.645C309.25 191.897 309.391 192.239 309.391 192.595V194.062C309.391 194.418 309.25 194.76 308.998 195.012C308.746 195.264 308.404 195.405 308.047 195.405Z" fill="#F5F5F5"/>
<path d="M298.338 223.603H282.304V178.576C282.304 177.524 282.512 176.481 282.914 175.509C283.317 174.536 283.908 173.652 284.652 172.908C285.397 172.163 286.281 171.573 287.253 171.17C288.226 170.767 289.268 170.56 290.321 170.56C291.374 170.559 292.417 170.765 293.39 171.168C294.363 171.571 295.247 172.161 295.992 172.906C296.736 173.65 297.327 174.534 297.729 175.508C298.132 176.481 298.339 177.523 298.338 178.576V223.603Z" fill="#F5F5F5"/>
<path d="M283.383 220.896H297.266C297.789 220.897 298.307 221.002 298.79 221.203C299.273 221.405 299.711 221.7 300.08 222.072C300.449 222.443 300.74 222.884 300.938 223.368C301.135 223.853 301.236 224.372 301.232 224.895V229.139H279.41V224.895C279.407 224.371 279.507 223.852 279.705 223.367C279.903 222.882 280.195 222.441 280.565 222.069C280.934 221.698 281.373 221.403 281.857 221.201C282.34 221 282.859 220.896 283.383 220.896Z" fill="#EBEBEB"/>
<path d="M290.321 200.16C294.11 200.16 297.182 197.088 297.182 193.299C297.182 189.51 294.11 186.438 290.321 186.438C286.532 186.438 283.461 189.51 283.461 193.299C283.461 197.088 286.532 200.16 290.321 200.16Z" fill="#FAFAFA"/>
<path d="M291.956 193.3C291.957 193.623 291.862 193.94 291.683 194.21C291.505 194.479 291.25 194.69 290.951 194.814C290.653 194.939 290.324 194.972 290.006 194.91C289.689 194.848 289.397 194.693 289.168 194.464C288.939 194.236 288.782 193.945 288.719 193.627C288.655 193.31 288.687 192.981 288.811 192.682C288.934 192.383 289.144 192.128 289.413 191.948C289.682 191.768 289.998 191.672 290.321 191.672C290.754 191.672 291.168 191.843 291.475 192.148C291.781 192.453 291.954 192.867 291.956 193.3Z" fill="#EBEBEB"/>
<path d="M279.41 180.857C279.41 180.306 279.629 179.777 280.019 179.387C280.41 178.997 280.939 178.777 281.49 178.777H299.158C299.709 178.779 300.236 178.999 300.625 179.389C301.014 179.779 301.232 180.307 301.232 180.857C301.232 181.408 301.014 181.936 300.625 182.326C300.236 182.716 299.709 182.936 299.158 182.938H281.49C280.939 182.938 280.41 182.718 280.019 182.328C279.629 181.938 279.41 181.409 279.41 180.857Z" fill="#F0F0F0"/>
<path d="M286.833 203.894C287.383 203.894 287.912 204.112 288.302 204.501C288.691 204.889 288.911 205.417 288.913 205.967V216.71C288.913 216.983 288.859 217.254 288.755 217.506C288.65 217.759 288.497 217.988 288.304 218.181C288.111 218.374 287.881 218.527 287.629 218.632C287.377 218.737 287.106 218.79 286.833 218.79C286.282 218.789 285.755 218.569 285.366 218.179C284.978 217.789 284.759 217.261 284.759 216.71V205.967C284.759 205.417 284.978 204.89 285.367 204.501C285.756 204.112 286.283 203.894 286.833 203.894Z" fill="#EBEBEB"/>
<path d="M293.809 203.894C294.36 203.894 294.888 204.112 295.278 204.501C295.668 204.889 295.888 205.417 295.89 205.967V216.71C295.89 216.983 295.836 217.254 295.731 217.506C295.627 217.759 295.474 217.988 295.28 218.181C295.087 218.374 294.858 218.527 294.606 218.632C294.353 218.737 294.083 218.79 293.809 218.79C293.259 218.789 292.732 218.569 292.343 218.179C291.954 217.789 291.736 217.261 291.736 216.71V205.967C291.736 205.417 291.954 204.89 292.343 204.501C292.732 204.112 293.26 203.894 293.809 203.894Z" fill="#EBEBEB"/>
<path d="M69.544 229.204H67.9548C67.8443 229.204 67.7349 229.182 67.6332 229.139C67.5315 229.095 67.4396 229.032 67.363 228.952C67.2864 228.873 67.2266 228.778 67.1874 228.675C67.1481 228.572 67.1301 228.462 67.1344 228.351L68.8657 189.313H72.9355L70.3515 228.442C70.337 228.647 70.2459 228.839 70.0963 228.98C69.9468 229.121 69.7497 229.201 69.544 229.204Z" fill="#F0F0F0"/>
<path d="M76.2175 229.204H74.6284C74.5181 229.204 74.409 229.182 74.3076 229.139C74.2063 229.095 74.1148 229.032 74.0387 228.952C73.9625 228.872 73.9034 228.778 73.8649 228.675C73.8263 228.571 73.8092 228.461 73.8144 228.351L75.5263 189.313H79.609L77.025 228.442C77.0119 228.647 76.9213 228.84 76.7714 228.982C76.6216 229.123 76.4236 229.203 76.2175 229.204Z" fill="#F0F0F0"/>
<path d="M94.7577 229.204H96.3469C96.4574 229.204 96.5668 229.182 96.6685 229.139C96.7702 229.095 96.8621 229.032 96.9387 228.952C97.0153 228.873 97.0751 228.778 97.1144 228.675C97.1536 228.572 97.1716 228.462 97.1673 228.351L95.4489 189.313H91.3662L93.9502 228.442C93.9633 228.647 94.0539 228.84 94.2038 228.982C94.3537 229.123 94.5516 229.203 94.7577 229.204Z" fill="#F0F0F0"/>
<path d="M101.334 229.204H102.923C103.034 229.204 103.143 229.182 103.245 229.139C103.346 229.095 103.438 229.032 103.515 228.952C103.592 228.873 103.651 228.778 103.691 228.675C103.73 228.572 103.748 228.462 103.744 228.351L102.032 189.313H97.936L100.52 228.442C100.533 228.648 100.625 228.842 100.776 228.984C100.927 229.126 101.127 229.204 101.334 229.204Z" fill="#F0F0F0"/>
<path d="M79.7834 166.349H76.3208V184.643H79.7834V166.349Z" fill="#F0F0F0"/>
<path d="M95.0939 166.349H91.6313V184.643H95.0939V166.349Z" fill="#F0F0F0"/>
<path d="M106.819 188.544C106.819 192.588 97.4645 192.207 85.9269 192.207C74.3894 192.207 65.0288 192.588 65.0288 188.544C65.0288 184.5 74.3829 181.219 85.9269 181.219C97.4709 181.219 106.819 184.494 106.819 188.544Z" fill="#F5F5F5"/>
<path d="M95.8623 168.339H75.972C74.457 168.338 72.9977 167.767 71.8854 166.738C70.773 165.71 70.0893 164.3 69.9706 162.789L69.3246 154.856C69.2643 154.031 69.3746 153.203 69.6488 152.422C69.923 151.641 70.3552 150.926 70.9183 150.319C71.4814 149.713 72.1635 149.23 72.9218 148.899C73.6802 148.568 74.4986 148.397 75.326 148.396H96.4437C97.2714 148.396 98.0903 148.566 98.8491 148.897C99.6079 149.227 100.29 149.711 100.854 150.317C101.417 150.924 101.849 151.64 102.123 152.421C102.397 153.202 102.506 154.031 102.445 154.856L101.799 162.789C101.683 164.289 101.009 165.691 99.9097 166.718C98.8107 167.746 97.3666 168.324 95.8623 168.339Z" fill="#F5F5F5"/>
<path d="M90.7392 93.1885H67.27V111.69H90.7392V93.1885Z" fill="#F0F0F0"/>
<path d="M67.2701 93.1885H66.0039V111.69H67.2701V93.1885Z" fill="#E0E0E0"/>
<path d="M88.343 95.0752H69.6606V109.804H88.343V95.0752Z" fill="#FAFAFA"/>
<path d="M86.8119 96.29H71.2046V108.596H86.8119V96.29Z" fill="#EBEBEB"/>
<path d="M121.412 63.1621H95.5781V95.9208H121.412V63.1621Z" fill="#EBEBEB"/>
<path d="M95.5781 63.1621H94.3442V95.9208H95.5781V63.1621Z" fill="#E0E0E0"/>
<path d="M118.776 66.502H98.2139V92.581H118.776V66.502Z" fill="#F5F5F5"/>
<path d="M117.083 68.6533H99.9062V90.4429H117.083V68.6533Z" fill="#FAFAFA"/>
<path d="M105.094 76.3156C105.094 76.3156 108.13 80.6114 109.693 80.5404C111.121 80.4822 113.569 76.3156 113.569 76.3156C113.569 76.3156 110.533 72.0197 108.97 72.0907C107.523 72.1747 105.094 76.3156 105.094 76.3156Z" fill="#EBEBEB"/>
<path d="M113.04 85.8502C113.938 84.1189 109.248 80.4819 107.297 80.5659C105.507 80.6434 101.78 84.2029 102.478 85.8502C103.498 88.2856 111.825 88.1951 113.04 85.8502Z" fill="#F0F0F0"/>
<path d="M74.4538 83.4278C80.8936 83.4278 86.1141 76.1481 86.1141 67.168C86.1141 58.188 80.8936 50.9082 74.4538 50.9082C68.014 50.9082 62.7935 58.188 62.7935 67.168C62.7935 76.1481 68.014 83.4278 74.4538 83.4278Z" fill="#E0E0E0"/>
<path d="M75.8429 83.4278C82.2827 83.4278 87.5032 76.1481 87.5032 67.168C87.5032 58.188 82.2827 50.9082 75.8429 50.9082C69.4031 50.9082 64.1826 58.188 64.1826 67.168C64.1826 76.1481 69.4031 83.4278 75.8429 83.4278Z" fill="#EBEBEB"/>
<path d="M75.8427 81.0188C81.3299 81.0188 85.7782 74.8179 85.7782 67.1686C85.7782 59.5193 81.3299 53.3184 75.8427 53.3184C70.3555 53.3184 65.9072 59.5193 65.9072 67.1686C65.9072 74.8179 70.3555 81.0188 75.8427 81.0188Z" fill="#E6E6E6"/>
<path d="M75.8428 79.5448C80.7449 79.5448 84.7189 74.0032 84.7189 67.1674C84.7189 60.3316 80.7449 54.79 75.8428 54.79C70.9407 54.79 66.9668 60.3316 66.9668 67.1674C66.9668 74.0032 70.9407 79.5448 75.8428 79.5448Z" fill="#FAFAFA"/>
<path d="M78.627 73.8925C79.5517 73.009 80.2751 71.9365 80.7478 70.7481C81.2205 69.5597 81.4313 68.2834 81.366 67.0061C81.366 67.0061 77.7032 66.5733 77.813 72.7103C77.813 72.7103 73.6851 68.4273 74.906 65.7141C76.844 61.4699 76.844 61.4699 75.4616 58.8213C75.4616 58.8213 71.8633 60.2748 73.5236 65.1715C73.5564 66.4481 73.7496 67.7156 74.0985 68.9441C74.0985 68.9441 70.4744 65.4686 69.3052 67.7425C69.3052 67.7425 71.2432 71.4183 74.0985 69.8937C74.0791 69.8937 77.2639 75.5204 78.627 73.8925Z" fill="#EBEBEB"/>
<path d="M181.386 255.716C250.562 255.716 306.639 252.442 306.639 248.404C306.639 244.365 250.562 241.091 181.386 241.091C112.211 241.091 56.1333 244.365 56.1333 248.404C56.1333 252.442 112.211 255.716 181.386 255.716Z" fill="#F5F5F5"/>
<path d="M230.87 108.364C229.132 106.556 227.898 103.196 227.297 101.032L224.552 107.583C224.993 108.092 225.313 108.695 225.488 109.347C225.662 109.998 225.687 110.68 225.56 111.342C225.56 111.401 225.463 112.499 223.622 113.623C223.622 113.623 223.951 120.251 227.898 119.314C231.845 118.377 233.99 110.509 233.99 110.509L234.274 108.28C234.274 108.28 232.478 109.792 230.87 108.364Z" fill="#FFC3BD"/>
<path opacity="0.1" d="M225.243 105.981L224.597 107.583C225.114 108.202 225.465 108.942 225.618 109.734C227.427 107.602 227.627 104.152 227.627 104.152L225.243 105.981Z" fill="black"/>
<path d="M196.587 137.861C196.587 137.861 207.239 138.293 211.968 137.001C216.697 135.709 220.715 127.434 220.715 127.434L215.321 124.456L209.959 132.434L196.6 134.572L192.762 131.872C192.762 131.872 185.01 130.218 185.01 131.226C185.01 132.234 189.009 133.048 189.009 133.048C189.009 133.048 189.248 137.815 190.889 137.964C192.53 138.112 196.587 137.861 196.587 137.861Z" fill="#FFC3BD"/>
<path d="M222.659 115.077C222.659 115.077 218.047 115.723 215.03 121.311C212.013 126.898 214.59 127.125 217.142 128.701C219.694 130.277 220.973 130.639 222.149 127.189C223.324 123.739 225.643 114.721 222.659 115.077Z" fill="#FF828A"/>
<path opacity="0.1" d="M222.646 125.613L220.934 122.125L218.06 121.905C217.921 124.373 217.97 126.848 218.208 129.308C220.075 130.284 221.154 130.09 222.149 127.177C222.298 126.737 222.472 126.208 222.646 125.613Z" fill="black"/>
<path d="M213.46 92.8154C213.46 92.8154 210.101 94.0041 212.323 97.4214C214.545 100.839 210.062 103.164 217.588 104.108C225.114 105.051 217.853 91.4395 217.853 91.4395L213.46 92.8154Z" fill="#263238"/>
<path opacity="0.3" d="M213.46 92.8154C213.46 92.8154 210.101 94.0041 212.323 97.4214C214.545 100.839 210.062 103.164 217.588 104.108C225.114 105.051 217.853 91.4395 217.853 91.4395L213.46 92.8154Z" fill="black"/>
<path d="M242.394 114.263C241.27 106.95 237.013 107.079 232.866 108.714C233.157 111.466 233.163 114.98 229.177 117.17C225.592 119.108 224.197 115.878 224.119 113.152C220.359 115.29 217.22 118.029 218.247 123.488C218.835 126.589 221.574 129.993 224.377 134.315C227.73 139.483 231.18 145.348 231.18 145.348L250.34 135.594C250.34 135.594 243.615 122.183 242.394 114.263Z" fill="#FF828A"/>
<path opacity="0.2" d="M242.394 114.263C242.259 113.32 242.027 112.394 241.703 111.498L238.803 111.007L237.291 113.41C237.291 113.41 240.489 119.043 244.739 122.603C243.701 119.901 242.916 117.109 242.394 114.263Z" fill="black"/>
<path d="M247.517 111.937C247.517 111.937 254.094 116.459 256.103 118.17C259.094 120.754 267.149 129.456 267.149 129.456L272.091 132.156V135.283L269.753 136.898C269.582 137.016 269.389 137.099 269.186 137.142C268.983 137.184 268.773 137.186 268.57 137.147C268.366 137.108 268.172 137.029 267.999 136.914C267.826 136.799 267.678 136.651 267.563 136.478L264.565 132.001C264.565 132.001 257.175 125.251 254.455 123.326C252.156 121.698 244.701 117.699 244.701 117.699L247.517 111.937Z" fill="#FFC3BD"/>
<path d="M235.379 108.035C235.379 108.035 239.617 106.13 243.228 108.035C246.839 109.941 248.435 110.988 248.08 113.287C247.724 115.587 246.4 120.342 244.023 119.554C241.645 118.766 234.061 111.24 235.379 108.035Z" fill="#FF828A"/>
<path d="M228.299 95.5803C228.79 100.535 229.106 102.615 227.039 105.529C223.925 109.915 217.737 109.437 215.779 104.734C214.009 100.496 213.505 93.1061 217.989 90.3929C218.973 89.7795 220.098 89.429 221.256 89.3746C222.414 89.3203 223.567 89.5641 224.604 90.0826C225.641 90.6011 226.528 91.3771 227.179 92.3363C227.83 93.2954 228.225 94.4057 228.325 95.5609L228.299 95.5803Z" fill="#FFC3BD"/>
<path d="M217.892 99.3662C217.684 100.334 217.345 101.268 216.884 102.144C217.109 102.258 217.356 102.321 217.609 102.329C217.861 102.337 218.112 102.289 218.344 102.189L217.892 99.3662Z" fill="#ED893E"/>
<path d="M221.199 96.0582C221.229 96.0415 221.253 96.0169 221.27 95.9872C221.294 95.9423 221.3 95.8899 221.287 95.8407C221.274 95.7915 221.243 95.7491 221.199 95.7223C220.883 95.5311 220.525 95.4189 220.156 95.3953C219.787 95.3717 219.418 95.4373 219.08 95.5867C219.034 95.6126 219 95.6552 218.984 95.7056C218.969 95.7561 218.973 95.8106 218.996 95.858C219.02 95.9031 219.06 95.9371 219.108 95.9528C219.157 95.9685 219.209 95.9646 219.255 95.942C219.537 95.8231 219.843 95.7729 220.149 95.7953C220.454 95.8178 220.75 95.9123 221.012 96.0712C221.041 96.0857 221.074 96.0921 221.107 96.0899C221.14 96.0876 221.172 96.0767 221.199 96.0582Z" fill="#263238"/>
<path d="M213.802 97.3119L213.886 97.2473C214.078 97.0122 214.322 96.8255 214.6 96.702C214.877 96.5786 215.179 96.522 215.482 96.5367C215.534 96.5441 215.587 96.5306 215.63 96.4992C215.672 96.4677 215.7 96.4208 215.708 96.3687C215.71 96.3163 215.693 96.2648 215.66 96.2243C215.626 96.1838 215.579 96.157 215.527 96.1491C215.16 96.1288 214.793 96.1954 214.456 96.3435C214.119 96.4917 213.822 96.7172 213.589 97.0018C213.553 97.0391 213.533 97.0889 213.533 97.1407C213.533 97.1925 213.553 97.2423 213.589 97.2796C213.618 97.3045 213.653 97.3213 213.69 97.3281C213.728 97.3349 213.767 97.3315 213.802 97.3183V97.3119Z" fill="#263238"/>
<path d="M220.605 98.2809C220.669 98.6749 220.508 99.0302 220.243 99.0755C219.978 99.1207 219.72 98.8364 219.661 98.4295C219.603 98.0225 219.752 97.6801 220.01 97.6349C220.269 97.5897 220.534 97.8545 220.605 98.2809Z" fill="#263238"/>
<path d="M216.089 98.9846C216.154 99.3786 215.993 99.7339 215.734 99.7792C215.476 99.8244 215.217 99.5337 215.146 99.1332C215.075 98.7326 215.243 98.3773 215.502 98.3386C215.76 98.2998 216.031 98.5776 216.089 98.9846Z" fill="#263238"/>
<path d="M215.618 98.3389L214.617 98.2227C214.617 98.2227 215.23 98.888 215.618 98.3389Z" fill="#263238"/>
<path d="M220.133 97.6348L219.132 97.5186C219.132 97.5186 219.746 98.1581 220.133 97.6348Z" fill="#263238"/>
<path d="M221.568 104.023C221.813 103.903 222.047 103.76 222.265 103.596C222.281 103.586 222.294 103.572 222.304 103.556C222.314 103.54 222.32 103.522 222.323 103.503C222.326 103.484 222.326 103.465 222.321 103.447C222.317 103.429 222.309 103.411 222.298 103.396C222.27 103.371 222.234 103.357 222.197 103.357C222.16 103.357 222.125 103.371 222.097 103.396C221.615 103.766 221.053 104.017 220.456 104.129C219.859 104.241 219.244 104.211 218.661 104.042C218.643 104.035 218.625 104.031 218.606 104.031C218.587 104.031 218.568 104.034 218.551 104.042C218.533 104.049 218.517 104.06 218.504 104.073C218.491 104.086 218.48 104.102 218.473 104.12C218.465 104.137 218.461 104.157 218.46 104.176C218.46 104.196 218.464 104.215 218.472 104.233C218.48 104.25 218.492 104.266 218.507 104.279C218.521 104.292 218.539 104.302 218.557 104.307C219.559 104.607 220.639 104.505 221.568 104.023Z" fill="#263238"/>
<path d="M217.614 92.8671C215.676 93.0997 210.508 94.5725 211.328 89.7534C212.149 84.9342 221.38 82.5246 225.669 85.6384C229.959 88.7521 233.253 88.5195 236.651 85.9937C240.049 83.4678 241.703 84.4626 246.057 86.8141C246.057 86.8141 243.706 90.871 244.823 93.3387C244.823 93.3387 242.239 90.7547 237.414 93.5131C237.414 93.5131 242.995 92.0338 245.114 95.8904C245.114 95.8904 244.526 100.148 246.58 102.68C248.635 105.212 246.522 108.21 238.648 105.154C230.773 102.098 229.933 104.902 228.118 103.552C226.303 102.202 224.939 98.5454 224.655 95.8904C224.474 93.9782 223.615 92.1565 217.614 92.8671Z" fill="#263238"/>
<path d="M228.977 98.9853C228.915 99.4585 228.761 99.9149 228.522 100.328C228.284 100.742 227.967 101.104 227.588 101.395C226.574 102.157 225.598 101.395 225.495 100.161C225.398 99.0822 225.812 97.3768 227.02 97.0796C227.286 97.0248 227.561 97.037 227.822 97.115C228.082 97.193 228.319 97.3344 228.511 97.5265C228.703 97.7186 228.844 97.9554 228.922 98.2157C229 98.4759 229.012 98.7515 228.958 99.0176L228.977 98.9853Z" fill="#FFC3BD"/>
<path d="M254.914 235.879C255.082 240.007 255.204 243.282 255.204 243.282L250.618 243.805C250.618 243.805 250.178 241.015 249.52 236.732L254.914 235.879Z" fill="#FFC3BD"/>
<path d="M248.603 242.81C248.13 242.896 247.642 242.804 247.233 242.551C247.184 242.482 247.158 242.4 247.158 242.315C247.158 242.231 247.184 242.149 247.233 242.08C247.265 242.014 247.31 241.955 247.365 241.907C247.421 241.859 247.486 241.823 247.556 241.802C248.312 241.543 249.966 242.351 250.037 242.39C250.057 242.4 250.074 242.415 250.085 242.435C250.097 242.455 250.102 242.477 250.101 242.5C250.099 242.522 250.089 242.542 250.074 242.559C250.059 242.575 250.039 242.586 250.017 242.59C249.553 242.706 249.08 242.78 248.603 242.81ZM247.821 241.97C247.75 241.97 247.68 241.983 247.614 242.009C247.569 242.017 247.527 242.037 247.491 242.065C247.456 242.093 247.427 242.129 247.407 242.17C247.336 242.312 247.369 242.377 247.407 242.409C247.64 242.693 248.796 242.629 249.643 242.467C249.068 242.188 248.445 242.019 247.808 241.97H247.821Z" fill="#FF828A"/>
<path d="M249.979 242.591H249.933C249.371 242.384 248.208 241.46 248.273 240.937C248.273 240.814 248.357 240.659 248.654 240.607C248.766 240.584 248.882 240.585 248.993 240.611C249.105 240.637 249.21 240.686 249.3 240.756C249.751 241.229 250.038 241.833 250.121 242.481C250.125 242.497 250.125 242.513 250.121 242.529C250.116 242.545 250.108 242.559 250.096 242.571C250.084 242.582 250.069 242.59 250.053 242.593C250.037 242.597 250.02 242.596 250.004 242.591H249.979ZM248.738 240.808H248.68C248.486 240.808 248.473 240.917 248.473 240.943C248.473 241.253 249.236 241.99 249.823 242.287C249.737 241.772 249.493 241.296 249.126 240.924C249.014 240.84 248.877 240.799 248.738 240.808Z" fill="#FF828A"/>
<path d="M250.424 241.919L255.424 241.603C255.516 241.596 255.608 241.622 255.683 241.674C255.758 241.727 255.813 241.805 255.838 241.893L257.007 245.905C257.036 245.989 257.047 246.079 257.039 246.167C257.031 246.256 257.006 246.342 256.963 246.42C256.921 246.499 256.863 246.567 256.792 246.622C256.722 246.677 256.641 246.716 256.555 246.738C256.508 246.744 256.46 246.744 256.413 246.738C254.611 246.822 252.996 246.829 250.754 246.971C248.105 247.145 248.816 247.417 245.683 247.662C243.809 247.804 243.331 245.724 244.119 245.537C247.731 244.845 248.041 243.721 249.359 242.307C249.658 242.057 250.035 241.92 250.424 241.919Z" fill="#263238"/>
<path d="M252.136 138.449L251.264 135.316C251.237 135.227 251.191 135.146 251.129 135.077C251.068 135.008 250.992 134.953 250.908 134.915C250.823 134.878 250.732 134.859 250.639 134.86C250.547 134.861 250.456 134.882 250.372 134.921L230.824 144.792C230.746 144.835 230.676 144.893 230.621 144.964C230.566 145.035 230.527 145.116 230.505 145.203C230.483 145.29 230.479 145.38 230.494 145.469C230.509 145.557 230.543 145.641 230.592 145.716L232.569 148.591C232.569 148.591 237.42 181.614 239.41 192.596C241.464 203.792 248.816 237.293 248.816 237.293C248.839 237.412 248.908 237.518 249.009 237.587C249.109 237.655 249.232 237.682 249.352 237.661L255.043 236.744C255.151 236.726 255.249 236.671 255.321 236.589C255.393 236.506 255.434 236.401 255.437 236.292C255.502 233.436 255.437 215.387 253.641 202.616C252.995 198.055 251.458 194.399 250.934 191.886C250.359 189.114 251.251 187.254 251.58 180.581C252.291 168.048 253.079 148.216 252.136 138.449Z" fill="#263238"/>
<path opacity="0.5" d="M251.626 180.606C251.852 176.401 252.084 171.388 252.272 166.207L246.6 156.646L244.074 151L241.684 154.23C241.684 154.23 245.908 172.001 251.458 183.164C251.516 182.415 251.58 181.562 251.626 180.606Z" fill="black"/>
<path d="M294.643 220.077C297.02 223.456 298.564 225.678 298.564 225.678L294.966 228.598L290.211 223.249L294.643 220.077Z" fill="#FFC3BD"/>
<path d="M292.485 228.824C292.134 229.153 291.674 229.339 291.193 229.347C291.112 229.32 291.041 229.268 290.992 229.199C290.942 229.129 290.915 229.045 290.915 228.96C290.902 228.813 290.946 228.668 291.038 228.553C291.536 227.907 293.364 227.713 293.448 227.7C293.471 227.697 293.494 227.702 293.514 227.713C293.534 227.725 293.549 227.743 293.558 227.765C293.57 227.783 293.576 227.804 293.576 227.826C293.576 227.848 293.57 227.869 293.558 227.887C293.227 228.229 292.868 228.542 292.485 228.824ZM291.368 228.54C291.31 228.58 291.258 228.628 291.213 228.682C291.183 228.716 291.161 228.757 291.147 228.8C291.134 228.843 291.13 228.889 291.135 228.934C291.135 229.089 291.213 229.128 291.258 229.141C291.607 229.251 292.55 228.572 293.196 227.978C292.556 228.046 291.935 228.237 291.368 228.54Z" fill="#FF828A"/>
<path d="M293.525 227.894H293.486C292.898 228.023 291.419 227.894 291.193 227.403C291.128 227.293 291.109 227.119 291.335 226.919C291.415 226.845 291.508 226.788 291.611 226.752C291.713 226.715 291.821 226.699 291.929 226.705C292.567 226.861 293.138 227.214 293.564 227.713C293.573 227.73 293.579 227.749 293.579 227.768C293.579 227.787 293.573 227.806 293.564 227.823C293.559 227.85 293.545 227.875 293.525 227.894ZM291.516 227.067L291.464 227.099C291.316 227.229 291.348 227.3 291.361 227.326C291.522 227.59 292.569 227.791 293.228 227.72C292.871 227.336 292.408 227.069 291.897 226.951C291.76 226.944 291.625 226.985 291.516 227.067Z" fill="#FF828A"/>
<path d="M293.532 227.093L297.569 224.115C297.641 224.057 297.73 224.025 297.821 224.025C297.913 224.025 298.002 224.057 298.073 224.115L301.219 226.86C301.289 226.915 301.347 226.984 301.389 227.062C301.431 227.14 301.456 227.226 301.464 227.315C301.471 227.403 301.46 227.492 301.431 227.576C301.402 227.66 301.357 227.738 301.297 227.803C301.266 227.839 301.231 227.871 301.193 227.9C299.721 228.947 298.364 229.838 296.555 231.162C294.423 232.739 295.153 232.597 292.679 234.483C291.18 235.62 289.637 234.102 290.211 233.546C292.879 231.007 292.531 229.896 292.886 228.01C292.986 227.637 293.215 227.312 293.532 227.093Z" fill="#263238"/>
<path d="M237.821 146.421C237.821 146.421 252.789 180.924 259.862 191.208C266.148 200.343 290.011 223.715 290.011 223.715C290.187 223.905 290.43 224.019 290.689 224.035C290.947 224.051 291.202 223.966 291.4 223.799L294.714 220.982C294.895 220.826 295.016 220.611 295.054 220.374C295.091 220.138 295.044 219.895 294.921 219.69C292.886 216.376 284.32 202.597 276.8 193.631C273.803 190.058 270.922 187.436 269.501 185.465C267.634 182.881 268.073 180.775 266.594 173.547C263.842 160.103 258.48 140.336 250.34 137.177L237.821 146.421Z" fill="#263238"/>
<path opacity="0.3" d="M208.925 243.907H147.949C146.971 243.925 146.001 243.734 145.102 243.348C144.204 242.961 143.398 242.387 142.738 241.665C142.079 240.943 141.581 240.088 141.278 239.158C140.974 238.228 140.872 237.244 140.979 236.272L154.377 83.1697C154.587 81.1001 155.548 79.1792 157.079 77.7708C158.61 76.3625 160.605 75.5643 162.685 75.5275H223.661C224.639 75.5096 225.61 75.7006 226.509 76.0876C227.408 76.4747 228.215 77.049 228.874 77.7721C229.534 78.4953 230.032 79.3507 230.335 80.2815C230.637 81.2122 230.738 82.1968 230.631 83.1697L217.233 236.272C217.021 238.34 216.059 240.259 214.528 241.667C212.998 243.074 211.004 243.871 208.925 243.907Z" fill="#FF828A"/>
<path d="M223.661 75.5021H162.685C160.605 75.5389 158.61 76.3371 157.079 77.7454C155.548 79.1538 154.587 81.0747 154.377 83.1443L140.979 236.246C140.872 237.219 140.974 238.203 141.278 239.133C141.581 240.062 142.079 240.917 142.738 241.64C143.398 242.362 144.204 242.936 145.102 243.322C146.001 243.709 146.971 243.9 147.949 243.882H208.925C211.004 243.845 212.998 243.048 214.528 241.641C216.059 240.234 217.021 238.315 217.233 236.246L230.631 83.1443C230.738 82.1714 230.637 81.1868 230.335 80.2561C230.032 79.3254 229.534 78.4699 228.874 77.7467C228.215 77.0236 227.408 76.4493 226.509 76.0623C225.61 75.6752 224.639 75.4843 223.661 75.5021ZM213.841 236.272C213.723 237.422 213.188 238.488 212.337 239.27C211.486 240.052 210.378 240.496 209.222 240.516H148.247C147.703 240.526 147.163 240.42 146.664 240.205C146.165 239.99 145.717 239.671 145.35 239.269C144.984 238.868 144.707 238.393 144.538 237.876C144.369 237.359 144.312 236.813 144.371 236.272L157.769 83.1701C157.885 82.0193 158.42 80.9512 159.271 80.1679C160.122 79.3846 161.231 78.9404 162.387 78.9195H223.363C223.908 78.9097 224.448 79.0161 224.948 79.2315C225.447 79.4469 225.896 79.7663 226.262 80.1685C226.629 80.5707 226.906 81.0464 227.074 81.564C227.243 82.0816 227.299 82.6291 227.239 83.1701L213.841 236.272Z" fill="#FF828A"/>
<path opacity="0.6" d="M223.661 75.5021H162.685C160.605 75.5389 158.61 76.3371 157.079 77.7454C155.548 79.1538 154.587 81.0747 154.377 83.1443L140.979 236.246C140.872 237.219 140.974 238.203 141.278 239.133C141.581 240.062 142.079 240.917 142.738 241.64C143.398 242.362 144.204 242.936 145.102 243.322C146.001 243.709 146.971 243.9 147.949 243.882H208.925C211.004 243.845 212.998 243.048 214.528 241.641C216.059 240.234 217.021 238.315 217.233 236.246L230.631 83.1443C230.738 82.1714 230.637 81.1868 230.335 80.2561C230.032 79.3254 229.534 78.4699 228.874 77.7467C228.215 77.0236 227.408 76.4493 226.509 76.0623C225.61 75.6752 224.639 75.4843 223.661 75.5021ZM213.841 236.272C213.723 237.422 213.188 238.488 212.337 239.27C211.486 240.052 210.378 240.496 209.222 240.516H148.247C147.703 240.526 147.163 240.42 146.664 240.205C146.165 239.99 145.717 239.671 145.35 239.269C144.984 238.868 144.707 238.393 144.538 237.876C144.369 237.359 144.312 236.813 144.371 236.272L157.769 83.1701C157.885 82.0193 158.42 80.9512 159.271 80.1679C160.122 79.3846 161.231 78.9404 162.387 78.9195H223.363C223.908 78.9097 224.448 79.0161 224.948 79.2315C225.447 79.4469 225.896 79.7663 226.262 80.1685C226.629 80.5707 226.906 81.0464 227.074 81.564C227.243 82.0816 227.299 82.6291 227.239 83.1701L213.841 236.272Z" fill="white"/>
<path d="M187.594 234.45H170.798C170.542 234.455 170.297 234.554 170.109 234.728C169.92 234.902 169.803 235.139 169.777 235.394C169.764 235.513 169.777 235.634 169.815 235.748C169.852 235.863 169.914 235.968 169.995 236.056C170.076 236.145 170.176 236.215 170.286 236.262C170.397 236.31 170.516 236.333 170.637 236.33H187.432C187.689 236.327 187.935 236.23 188.124 236.057C188.313 235.884 188.433 235.648 188.46 235.394C188.473 235.273 188.46 235.151 188.422 235.036C188.384 234.921 188.322 234.816 188.24 234.726C188.158 234.637 188.058 234.566 187.947 234.519C187.835 234.471 187.715 234.448 187.594 234.45Z" fill="white"/>
<path opacity="0.1" d="M187.181 146.73H169.403C168.832 146.741 168.265 146.63 167.74 146.404C167.216 146.179 166.745 145.844 166.36 145.422C165.975 145 165.684 144.501 165.507 143.958C165.33 143.415 165.271 142.84 165.333 142.273L166.89 124.488C167.013 123.281 167.574 122.161 168.467 121.34C169.359 120.519 170.522 120.053 171.735 120.031H189.519C190.09 120.021 190.657 120.133 191.181 120.359C191.705 120.585 192.175 120.92 192.56 121.341C192.945 121.763 193.236 122.261 193.413 122.804C193.591 123.347 193.651 123.921 193.589 124.488L192.032 142.273C191.909 143.481 191.347 144.601 190.453 145.423C189.559 146.244 188.395 146.709 187.181 146.73Z" fill="black"/>
<path d="M185.243 144.792H167.465C166.894 144.802 166.327 144.691 165.802 144.466C165.278 144.24 164.807 143.905 164.422 143.483C164.037 143.062 163.746 142.563 163.569 142.02C163.392 141.476 163.333 140.902 163.395 140.334L164.952 122.55C165.075 121.343 165.636 120.223 166.529 119.402C167.422 118.58 168.584 118.115 169.797 118.092H187.581C188.152 118.083 188.719 118.194 189.243 118.42C189.767 118.646 190.237 118.981 190.622 119.403C191.007 119.824 191.298 120.323 191.475 120.866C191.653 121.408 191.713 121.982 191.651 122.55L190.094 140.334C189.971 141.542 189.409 142.663 188.515 143.484C187.621 144.306 186.457 144.771 185.243 144.792Z" fill="#FF828A"/>
<path d="M180.508 129.818C180.811 126.368 177.924 123.577 173.983 123.577C170.042 123.577 166.67 126.368 166.373 129.818C166.134 132.537 167.911 134.85 170.591 135.696C170.22 136.42 169.627 137.006 168.899 137.369C169.028 137.449 169.164 137.516 169.306 137.57C170.029 137.804 170.812 137.779 171.519 137.5C172.226 137.221 172.814 136.704 173.182 136.038C176.955 135.909 180.217 133.164 180.508 129.818Z" fill="white"/>
<path d="M188.692 132.802C188.944 129.959 186.535 127.634 183.311 127.634C182.745 127.635 182.181 127.707 181.632 127.847C181.766 128.484 181.807 129.136 181.754 129.785C181.615 131.016 181.192 132.199 180.52 133.24C179.848 134.281 178.944 135.153 177.878 135.786C178.369 136.419 178.992 136.936 179.704 137.301C180.417 137.666 181.2 137.87 182 137.899C182.098 138.158 182.247 138.396 182.437 138.598C182.627 138.8 182.856 138.963 183.109 139.076C183.362 139.19 183.636 139.252 183.913 139.259C184.191 139.267 184.467 139.219 184.726 139.12C184.841 139.077 184.953 139.027 185.062 138.971C184.575 138.693 184.205 138.248 184.022 137.718C186.522 137.136 188.486 135.16 188.692 132.802Z" fill="white"/>
<path opacity="0.1" d="M179.028 201.769H165.805C165.38 201.777 164.958 201.694 164.568 201.527C164.178 201.359 163.827 201.11 163.541 200.796C163.254 200.483 163.038 200.112 162.906 199.708C162.773 199.304 162.729 198.877 162.775 198.455L163.931 185.231C164.023 184.332 164.441 183.497 165.106 182.885C165.772 182.273 166.638 181.927 167.542 181.911H180.766C181.191 181.903 181.614 181.985 182.004 182.153C182.395 182.321 182.746 182.571 183.032 182.885C183.319 183.199 183.536 183.571 183.667 183.976C183.799 184.38 183.843 184.808 183.796 185.231L182.639 198.455C182.548 199.354 182.129 200.187 181.464 200.798C180.798 201.409 179.932 201.754 179.028 201.769Z" fill="black"/>
<path opacity="0.1" d="M198.434 176.032H181.916C181.385 176.042 180.858 175.938 180.37 175.728C179.883 175.518 179.445 175.206 179.088 174.814C178.73 174.421 178.46 173.957 178.296 173.452C178.132 172.947 178.078 172.413 178.137 171.885L179.577 155.354C179.693 154.229 180.217 153.185 181.05 152.421C181.884 151.656 182.969 151.224 184.099 151.207H200.637C201.168 151.198 201.694 151.302 202.181 151.513C202.668 151.723 203.105 152.035 203.463 152.427C203.82 152.819 204.09 153.283 204.254 153.788C204.419 154.293 204.474 154.826 204.416 155.354L202.976 171.885C202.86 173.013 202.333 174.06 201.495 174.824C200.658 175.589 199.568 176.019 198.434 176.032Z" fill="black"/>
<path d="M196.496 174.094H179.978C179.447 174.104 178.92 174 178.432 173.79C177.945 173.58 177.507 173.268 177.15 172.875C176.792 172.483 176.522 172.019 176.358 171.514C176.194 171.009 176.14 170.474 176.199 169.947L177.639 153.415C177.755 152.29 178.279 151.247 179.112 150.482C179.946 149.718 181.031 149.286 182.161 149.268H198.699C199.23 149.259 199.756 149.364 200.243 149.574C200.73 149.785 201.167 150.096 201.525 150.489C201.882 150.881 202.152 151.345 202.316 151.849C202.481 152.354 202.536 152.888 202.478 153.415L201.038 169.947C200.922 171.075 200.395 172.121 199.557 172.886C198.72 173.651 197.63 174.081 196.496 174.094Z" fill="#FF828A"/>
<path d="M177.09 199.831H163.867C163.442 199.839 163.02 199.757 162.63 199.589C162.24 199.421 161.889 199.172 161.603 198.859C161.316 198.545 161.1 198.174 160.968 197.771C160.835 197.367 160.791 196.94 160.837 196.517L161.993 183.294C162.085 182.394 162.503 181.56 163.168 180.948C163.834 180.336 164.7 179.989 165.604 179.973H178.828C179.253 179.965 179.676 180.048 180.066 180.216C180.457 180.384 180.808 180.633 181.094 180.948C181.381 181.262 181.598 181.634 181.729 182.038C181.861 182.443 181.905 182.871 181.858 183.294L180.701 196.517C180.61 197.416 180.191 198.25 179.526 198.861C178.86 199.472 177.994 199.817 177.09 199.831Z" fill="#FF828A"/>
<path d="M197.582 154.862H182.239C181.754 154.86 181.286 155.04 180.927 155.367C180.568 155.693 180.345 156.143 180.301 156.626L179.442 166.755C179.418 166.979 179.442 167.205 179.513 167.419C179.583 167.633 179.698 167.83 179.85 167.996C180.002 168.162 180.188 168.294 180.395 168.383C180.602 168.472 180.825 168.516 181.051 168.512H196.387C196.871 168.514 197.338 168.335 197.697 168.01C198.055 167.685 198.279 167.237 198.325 166.755L199.21 156.639C199.237 156.411 199.214 156.181 199.144 155.963C199.074 155.746 198.958 155.546 198.803 155.377C198.649 155.208 198.46 155.075 198.249 154.986C198.038 154.897 197.81 154.855 197.582 154.862ZM185.831 161.671L180.695 166.393L181.522 156.949L185.831 161.671ZM182.459 156.083H197.142L189.72 162.911C189.653 162.979 189.573 163.033 189.484 163.07C189.396 163.106 189.302 163.125 189.206 163.125C189.111 163.125 189.016 163.106 188.928 163.07C188.84 163.033 188.76 162.979 188.693 162.911L182.459 156.083ZM186.619 162.543L187.75 163.783C187.919 163.966 188.125 164.111 188.355 164.209C188.584 164.307 188.831 164.355 189.08 164.352C189.611 164.348 190.12 164.145 190.508 163.783L191.858 162.543L196.186 167.285H181.464L186.619 162.543ZM192.795 161.677L197.963 156.955L197.136 166.4L192.795 161.677Z" fill="white"/>
<path d="M165.282 186.342L169.158 187.919L173.421 184.999L170.217 188.791L172.569 192.111L176.296 182.86L165.282 186.342Z" fill="white"/>
<path d="M168.893 188.797L170.637 190.929H168.776L168.893 188.797Z" fill="white"/>
<path d="M167.348 191.582L166.941 191.324C167.06 191.132 167.192 190.948 167.335 190.774L167.704 191.091C167.574 191.246 167.455 191.41 167.348 191.582Z" fill="white"/>
<path d="M167.155 194.766C166.753 194.544 166.454 194.173 166.322 193.732L166.787 193.603C166.896 193.926 167.128 194.193 167.433 194.346L167.155 194.766ZM166.748 193.099L166.264 193.061C166.311 192.639 166.436 192.229 166.632 191.853L167.071 192.072C166.901 192.392 166.791 192.74 166.748 193.099Z" fill="white"/>
<path d="M176.922 196.472L176.444 196.388C176.467 196.271 176.478 196.152 176.476 196.033C176.491 195.827 176.429 195.622 176.302 195.458L176.677 195.148C176.872 195.401 176.972 195.714 176.961 196.033C176.96 196.18 176.947 196.327 176.922 196.472ZM170.055 195.355H169.551V194.87C169.937 194.89 170.322 194.89 170.708 194.87V195.355H170.055ZM171.347 195.303V194.819C171.741 194.819 172.135 194.754 172.516 194.715L172.562 195.2L171.347 195.303ZM168.951 195.303H168.75C168.41 195.259 168.075 195.183 167.749 195.077L167.904 194.618C168.2 194.717 168.505 194.786 168.815 194.825H169.002L168.951 195.303ZM175.927 195.206C175.581 195.095 175.219 195.042 174.855 195.051V194.534C175.278 194.523 175.7 194.587 176.102 194.722L175.927 195.206ZM173.117 195.148L173.072 194.664C173.485 194.625 173.886 194.593 174.254 194.573V195.058C173.912 195.058 173.518 195.09 173.111 195.129L173.117 195.148Z" fill="white"/>
<path d="M176.522 197.699L176.076 197.505C176.167 197.299 176.244 197.098 176.302 196.924L176.761 197.072C176.696 197.266 176.619 197.473 176.522 197.699Z" fill="white"/>
<path opacity="0.1" d="M194.448 116.413H179.59C179.112 116.422 178.638 116.328 178.199 116.139C177.76 115.95 177.366 115.669 177.044 115.316C176.722 114.962 176.479 114.545 176.331 114.09C176.183 113.635 176.133 113.155 176.186 112.679L177.478 97.8213C177.58 96.8105 178.05 95.8723 178.797 95.1842C179.545 94.4961 180.519 94.1059 181.535 94.0874H196.393C196.871 94.079 197.345 94.1726 197.784 94.3618C198.223 94.5511 198.617 94.8317 198.939 95.1849C199.261 95.5382 199.504 95.9561 199.652 96.4106C199.8 96.8652 199.849 97.3461 199.797 97.8213L198.505 112.679C198.403 113.69 197.933 114.628 197.185 115.316C196.438 116.004 195.464 116.395 194.448 116.413Z" fill="black"/>
<path d="M192.51 114.475H177.652C177.174 114.483 176.7 114.39 176.261 114.2C175.822 114.011 175.428 113.73 175.106 113.377C174.784 113.024 174.541 112.606 174.393 112.152C174.245 111.697 174.195 111.216 174.248 110.741L175.54 95.8828C175.642 94.872 176.112 93.9338 176.859 93.2457C177.607 92.5577 178.581 92.1675 179.597 92.149H194.455C194.933 92.1406 195.407 92.2341 195.846 92.4234C196.285 92.6126 196.679 92.8932 197.001 93.2465C197.323 93.5997 197.566 94.0176 197.714 94.4722C197.862 94.9267 197.911 95.4076 197.859 95.8828L196.567 110.741C196.465 111.752 195.995 112.69 195.247 113.378C194.5 114.066 193.526 114.456 192.51 114.475Z" fill="#FF828A"/>
<path d="M193.305 106.335C193.208 103.721 192.186 101.225 190.423 99.2928C188.659 97.3602 186.268 96.1153 183.673 95.7794C182.914 95.406 182.05 95.3061 181.226 95.4968C180.402 95.6875 179.669 96.1571 179.151 96.8259C177.859 98.3957 179.009 99.4099 180.443 100.534C181.877 101.658 183.163 102.517 184.436 100.947C184.913 100.373 185.208 99.6687 185.282 98.9254C186.475 99.4126 187.544 100.159 188.412 101.111C189.281 102.063 189.926 103.197 190.301 104.429C189.559 104.433 188.835 104.658 188.221 105.075C186.548 106.212 187.284 107.537 188.286 109.106C189.287 110.676 190.179 111.891 191.845 110.747C192.557 110.29 193.09 109.602 193.356 108.799C193.621 107.996 193.604 107.127 193.305 106.335Z" fill="white"/>
<path d="M187.084 72.9305H197.226C197.73 72.9305 197.795 72.1553 197.297 72.1553H187.168C186.67 72.1553 186.599 72.9305 187.097 72.9305H187.084Z" fill="#FF828A"/>
<path d="M200.941 72.9305H203.88C204.384 72.9305 204.448 72.1553 203.951 72.1553H201.037C200.54 72.1553 200.469 72.9305 200.973 72.9305H200.941Z" fill="#FF828A"/>
<g opacity="0.3">
<path d="M187.084 72.9305H197.226C197.73 72.9305 197.795 72.1553 197.297 72.1553H187.168C186.67 72.1553 186.599 72.9305 187.097 72.9305H187.084Z" fill="white"/>
</g>
<g opacity="0.3">
<path d="M200.941 72.9305H203.88C204.384 72.9305 204.448 72.1553 203.951 72.1553H201.037C200.54 72.1553 200.469 72.9305 200.973 72.9305H200.941Z" fill="white"/>
</g>
<path d="M220.482 151.297L219.591 161.426C219.582 161.529 219.615 161.631 219.681 161.71C219.748 161.788 219.843 161.837 219.946 161.846C220.049 161.855 220.151 161.822 220.23 161.755C220.308 161.689 220.357 161.594 220.366 161.491C220.659 158.119 220.954 154.742 221.251 151.361C221.25 151.265 221.212 151.173 221.147 151.103C221.081 151.032 220.992 150.989 220.896 150.981C220.8 150.973 220.704 151.001 220.628 151.059C220.552 151.117 220.5 151.202 220.482 151.297Z" fill="#FF828A"/>
<path d="M219.268 165.135L219.016 168.048C219.017 168.144 219.054 168.236 219.12 168.307C219.185 168.377 219.275 168.421 219.371 168.429C219.467 168.437 219.562 168.409 219.638 168.35C219.715 168.292 219.767 168.207 219.784 168.113L220.036 165.206C220.036 165.109 220 165.016 219.935 164.944C219.87 164.873 219.781 164.828 219.684 164.819C219.588 164.81 219.492 164.838 219.415 164.896C219.338 164.954 219.285 165.039 219.268 165.135Z" fill="#FF828A"/>
<g opacity="0.3">
<path d="M220.482 151.297L219.591 161.426C219.582 161.529 219.615 161.631 219.681 161.71C219.748 161.788 219.843 161.837 219.946 161.846C220.049 161.855 220.151 161.822 220.23 161.755C220.308 161.689 220.357 161.594 220.366 161.491C220.659 158.119 220.954 154.742 221.251 151.361C221.25 151.265 221.212 151.173 221.147 151.103C221.081 151.032 220.992 150.989 220.896 150.981C220.8 150.973 220.704 151.001 220.628 151.059C220.552 151.117 220.5 151.202 220.482 151.297Z" fill="white"/>
</g>
<g opacity="0.3">
<path d="M219.268 165.135L219.016 168.048C219.017 168.144 219.054 168.236 219.12 168.307C219.185 168.377 219.275 168.421 219.371 168.429C219.467 168.437 219.562 168.409 219.638 168.35C219.715 168.292 219.767 168.207 219.784 168.113L220.036 165.206C220.036 165.109 220 165.016 219.935 164.944C219.87 164.873 219.781 164.828 219.684 164.819C219.588 164.81 219.492 164.838 219.415 164.896C219.338 164.954 219.285 165.039 219.268 165.135Z" fill="white"/>
</g>
<path d="M130.785 106.219C130.785 106.219 127.038 105.709 127.491 107.66C127.82 109.081 129.08 106.284 130.785 106.219Z" fill="#263238"/>
<path d="M127.529 110.651C127.529 110.651 130.617 110.618 131.095 104.992C131.095 104.992 134.041 103.965 135.714 105.799C137.387 107.634 133.544 111.187 135.662 113.034C135.662 113.034 133.544 114.191 127.529 110.651Z" fill="#FF8B7B"/>
<path d="M138.957 90.7738C138.957 90.7738 142.936 89.9211 143.97 92.8475C145.003 95.7738 138.078 94.4883 138.078 94.4883L138.957 90.7738Z" fill="#263238"/>
<path opacity="0.3" d="M138.957 90.7738C138.957 90.7738 142.936 89.9211 143.97 92.8475C145.003 95.7738 138.078 94.4883 138.078 94.4883L138.957 90.7738Z" fill="black"/>
<path d="M142.213 98.0666C142.278 97.692 142.523 97.4206 142.769 97.4659C143.014 97.5111 143.163 97.8405 143.098 98.2152C143.033 98.5899 142.781 98.8612 142.542 98.8225C142.303 98.7837 142.148 98.4413 142.213 98.0666Z" fill="#263238"/>
<path d="M142.406 98.7705L144.144 101.587C143.814 101.791 143.441 101.914 143.055 101.946C142.669 101.979 142.281 101.92 141.922 101.774L142.406 98.7705Z" fill="#FF5652"/>
<path d="M129.248 96.2574C129.028 101.044 128.834 103.073 130.972 105.766C134.377 108.648 140.126 109.048 141.767 104.416C143.246 100.256 143.356 93.1436 138.899 90.7276C137.919 90.1962 136.82 89.924 135.706 89.937C134.591 89.9499 133.498 90.2476 132.531 90.8016C131.564 91.3557 130.755 92.1478 130.18 93.1027C129.606 94.0575 129.285 95.1435 129.248 96.2574Z" fill="#FF8B7B"/>
<path d="M141.612 96.8846C141.644 96.9022 141.679 96.9114 141.715 96.9114C141.752 96.9114 141.787 96.9022 141.819 96.8846C142.041 96.7167 142.299 96.6034 142.573 96.554C142.847 96.5047 143.128 96.5205 143.395 96.6004C143.449 96.6216 143.509 96.6206 143.562 96.5976C143.616 96.5746 143.658 96.5315 143.679 96.4777C143.701 96.4228 143.7 96.3617 143.677 96.3074C143.654 96.2531 143.611 96.2099 143.557 96.187C143.221 96.0782 142.865 96.052 142.517 96.1104C142.17 96.1689 141.842 96.3104 141.56 96.5229C141.536 96.538 141.516 96.5577 141.5 96.5809C141.483 96.6041 141.472 96.6302 141.466 96.6579C141.46 96.6856 141.459 96.7142 141.464 96.742C141.47 96.7698 141.48 96.7964 141.496 96.82C141.526 96.8546 141.567 96.8775 141.612 96.8846Z" fill="#263238"/>
<path d="M125.358 111.62C125.358 111.62 126.689 107.944 132.2 110.289C137.71 112.634 138.227 115.864 138.227 115.864L125.358 111.62Z" fill="#263238"/>
<path opacity="0.4" d="M125.358 111.62C125.358 111.62 126.689 107.944 132.2 110.289C137.71 112.634 138.227 115.864 138.227 115.864L125.358 111.62Z" fill="black"/>
<path d="M127.833 181.285C127.833 181.285 127.051 187.984 126.676 190.2C126.34 192.138 115.694 242.978 115.694 242.978L110.856 242.177C110.856 242.177 110.32 216.421 114.047 199.373C114.816 195.885 116.36 192.965 116.922 190.297C117.374 188.159 116.689 181.544 116.689 181.544L127.833 181.285Z" fill="#FF8B7B"/>
<path d="M107.626 180.192C107.626 180.192 105.371 186.329 104.318 188.229C103.175 190.296 98.8336 195.922 98.8336 195.922L75.7068 228.371L71.2817 225.574C71.2817 225.574 77.9549 207.705 88.0067 193.158C90.4033 189.689 93.853 187.046 95.7587 183.603C96.8375 181.626 97.7548 174.805 97.7548 174.805L107.626 180.192Z" fill="#FF8B7B"/>
<path d="M113.828 118.073C113.828 118.073 108.291 125.134 108.763 128.099C109.234 131.064 117.91 134.675 117.91 134.675L120.113 131.542L114.415 127.382L119.842 121.161L113.828 118.073Z" fill="#FF8B7B"/>
<path d="M122.981 111.006C122.29 110.677 119.222 109.449 112.6 118.054C112.6 118.054 115.01 121.058 120.171 122.848C120.171 122.828 125.985 112.408 122.981 111.006Z" fill="#263238"/>
<path opacity="0.4" d="M120.171 122.827C120.171 122.827 121.14 121.096 122.109 118.951C121.954 115.263 121.502 110.683 120.21 112.33C118.491 114.513 116.114 118.913 115.333 120.385C116.828 121.414 118.456 122.235 120.171 122.827Z" fill="black"/>
<path d="M114.958 139.624C121.321 143.059 128.35 145.081 135.565 145.554L128.098 187.163C128.098 187.163 106.56 187.092 95.3003 176.394C95.3003 176.369 99.79 153.694 114.958 139.624Z" fill="#FF828A"/>
<path d="M114.047 139.714C114.047 139.714 122.671 146.071 136.405 145.638C136.405 145.638 144.293 123.816 139.351 116.432C136.296 111.872 124.564 109.811 121.405 111.109C117.6 112.673 119.803 126.355 114.047 139.714Z" fill="#263238"/>
<path opacity="0.1" d="M116.115 162.131L106.521 183.106C109.885 184.328 113.342 185.276 116.857 185.942C116.857 185.942 117.18 166.349 116.115 162.131Z" fill="black"/>
<path opacity="0.4" d="M135.734 120.005L134.209 121.129C135.43 125.378 137.351 129.393 139.894 133.009C140.546 129.964 140.907 126.865 140.973 123.752L137.575 120.89L135.734 120.005Z" fill="black"/>
<path d="M144.377 123.157L149.545 130.36L162.536 131.226L164.92 129.243C165.078 129.108 165.275 129.027 165.482 129.01L172.42 128.461C172.47 128.458 172.52 128.466 172.566 128.484C172.613 128.502 172.656 128.529 172.691 128.564C172.726 128.6 172.754 128.642 172.772 128.689C172.79 128.736 172.797 128.786 172.794 128.836L172.756 129.423C172.749 129.507 172.713 129.586 172.654 129.646C172.595 129.706 172.516 129.744 172.433 129.753L169.145 130.011L168.499 133.377C168.461 133.566 168.371 133.742 168.238 133.882C168.106 134.023 167.936 134.123 167.749 134.172L165.165 134.818C165 134.863 164.826 134.863 164.661 134.818L162.84 134.359C162.84 134.359 152.717 136.4 148.072 135.58C143.427 134.759 138.847 127.182 138.847 127.182L144.377 123.157Z" fill="#FF8B7B"/>
<path d="M138.395 128.642C138.395 128.642 130.074 117.511 135.21 114.927C140.346 112.343 145.74 123.777 145.74 123.777C145.74 123.777 143.634 126.994 138.395 128.642Z" fill="#263238"/>
<path d="M116.754 242.687C116.729 242.682 116.706 242.669 116.689 242.651C116.671 242.632 116.66 242.609 116.657 242.584C116.653 242.557 116.657 242.53 116.668 242.506C116.68 242.482 116.698 242.462 116.721 242.448C116.805 242.409 118.711 241.408 119.596 241.692C119.678 241.716 119.754 241.755 119.821 241.809C119.887 241.862 119.943 241.928 119.984 242.002C120.042 242.082 120.073 242.178 120.073 242.277C120.073 242.376 120.042 242.472 119.984 242.551C119.517 242.86 118.953 242.984 118.401 242.9C117.846 242.882 117.295 242.811 116.754 242.687ZM117.173 242.532C118.162 242.694 119.512 242.739 119.757 242.396C119.796 242.358 119.835 242.28 119.757 242.119C119.734 242.072 119.7 242.031 119.659 241.998C119.618 241.966 119.57 241.943 119.518 241.931C119.439 241.905 119.356 241.892 119.273 241.893C118.539 241.971 117.826 242.188 117.173 242.532Z" fill="#FF828A"/>
<path d="M116.67 242.68C116.651 242.668 116.636 242.65 116.627 242.63C116.618 242.609 116.615 242.586 116.618 242.564C116.618 242.493 116.825 241.059 117.523 240.523C117.623 240.445 117.739 240.388 117.862 240.356C117.985 240.324 118.114 240.317 118.24 240.335C118.588 240.38 118.685 240.561 118.698 240.71C118.789 241.311 117.458 242.422 116.806 242.687H116.754C116.726 242.694 116.696 242.692 116.67 242.68ZM118.143 240.568C117.984 240.559 117.827 240.61 117.703 240.71C117.284 241.155 117.014 241.719 116.928 242.325C117.574 241.957 118.485 241.085 118.466 240.716C118.466 240.684 118.466 240.594 118.22 240.568H118.143Z" fill="#FF828A"/>
<path d="M116.237 241.918L110.423 241.698C110.316 241.695 110.211 241.729 110.125 241.793C110.039 241.858 109.978 241.95 109.952 242.054L108.718 246.763C108.665 246.963 108.692 247.175 108.795 247.354C108.898 247.534 109.068 247.665 109.267 247.719C109.323 247.729 109.379 247.729 109.435 247.719C111.541 247.764 113.414 247.719 116.037 247.823C119.131 247.939 118.33 248.275 121.967 248.469C124.157 248.578 124.648 246.104 123.725 245.949C119.493 245.258 119.099 243.953 117.516 242.37C117.159 242.07 116.704 241.91 116.237 241.918Z" fill="#263238"/>
<path d="M76.431 228.688C76.4121 228.67 76.3986 228.647 76.3917 228.622C76.3849 228.597 76.3851 228.571 76.3922 228.546C76.4003 228.521 76.4159 228.5 76.4368 228.485C76.4577 228.47 76.4827 228.462 76.5085 228.462C76.6054 228.462 78.7566 228.462 79.4219 229.108C79.5465 229.229 79.6204 229.393 79.6287 229.567C79.6416 229.664 79.6236 229.763 79.5772 229.85C79.5309 229.937 79.4585 230.007 79.3703 230.051C78.8127 230.113 78.2517 229.969 77.794 229.644C77.3117 229.367 76.8555 229.047 76.431 228.688ZM76.8767 228.74C77.6842 229.328 78.8728 229.974 79.2604 229.786C79.3121 229.786 79.3767 229.722 79.3703 229.534C79.3708 229.481 79.3595 229.429 79.3371 229.381C79.3148 229.333 79.2819 229.29 79.2411 229.257C79.1814 229.2 79.114 229.152 79.0408 229.114C78.3471 228.866 77.6131 228.75 76.8767 228.772V228.74Z" fill="#FF828A"/>
<path d="M76.379 228.649C76.3662 228.63 76.3594 228.607 76.3594 228.584C76.3594 228.561 76.3662 228.539 76.379 228.52C76.4177 228.468 77.2382 227.273 78.1103 227.112C78.2336 227.087 78.3607 227.088 78.4838 227.113C78.6069 227.139 78.7237 227.189 78.8273 227.26C79.118 227.46 79.1309 227.667 79.0728 227.803C78.879 228.384 77.1929 228.778 76.4888 228.72C76.4721 228.726 76.4538 228.726 76.4371 228.72C76.4093 228.705 76.3884 228.679 76.379 228.649ZM78.6464 227.435C78.5085 227.353 78.345 227.325 78.1878 227.357C77.6127 227.569 77.1166 227.952 76.7666 228.455C77.5418 228.455 78.7046 228.042 78.8661 227.712C78.8661 227.68 78.9048 227.59 78.711 227.46H78.6464V227.435Z" fill="#FF828A"/>
<path d="M76.3142 227.771L71.2043 224.942C71.1108 224.89 71.0023 224.871 70.8966 224.888C70.7909 224.906 70.6944 224.959 70.6229 225.039L67.3929 228.689C67.3241 228.765 67.2711 228.854 67.2368 228.951C67.2025 229.048 67.1876 229.15 67.193 229.253C67.1984 229.356 67.2239 229.456 67.2682 229.549C67.3125 229.642 67.3746 229.725 67.451 229.793L67.5867 229.89C69.4472 230.879 71.1462 231.686 73.4395 232.959C76.1462 234.457 75.2806 234.399 78.4395 236.189C80.3775 237.28 81.9021 235.291 81.1462 234.735C77.6837 232.209 77.9162 230.859 77.2186 228.74C77.0404 228.321 76.7202 227.978 76.3142 227.771Z" fill="#263238"/>
<path d="M137.342 100.373C137.342 100.373 139.28 99.7265 138.569 96.9164C138.569 96.9164 139.713 94.9784 139.532 93.9513C139.532 93.9513 145.346 90.5986 142.025 86.9228C138.705 83.2471 132.678 85.7019 130.01 90.3983C130.01 90.3983 115.83 95.0107 125.701 103.68C135.307 112.149 137.342 100.373 137.342 100.373Z" fill="#263238"/>
<path d="M131.489 92.3692C131.489 92.3692 129.273 87.5049 132.6 83.8291C135.927 80.1534 130.391 89.01 131.489 92.3692Z" fill="#263238"/>
<path d="M137.342 100.373C137.397 100.355 137.451 100.333 137.503 100.308C137.503 96.6647 136.101 92.2978 130.727 89.3262C130.468 89.6748 130.229 90.0371 130.01 90.4115C130.01 90.4115 129.603 90.5471 128.976 90.8055C130.837 92.7823 135.946 99.3263 130.203 106.477C135.959 108.273 137.342 100.373 137.342 100.373Z" fill="#FF828A"/>
<path d="M137.568 98.6671C138.228 99.3897 138.574 100.345 138.53 101.322C138.459 102.614 137.193 102.866 136.185 102.168C135.275 101.522 134.215 100.101 134.784 98.9384C134.911 98.6915 135.099 98.4805 135.329 98.3246C135.56 98.1687 135.825 98.0729 136.102 98.0459C136.379 98.019 136.658 98.0617 136.914 98.1702C137.17 98.2787 137.395 98.4495 137.568 98.6671Z" fill="#FF8B7B"/>
<path d="M142.678 97.4726L143.724 97.4209C143.724 97.4209 143.039 98.0734 142.678 97.4726Z" fill="#263238"/>
<path opacity="0.2" d="M133.098 107.11C133.622 108.17 134.429 109.064 135.43 109.694C135.656 109.108 135.852 108.511 136.018 107.905C135.006 107.81 134.018 107.541 133.098 107.11Z" fill="black"/>
<path d="M34.5 18L35.4758 28.5242L46 29.5L35.4758 30.4758L34.5 41L33.5242 30.4758L23 29.5L33.5242 28.5242L34.5 18Z" fill="#FE7E72" fill-opacity="0.7"/>
<path d="M258.5 264L259.476 274.524L270 275.5L259.476 276.476L258.5 287L257.524 276.476L247 275.5L257.524 274.524L258.5 264Z" fill="#FE7E72" fill-opacity="0.7"/>
<path d="M44.5 131L45.4758 141.524L56 142.5L45.4758 143.476L44.5 154L43.5242 143.476L33 142.5L43.5242 141.524L44.5 131Z" fill="#FE7E72" fill-opacity="0.7"/>
<path d="M251.5 52L252.476 62.5242L263 63.5L252.476 64.4758L251.5 75L250.524 64.4758L240 63.5L250.524 62.5242L251.5 52Z" fill="#FE7E72" fill-opacity="0.7"/>
<path d="M147.399 46.0231L154.622 25.6125L168.686 42.0724L147.399 46.0231Z" stroke="white" stroke-width="2"/>
<path d="M346.272 16.3247L367.684 13.1208L359.753 33.2664L346.272 16.3247Z" stroke="white" stroke-width="2"/>
<path d="M22.5 234L23.4758 244.524L34 245.5L23.4758 246.476L22.5 257L21.5242 246.476L11 245.5L21.5242 244.524L22.5 234Z" fill="#FE7E72" fill-opacity="0.7"/>
<path d="M346.5 159L347.476 169.524L358 170.5L347.476 171.476L346.5 182L345.524 171.476L335 170.5L345.524 169.524L346.5 159Z" fill="#FE7E72" fill-opacity="0.7"/>
<g clip-path="url(#clip0_473_5169)">
<path d="M52.6084 186.98C53.9669 184.631 52.3244 180.91 47.9632 176.503C48.4641 173.096 47.995 169.617 46.6096 166.464C45.2242 163.311 42.9786 160.613 40.1301 158.677C37.2816 156.742 33.9455 155.648 30.5041 155.522C27.0627 155.395 23.6552 156.24 20.6721 157.961C19.8959 158.404 19.1561 158.908 18.4599 159.468C12.4655 157.891 8.42245 158.339 7.06396 160.688C6.23015 162.113 6.49557 164.007 7.81042 166.284C8.66324 167.706 9.66749 169.031 10.8056 170.237L11.7092 171.164C11.2083 174.571 11.6774 178.051 13.0628 181.203C14.4482 184.356 16.6938 187.055 19.5423 188.99C22.3908 190.926 25.7269 192.019 29.1683 192.146C32.6097 192.273 36.0172 191.427 39.0003 189.706C39.7765 189.264 40.5163 188.759 41.2125 188.199L42.4544 188.517C47.8367 189.712 51.3309 189.189 52.6084 186.98ZM44.3286 165.467C46.267 168.828 46.977 172.758 46.3373 176.585C45.6976 180.412 43.7479 183.898 40.8217 186.446C36.4004 185.203 31.3125 182.965 26.2463 180.047C21.18 177.129 16.7249 173.835 13.4267 170.633C14.0724 167.285 15.7268 164.214 18.1677 161.833C20.6087 159.452 23.7194 157.875 27.0826 157.312C30.4458 156.75 33.9005 157.23 36.9831 158.688C40.0658 160.145 42.6289 162.511 44.3286 165.467ZM11.9992 169.156C8.92527 165.824 7.59299 162.959 8.44138 161.48C9.28977 160.001 12.5305 159.717 16.9928 160.753C14.6127 163.091 12.9162 166.035 12.0862 169.267L11.9992 169.156ZM15.3438 182.201C13.6514 179.284 12.8891 175.92 13.1585 172.559C16.4388 175.611 20.7027 178.693 25.4543 181.425C30.2059 184.156 34.9944 186.314 39.2777 187.637C38.9353 187.881 38.5657 188.117 38.2034 188.326C34.3585 190.54 29.7926 191.138 25.5071 189.99C21.2217 188.842 17.5667 186.041 15.3438 182.201ZM47.5862 178.4C50.6973 181.757 52.0966 184.699 51.231 186.188C50.3654 187.677 47.2308 187.945 42.8156 186.952C42.7612 186.937 42.7167 186.94 42.6795 186.915C45.0533 184.571 46.7487 181.629 47.5862 178.4Z" fill="white"/>
</g>
<defs>
<clipPath id="clip0_473_5169">
<rect width="51" height="51" fill="white" transform="translate(39.1699 139) rotate(60)"/>
</clipPath>
</defs>
</svg>
