<svg width="392" height="284" viewBox="0 0 392 284" fill="none" xmlns="http://www.w3.org/2000/svg">
<path d="M19.6766 122.568C16.4689 120.262 15.4547 116.167 17.417 113.438L36.5193 86.8691L48.1537 95.2341L29.0515 121.803C27.0892 124.532 22.8845 124.875 19.6768 122.569L19.6766 122.568ZM37.2285 89.7333L19.2418 114.75C17.8959 116.622 18.5899 119.432 20.7923 121.016C22.9913 122.597 25.8798 122.362 27.2256 120.491L45.2124 95.4736L37.2285 89.7333Z" fill="white" fill-opacity="0.4"/>
<path d="M35.0638 85.8223L49.6348 96.2985L48.5192 97.8502L33.9482 87.374L35.0638 85.8223Z" fill="white" fill-opacity="0.4"/>
<path d="M36.1083 134.383C32.9005 132.076 31.8864 127.981 33.8486 125.252L52.9509 98.6836L64.5843 107.048L45.482 133.616C43.5198 136.345 39.3151 136.689 36.1081 134.383L36.1083 134.383ZM53.6602 101.548L35.6734 126.565C34.3276 128.437 35.0216 131.247 37.2244 132.83C39.4234 134.411 42.3118 134.177 43.6577 132.305L61.6444 107.288L53.6602 101.548Z" fill="white" fill-opacity="0.4"/>
<path d="M51.4955 97.6377L66.0665 108.114L64.9508 109.666L50.3798 99.1894L51.4955 97.6377Z" fill="white" fill-opacity="0.4"/>
<path d="M52.5356 146.194C49.3279 143.888 48.3138 139.793 50.276 137.064L69.3783 110.495L81.0127 118.86L61.9105 145.429C59.9478 148.157 55.7435 148.501 52.5358 146.195L52.5356 146.194ZM70.088 113.36L52.1012 138.377C50.7554 140.248 51.4494 143.058 53.6517 144.642C55.8508 146.223 58.7388 145.988 60.0846 144.116L78.0714 119.1L70.088 113.36Z" fill="white" fill-opacity="0.4"/>
<path d="M67.9299 109.452L82.4998 119.928L81.3842 121.479L66.8143 111.004L67.9299 109.452Z" fill="white" fill-opacity="0.4"/>
<path d="M17.5887 136.845L6.96459 129.206L10.3124 124.55L20.9368 132.188L17.5887 136.845ZM9.90511 128.966L16.8807 133.981L17.9968 132.429L11.021 127.414L9.90511 128.966Z" fill="white" fill-opacity="0.4"/>
<path d="M50.4506 160.471L39.8253 152.832L43.1731 148.176L53.7984 155.815L50.4506 160.471ZM42.7662 152.592L49.7413 157.607L50.8574 156.054L43.8821 151.039L42.7662 152.592Z" fill="white" fill-opacity="0.4"/>
<path d="M58.4358 161.505L3.23201 121.814L22.2679 95.3379L77.4718 135.028L58.4358 161.505ZM6.17433 121.575L57.729 158.642L74.5322 135.27L22.9786 98.2038L6.17433 121.575Z" fill="white" fill-opacity="0.4"/>
<path d="M344.165 200.904C345.31 202.171 346.879 202.915 348.584 203.001C350.29 203.086 351.926 202.502 353.192 201.357C354.458 200.211 355.203 198.642 355.289 196.937C355.374 195.232 354.79 193.595 353.645 192.33C351.281 189.716 347.231 189.513 344.617 191.877C342.004 194.241 341.802 198.292 344.165 200.904ZM352.376 193.478C354.106 195.391 353.958 198.357 352.044 200.088C350.131 201.819 347.165 201.67 345.434 199.757C344.569 198.8 344.173 197.58 344.233 196.384C344.293 195.186 344.809 194.012 345.765 193.146C347.68 191.416 350.645 191.564 352.376 193.478Z" fill="white" fill-opacity="0.4"/>
<path d="M330.338 174.132L329.34 174.108C328.883 174.096 328.498 174.444 328.465 174.9L328.389 175.895C327.981 181.245 327.473 187.903 330.069 192.904C332.961 198.477 337.419 203.363 341.732 208.088C342.17 208.569 342.601 209.043 343.032 209.517C343.028 209.548 343.015 209.573 343.014 209.605L342.95 221.584C342.949 221.798 343.027 222.003 343.171 222.162L354.415 234.592C354.647 234.849 355.011 234.941 355.338 234.824C355.664 234.708 355.887 234.407 355.905 234.061L356.395 224.287L358.846 226.997C359.164 227.348 359.704 227.375 360.054 227.057L362.433 224.905L364.39 228.845C364.509 229.084 364.733 229.254 364.997 229.304C365.26 229.353 365.532 229.278 365.73 229.098L379.54 216.607C379.709 216.453 379.809 216.24 379.82 216.015C379.822 215.976 379.822 215.937 379.818 215.898C379.795 215.631 379.648 215.389 379.422 215.248L375.698 212.907L378.077 210.755C378.253 210.597 378.347 210.382 378.358 210.164C378.369 209.945 378.296 209.722 378.138 209.546L375.687 206.836L385.461 207.327C385.806 207.344 386.128 207.151 386.277 206.839C386.326 206.735 386.353 206.625 386.359 206.515C386.37 206.292 386.294 206.069 386.139 205.897L374.895 193.468C374.753 193.309 374.554 193.21 374.342 193.189L362.31 192.045C361.888 191.575 361.464 191.105 361.036 190.627C356.766 185.864 352.35 180.939 347.094 177.504C342.378 174.421 335.702 174.261 330.339 174.132L330.338 174.132ZM354.298 231.912L344.663 221.259L344.716 211.375L354.77 222.492L354.298 231.912ZM377.554 216.096L365.42 227.071L363.751 223.713L374.379 214.1L377.554 216.096ZM373.848 194.863L383.483 205.515L374.063 205.043L364.008 193.927L373.848 194.863ZM346.157 178.938C351.225 182.25 355.565 187.09 359.761 191.772C360.307 192.381 360.848 192.985 361.387 193.58L376.294 210.061L359.54 225.215L344.631 208.732C344.093 208.138 343.547 207.538 342.994 206.933C338.756 202.289 334.375 197.488 331.587 192.115C329.216 187.545 329.684 181.425 330.095 176.025L330.109 175.838L330.295 175.843C335.711 175.973 341.848 176.121 346.156 178.937L346.157 178.938Z" fill="white" fill-opacity="0.4"/>
<circle cx="153" cy="148" r="2" fill="white"/>
<circle cx="86" cy="238" r="2" fill="white"/>
<circle cx="266" cy="92" r="2" fill="white"/>
<circle cx="248" cy="243" r="2" fill="white"/>
<path d="M264 165L265.829 173.975L272.999 168.275L268.631 176.326L277.787 176.569L269.266 179.929L276.124 186L267.437 183.096L268.788 192.156L264 184.348L259.212 192.156L260.563 183.096L251.876 186L258.734 179.929L250.213 176.569L259.369 176.326L255.001 168.275L262.171 173.975L264 165Z" fill="white"/>
<path d="M83.5 80L84.3492 84.167L87.6781 81.5207L85.6502 85.2586L89.9013 85.3713L85.9451 86.9311L89.1292 89.75L85.0959 88.4019L85.7231 92.608L83.5 88.9828L81.2769 92.608L81.9041 88.4019L77.8708 89.75L81.0549 86.9311L77.0987 85.3713L81.3499 85.2586L79.3219 81.5207L82.6508 84.167L83.5 80Z" fill="white"/>
<path d="M325.395 96.8414L326.726 97.9169C327.799 96.6719 328.951 95.6005 330.097 94.7003L338.254 103.473C337.185 104.632 335.948 105.701 334.542 106.677L335.518 108.082C344.029 102.398 346.097 92.6276 346.557 89.3909C351.192 89.0457 369.01 86.4391 371.108 66.3958C373.85 66.324 384.245 65.3322 390.877 57.1822L389.546 56.1067C388.562 57.2695 387.496 58.344 386.35 59.2442L378.107 50.4687C379.091 49.3058 380.325 48.3234 381.731 47.3467L380.755 45.9413C371.981 51.787 370.069 61.9914 369.707 64.8892C349.486 65.268 345.42 82.9282 344.739 87.5267C341.481 87.6652 331.76 88.9389 325.394 96.8412L325.395 96.8414ZM371.511 64.698C371.729 63.4219 372.243 61.0435 373.283 58.3412L378.062 63.4805C375.206 64.3186 372.8 64.5734 371.511 64.6979L371.511 64.698ZM367.483 74.2265L361.633 67.935C363.801 67.1573 366.474 66.6554 369.387 66.5897C369.025 69.488 368.334 72.0309 367.483 74.2263L367.483 74.2265ZM366.57 75.8201C365.466 77.9205 364.121 79.5838 362.701 80.9876L354.378 72.0383C355.881 70.723 357.638 69.5028 359.813 68.5546L366.57 75.8201ZM361.46 82.1412C359.608 83.6147 357.772 84.6612 355.86 85.4482L349.351 78.4485C350.357 76.6868 351.537 74.8467 353.138 73.1921L361.46 82.1412ZM354.122 86.1555C350.83 87.2345 347.907 87.5566 346.447 87.675C346.674 86.1425 347.204 83.3362 348.605 80.1335L354.122 86.1555ZM344.85 89.243C344.632 90.5191 344.206 92.8155 343.169 95.4318L338.472 90.3808C341.154 89.6224 343.478 89.2792 344.849 89.243L344.85 89.243ZM384.944 60.22C383.191 61.355 381.447 62.2334 379.797 62.8584L373.944 56.6529C374.687 55.053 375.69 53.3773 376.945 51.7962L384.944 60.22ZM331.508 93.553C333.258 92.5034 335.003 91.625 336.652 90.9998L342.42 97.2022C341.677 98.8021 340.674 100.478 339.418 102.059L331.508 93.553Z" fill="white" fill-opacity="0.4"/>
<path d="M216.652 76.8244C219.27 71.623 224.471 61.8183 219.625 57.7929C218.467 56.7691 216.147 55.7773 211.99 57.0328C211.078 56.0448 209.742 55.5484 208.368 56.0022C206.783 56.5257 205.899 58.107 206.071 59.6912C204.484 60.5666 202.757 61.7232 201.029 62.8799C196.441 54.6671 190.861 49.1263 186.105 50.6969C181.35 52.2675 180.167 60.042 181.302 69.5116C171.8 69.4854 164.299 71.6113 163.194 76.43C162.908 78.0481 163.253 80.5126 166.342 83.4773C166.093 84.1453 165.915 85.0247 166.371 85.6946C168.296 89.3953 171.293 87.4679 171.575 87.2575C173.156 88.1417 174.878 89.0967 176.811 89.9818C172.037 98.2392 169.834 106.116 173.696 109.295C177.699 112.543 184.922 109.572 192.646 103.856C197.48 112.105 202.99 117.786 207.745 116.216C209.225 115.727 211.199 114.254 212.267 110.034C212.373 109.999 215.859 109.199 214.813 105.677C214.499 104.726 213.797 104.02 212.848 103.631C212.923 101.73 212.718 99.6886 212.548 97.4005C225.887 97.3317 230.048 93.9648 230.797 90.5531C232.15 84.7147 222.135 79.2315 216.651 76.8232L216.652 76.8244ZM175.143 107.645C172.826 105.598 174.076 99.0902 178.85 90.8323C181.556 91.9308 184.58 92.9245 187.675 93.7777C188.829 96.5612 190.088 99.3098 191.524 101.883C183.801 107.598 177.46 109.692 175.143 107.645L175.143 107.645ZM186.698 91.1711C184.342 90.4256 182.126 89.7508 180.088 88.9005C181.219 87.0032 182.597 85.1417 184.045 83.1397C184.393 84.5484 186.173 89.9379 186.698 91.1711ZM183.384 80.4279C181.406 82.9564 179.675 85.5208 178.049 88.0502C176.115 87.165 174.429 86.3157 172.847 85.4315C172.99 84.7985 173.027 84.2003 172.817 83.5662C171.138 79.9014 168.177 81.5826 167.895 81.7929C166.526 80.487 165.229 78.6886 165.48 76.9648C166.122 73.9399 172.216 71.8099 181.613 71.871C182.028 74.5469 182.547 77.5398 183.384 80.4279ZM203.466 72.3888C202.2 72.1038 196.643 70.8919 195.165 70.6766C196.965 69.0275 198.694 67.519 200.457 66.1161C201.472 68.1249 202.487 70.1337 203.466 72.3888ZM186.804 52.8104C189.762 51.8332 194.572 56.1049 199.336 64.1422C197.009 65.9658 194.645 68.0357 192.351 70.3169C189.396 69.8865 186.405 69.7022 183.555 69.5888C182.454 60.2243 183.845 53.7877 186.804 52.8104ZM183.83 71.8419C185.836 71.8827 188.017 72.0999 190.304 72.2821C189.351 73.3001 185.856 77.2673 185.009 78.2504C184.522 76.0671 184.141 73.8488 183.83 71.8419ZM190.384 94.5247C191.79 94.8805 196.961 95.9858 198.192 96.1651C196.498 97.7794 194.875 99.253 193.183 100.515C192.343 98.6829 191.328 96.6741 190.384 94.5247ZM210.701 103.52C210.701 103.52 210.595 103.555 210.701 103.52C208.904 104.113 207.879 105.976 208.472 107.772C208.751 108.618 209.312 109.253 210.015 109.606C209.588 111.506 208.632 113.58 207.047 114.103C204.088 115.08 199.137 110.738 194.409 102.455C196.631 100.666 198.924 98.7369 201.042 96.6311C204.243 97.0975 207.375 97.3525 210.331 97.431C210.571 99.5785 210.671 101.655 210.701 103.52L210.701 103.52ZM210.055 95.1772C207.909 95.0657 205.516 94.9184 203.088 94.6653C204.041 93.6473 207.818 89.4697 208.702 88.2404C209.258 90.6351 209.674 92.959 210.055 95.1772ZM208.041 85.5287C206.804 87.109 201.58 92.9367 200.379 94.2707C198.656 94.0196 191.34 92.4509 189.546 91.9884C188.847 90.2268 186.369 82.7238 185.881 80.8923C186.976 79.5932 191.919 73.9759 193.33 72.572C195.3 72.859 202.968 74.4287 204.656 74.9261C205.249 76.7226 207.588 83.8029 208.041 85.5287ZM207.157 61.56C207.999 62.3366 209.3 62.7273 210.463 62.3434C211.836 61.8897 212.79 60.5197 212.689 59.1469C214.52 58.6593 216.844 58.2434 218.072 59.4785C221.512 62.7962 215.533 74.1472 214.507 76.009C211.941 74.9813 209.058 74.0584 206.069 73.1703C204.88 70.2811 203.586 67.4269 202.15 64.8538C203.948 63.5566 205.57 62.4349 207.156 61.5594L207.157 61.56ZM207.153 75.7436C209.368 76.4184 211.478 77.1281 213.376 77.9076C212.21 79.6992 211.044 81.4909 209.666 83.3523C209.353 82.0493 207.712 77.0825 207.153 75.7436ZM228.651 90.0911C228.009 93.116 221.774 95.1752 212.307 95.2546C211.928 92.3325 211.268 89.2689 210.467 86.1344C212.339 83.6409 214 81.2171 215.555 78.8282C217.875 79.82 229.685 85.0613 228.651 90.0917L228.651 90.0911Z" fill="white" fill-opacity="0.4"/>
<path d="M195.208 78.1836C192.249 79.1609 190.692 82.2536 191.67 85.2126C192.647 88.1715 195.74 89.7286 198.698 88.7513C201.657 87.7741 203.214 84.6813 202.237 81.7224C201.26 78.7634 198.167 77.2064 195.208 78.1836ZM199.416 83.8262C198.888 84.0007 198.185 83.6468 198.01 83.1184C197.836 82.5901 197.133 82.2362 196.604 82.4107C196.076 82.5852 195.373 82.2313 195.199 81.7029C195.024 81.1746 195.378 80.4717 195.906 80.2972C197.703 79.7038 199.53 80.6239 200.124 82.4204C200.298 82.9488 200.05 83.6168 199.416 83.8262Z" fill="white" fill-opacity="0.4"/>
<path d="M198.933 205.155C198.096 204.563 196.582 203.695 193.111 202.995C190.074 202.384 185.717 202.455 181.38 203.182C177.481 198.492 172.063 194.85 166.071 192.902C162.957 191.89 159.826 191.383 156.764 191.394C153.523 191.406 150.452 192.002 147.636 193.166C140.736 196.017 135.221 202.085 132.884 209.396C132.065 211.959 131.636 214.657 131.605 217.425C127.433 219.647 124.599 221.204 121.37 223.417C120.304 224.148 118.811 225.37 117.754 227.042C116.685 228.732 116.297 230.489 116.602 232.264C117.042 234.83 118.886 237.015 121.751 238.433C122.285 238.697 122.854 238.935 123.456 239.144C130.1 241.447 136.313 241.121 142.612 240.505C144.286 241.839 146.075 242.977 147.945 243.904C150.651 245.244 153.529 246.141 156.472 246.549C160.939 247.168 165.605 246.634 169.965 245.006C174.359 243.366 178.218 240.696 181.126 237.283C183.926 233.997 185.9 229.963 186.848 225.598C189.172 224.128 191.418 222.525 193.527 220.829C196.339 218.568 201.572 214.36 201.598 210.427C201.614 208.191 200.717 206.417 198.933 205.155L198.933 205.155ZM139.66 200.717C142.078 198.04 145.042 195.928 148.231 194.61C153.351 192.494 159.515 192.415 165.587 194.388C171.443 196.291 176.722 199.887 180.451 204.514C180.453 204.515 180.454 204.517 180.455 204.518C180.455 204.519 180.456 204.519 180.456 204.52C181.411 205.705 182.257 206.954 182.969 208.233C183.908 209.918 184.625 211.672 185.099 213.447C185.48 214.872 185.729 216.352 185.844 217.851C184.673 218.887 183.206 219.899 181.851 220.596C170.735 226.323 164.521 228.618 160.35 229.978C152.59 232.507 145.339 233.693 138.197 233.601C137.501 232.624 136.871 231.601 136.32 230.555C135.24 228.502 134.421 226.299 133.887 224.006C133.419 221.996 133.176 219.939 133.165 217.891C133.15 215.122 133.556 212.423 134.371 209.871C135.439 206.531 137.267 203.366 139.659 200.718L139.66 200.717ZM187.266 216.408C187.121 215.265 186.902 214.138 186.609 213.041C186.242 211.671 185.74 210.314 185.114 208.989C185.281 209.045 185.443 209.105 185.601 209.171C187.08 209.784 188.63 211.203 188.762 212.994C188.834 213.985 188.311 215.167 187.267 216.408L187.266 216.408ZM132.616 225.352C133.174 227.42 133.953 229.411 134.939 231.285C135.343 232.053 135.787 232.809 136.267 233.545C136.017 233.534 135.768 233.521 135.519 233.507C133.841 233.41 132.476 233.227 131.269 232.648C129.959 232.017 129.039 230.912 128.875 229.762C128.627 228.033 130.821 226.391 132.616 225.353L132.616 225.352ZM179.938 236.27C177.202 239.48 173.566 241.994 169.421 243.542C165.303 245.079 160.899 245.583 156.688 245C152.475 244.417 148.403 242.768 144.81 240.206C147.963 239.698 153.445 238.668 154.783 238.369C161.475 236.876 164.978 235.619 173.281 232.407C177.368 230.827 181.286 228.93 184.952 226.76C183.963 230.299 182.25 233.557 179.939 236.27L179.938 236.27ZM192.549 219.611C190.402 221.338 188.11 222.967 185.738 224.453C181.7 226.984 177.319 229.17 172.719 230.95C164.496 234.13 161.031 235.375 154.444 236.844C152.672 237.24 144.5 238.748 142.777 238.919C136.549 239.537 130.424 239.906 123.968 237.667C122.416 237.129 118.741 235.499 118.14 231.998C117.521 228.385 120.808 225.695 122.25 224.707C125.291 222.623 127.911 221.167 131.638 219.177C131.714 220.718 131.915 222.257 132.235 223.774C130.867 224.525 129.768 225.309 128.961 226.108C127.689 227.369 127.14 228.673 127.328 229.985C127.565 231.645 128.753 233.147 130.511 234.018C130.538 234.031 130.564 234.044 130.591 234.057C132.113 234.788 133.814 234.974 135.425 235.067C136.206 235.112 136.996 235.143 137.775 235.158C145.219 235.303 152.761 234.094 160.831 231.464C165.058 230.086 171.348 227.764 182.563 221.986C184.161 221.163 185.834 219.99 187.158 218.767C187.159 218.767 187.16 218.766 187.16 218.766C187.166 218.76 187.172 218.755 187.179 218.749C189.365 216.724 190.45 214.693 190.317 212.878C190.159 210.72 188.544 208.699 186.198 207.727C185.562 207.464 184.886 207.271 184.142 207.14C183.643 206.272 183.087 205.42 182.48 204.592C186.315 204.031 190.176 203.999 192.8 204.528C197.961 205.568 200.057 207.275 200.035 210.418C200.014 213.608 194.972 217.662 192.549 219.611L192.549 219.611Z" fill="white" fill-opacity="0.4"/>
<path d="M96.3929 182.556C96.3735 182.558 96.3537 182.555 96.3339 182.549C96.3144 182.546 96.295 182.539 96.2749 182.529C96.2177 182.501 96.1802 182.463 96.1627 182.414C96.1444 182.366 96.1498 182.314 96.1772 182.259C96.2046 182.203 96.2424 182.168 96.2923 182.153C96.3411 182.138 96.3945 182.144 96.4517 182.172C96.4718 182.182 96.4888 182.194 96.5033 182.207C96.5196 182.22 96.5338 182.234 96.5448 182.25L96.5087 182.323C96.4993 182.304 96.4873 182.287 96.4734 182.274C96.4608 182.261 96.4451 182.25 96.4269 182.241C96.3948 182.225 96.3647 182.223 96.3365 182.234C96.3095 182.246 96.2877 182.269 96.2702 182.305C96.2528 182.34 96.2473 182.372 96.2543 182.4C96.2626 182.429 96.2827 182.452 96.3148 182.468C96.333 182.477 96.3512 182.483 96.3688 182.485C96.3876 182.488 96.408 182.488 96.429 182.484L96.3929 182.556Z" fill="white" fill-opacity="0.4"/>
<path d="M96.7351 182.517C96.7279 182.51 96.7216 182.504 96.7162 182.499C96.7099 182.494 96.7037 182.489 96.6974 182.486C96.6754 182.475 96.655 182.474 96.6371 182.481C96.6183 182.489 96.6033 182.505 96.5909 182.53L96.5323 182.649L96.4519 182.609L96.5789 182.352L96.6594 182.392L96.6382 182.435C96.6585 182.422 96.6773 182.416 96.6946 182.416C96.7118 182.414 96.7297 182.418 96.7486 182.427C96.7517 182.428 96.7543 182.431 96.7574 182.434L96.7725 182.442L96.7351 182.517Z" fill="white" fill-opacity="0.4"/>
<path d="M97.0045 182.722L96.9933 182.745L96.7997 182.649C96.7935 182.669 96.7942 182.687 96.8011 182.703C96.8075 182.718 96.822 182.732 96.844 182.743C96.8603 182.751 96.8792 182.757 96.9005 182.761C96.9212 182.765 96.9432 182.767 96.967 182.766L96.9359 182.829C96.9124 182.826 96.8897 182.821 96.8681 182.814C96.8467 182.81 96.8273 182.803 96.809 182.794C96.7619 182.771 96.7304 182.741 96.7158 182.704C96.7031 182.667 96.7071 182.627 96.7279 182.585C96.7485 182.544 96.7772 182.517 96.8142 182.506C96.8518 182.493 96.8932 182.498 96.9385 182.52C96.9787 182.54 97.0039 182.568 97.0154 182.605C97.0287 182.642 97.0251 182.68 97.0045 182.722L97.0045 182.722ZM96.9327 182.652C96.9408 182.636 96.942 182.621 96.9363 182.607C96.9325 182.592 96.9243 182.582 96.9111 182.576C96.8941 182.567 96.8784 182.566 96.8634 182.571C96.849 182.575 96.8365 182.584 96.8271 182.6L96.9327 182.652Z" fill="white" fill-opacity="0.4"/>
<path d="M97.1744 182.823C97.1555 182.814 97.1404 182.811 97.1292 182.813C97.1179 182.814 97.1097 182.821 97.1041 182.832C97.0991 182.842 97.0979 182.852 97.1017 182.862C97.1055 182.87 97.1143 182.878 97.1282 182.885C97.1433 182.892 97.1583 182.893 97.1734 182.888C97.1903 182.883 97.2037 182.871 97.2121 182.854L97.2171 182.844L97.1744 182.823ZM97.3125 182.854L97.2403 183L97.1598 182.96L97.1785 182.922C97.1591 182.931 97.1406 182.937 97.1234 182.939C97.1064 182.938 97.0882 182.934 97.0681 182.924C97.0411 182.91 97.0228 182.892 97.0139 182.869C97.005 182.844 97.0075 182.819 97.0199 182.793C97.0349 182.763 97.0555 182.747 97.0825 182.743C97.1104 182.74 97.1465 182.75 97.1905 182.772L97.2408 182.796L97.2445 182.789C97.251 182.776 97.2494 182.763 97.2406 182.752C97.2337 182.741 97.2192 182.729 97.1978 182.719C97.1808 182.71 97.1642 182.704 97.1475 182.7C97.1306 182.696 97.1136 182.694 97.0973 182.694L97.1285 182.631C97.1464 182.636 97.1652 182.642 97.185 182.65C97.2048 182.656 97.2233 182.663 97.2403 182.671C97.2868 182.694 97.3161 182.72 97.3272 182.748C97.3379 182.777 97.3331 182.812 97.3125 182.854L97.3125 182.854Z" fill="white" fill-opacity="0.4"/>
<path d="M97.57 182.751L97.5339 182.824L97.6194 182.867L97.5907 182.925L97.5052 182.882L97.4517 182.99C97.4448 183.004 97.443 183.014 97.4455 183.022C97.4487 183.028 97.4569 183.034 97.4707 183.04L97.5134 183.062L97.4848 183.119L97.4144 183.085C97.3823 183.069 97.3628 183.051 97.3565 183.031C97.3492 183.011 97.3544 182.984 97.3712 182.95L97.4248 182.842L97.382 182.821L97.4107 182.763L97.4534 182.785L97.4895 182.712L97.57 182.751Z" fill="white" fill-opacity="0.4"/>
<path d="M97.8638 183.148L97.8525 183.17L97.6589 183.075C97.6527 183.095 97.6534 183.112 97.6604 183.128C97.6667 183.144 97.6812 183.158 97.7032 183.168C97.7196 183.177 97.7384 183.183 97.7598 183.187C97.7805 183.191 97.8024 183.193 97.8263 183.192L97.7951 183.255C97.7716 183.252 97.749 183.247 97.7273 183.24C97.706 183.236 97.6865 183.229 97.6683 183.22C97.6211 183.197 97.5896 183.167 97.5751 183.13C97.5624 183.092 97.5663 183.053 97.5872 183.011C97.6077 182.969 97.6365 182.943 97.6735 182.931C97.7111 182.919 97.7525 182.924 97.7977 182.946C97.838 182.966 97.8632 182.994 97.8746 183.031C97.8879 183.067 97.8843 183.106 97.8638 183.148L97.8638 183.148ZM97.792 183.078C97.8001 183.061 97.8013 183.046 97.7956 183.033C97.7917 183.018 97.7835 183.008 97.7703 183.001C97.7534 182.993 97.7377 182.991 97.7226 182.996C97.7082 183 97.6957 183.01 97.6864 183.025L97.792 183.078Z" fill="white" fill-opacity="0.4"/>
<path d="M98.1467 183.174L98.2152 183.035L98.2982 183.076L98.1214 183.433L98.0384 183.392L98.0571 183.355C98.0395 183.365 98.021 183.371 98.0019 183.371C97.985 183.371 97.968 183.367 97.9517 183.359C97.9196 183.343 97.8988 183.317 97.8899 183.281C97.8822 183.246 97.8884 183.209 97.9083 183.168C97.9282 183.128 97.9545 183.1 97.987 183.085C98.0208 183.071 98.0541 183.071 98.0862 183.087C98.1025 183.095 98.1154 183.107 98.1252 183.122C98.1369 183.137 98.1441 183.154 98.1467 183.174L98.1467 183.174ZM98.0117 183.313C98.0281 183.322 98.0435 183.322 98.0582 183.315C98.0748 183.306 98.0894 183.289 98.1019 183.264C98.1144 183.239 98.1184 183.218 98.1142 183.201C98.1119 183.184 98.1028 183.171 98.0865 183.163C98.0676 183.153 98.0503 183.153 98.0337 183.162C98.019 183.169 98.0062 183.185 97.9938 183.211C97.9813 183.236 97.9754 183.257 97.9777 183.275C97.9819 183.292 97.9929 183.304 98.0117 183.313V183.313Z" fill="white" fill-opacity="0.4"/>
<path d="M98.519 183.568C98.5373 183.577 98.5533 183.578 98.568 183.57C98.5846 183.562 98.5993 183.545 98.6117 183.52C98.6242 183.495 98.6282 183.474 98.624 183.457C98.6218 183.439 98.612 183.426 98.5938 183.417C98.5768 183.409 98.5602 183.409 98.5436 183.417C98.5276 183.424 98.5135 183.44 98.5011 183.465C98.4892 183.489 98.4852 183.51 98.4888 183.528C98.492 183.547 98.5021 183.559 98.519 183.568L98.519 183.568ZM98.5459 183.374C98.5647 183.365 98.5826 183.36 98.5998 183.36C98.6189 183.36 98.6368 183.363 98.6538 183.372C98.6852 183.387 98.7054 183.413 98.7131 183.448C98.7207 183.483 98.7146 183.521 98.6947 183.561C98.6748 183.601 98.6485 183.629 98.6159 183.644C98.5834 183.659 98.5507 183.659 98.5193 183.643C98.5023 183.635 98.4885 183.623 98.4765 183.609C98.4667 183.594 98.4601 183.576 98.4562 183.555L98.4376 183.593L98.3571 183.553L98.5339 183.196L98.6144 183.236L98.5459 183.374Z" fill="white" fill-opacity="0.4"/>
<path d="M98.7899 183.446L98.8729 183.487L98.8549 183.695L99.0011 183.551L99.0841 183.592L98.8365 183.82C98.8106 183.842 98.7877 183.855 98.7676 183.858C98.7482 183.862 98.7269 183.86 98.7036 183.848L98.6558 183.825L98.682 183.772L98.7071 183.784C98.7203 183.791 98.7316 183.793 98.741 183.792C98.7492 183.791 98.7579 183.786 98.7673 183.776L98.7736 183.77L98.7899 183.446Z" fill="white" fill-opacity="0.4"/>
<path d="M99.3928 183.72L99.2894 183.929L99.3221 183.945C99.3573 183.963 99.3878 183.968 99.415 183.96C99.4442 183.952 99.467 183.931 99.4838 183.897C99.5012 183.862 99.5046 183.831 99.4947 183.805C99.4849 183.778 99.4619 183.755 99.4255 183.736L99.3928 183.72ZM99.3372 183.611L99.4302 183.657C99.4817 183.683 99.5185 183.707 99.5396 183.727C99.5626 183.747 99.5793 183.77 99.5901 183.796C99.5977 183.819 99.5997 183.842 99.5966 183.865C99.5948 183.889 99.5874 183.915 99.5743 183.942C99.5619 183.967 99.5463 183.987 99.5281 184.003C99.5113 184.02 99.4912 184.034 99.468 184.043C99.4408 184.05 99.4119 184.052 99.3815 184.047C99.3529 184.041 99.3124 184.025 99.2608 183.999L99.1678 183.953L99.3372 183.611Z" fill="white" fill-opacity="0.4"/>
<path d="M99.7773 184.001C99.7603 183.993 99.7437 183.993 99.7271 184.001C99.7111 184.008 99.6971 184.024 99.6846 184.049C99.6722 184.074 99.6675 184.096 99.6711 184.115C99.6752 184.131 99.6856 184.144 99.7026 184.152C99.7208 184.161 99.7368 184.162 99.7515 184.154C99.7681 184.146 99.7828 184.129 99.7953 184.104C99.8077 184.079 99.8117 184.058 99.8076 184.041C99.8053 184.024 99.7955 184.01 99.7773 184.001ZM99.8072 183.941C99.8525 183.963 99.8802 183.993 99.8916 184.03C99.9049 184.066 99.9013 184.105 99.8808 184.146C99.8599 184.188 99.8308 184.216 99.7932 184.228C99.7575 184.24 99.718 184.235 99.6727 184.212C99.6287 184.191 99.6003 184.162 99.587 184.126C99.5743 184.089 99.5783 184.049 99.5991 184.007C99.6197 183.965 99.6484 183.939 99.6854 183.927C99.723 183.915 99.7632 183.919 99.8072 183.941Z" fill="white" fill-opacity="0.4"/>
<path d="M100.099 184.162C100.082 184.154 100.066 184.154 100.049 184.163C100.033 184.169 100.019 184.185 100.007 184.21C99.9941 184.235 99.9894 184.257 99.993 184.276C99.9971 184.293 100.008 184.305 100.024 184.313C100.043 184.322 100.059 184.323 100.073 184.316C100.09 184.307 100.105 184.29 100.117 184.265C100.13 184.24 100.134 184.219 100.129 184.202C100.127 184.185 100.117 184.171 100.099 184.162ZM100.129 184.102C100.174 184.124 100.202 184.154 100.214 184.191C100.227 184.227 100.223 184.266 100.203 184.307C100.182 184.35 100.153 184.377 100.115 184.389C100.079 184.401 100.04 184.396 99.9946 184.374C99.9506 184.352 99.9222 184.324 99.9089 184.287C99.8962 184.25 99.9002 184.21 99.921 184.168C99.9416 184.127 99.9703 184.1 100.007 184.089C100.045 184.076 100.085 184.08 100.129 184.102Z" fill="white" fill-opacity="0.4"/>
<path d="M100.484 184.332L100.552 184.194L100.635 184.235L100.458 184.592L100.375 184.551L100.394 184.513C100.376 184.523 100.358 184.529 100.339 184.529C100.322 184.529 100.305 184.525 100.288 184.517C100.256 184.501 100.236 184.475 100.227 184.439C100.219 184.404 100.225 184.367 100.245 184.326C100.265 184.286 100.291 184.259 100.324 184.243C100.358 184.229 100.391 184.23 100.423 184.245C100.439 184.254 100.452 184.265 100.462 184.28C100.474 184.295 100.481 184.312 100.484 184.332L100.484 184.332ZM100.349 184.472C100.365 184.48 100.38 184.48 100.395 184.473C100.412 184.464 100.426 184.447 100.439 184.422C100.451 184.397 100.455 184.376 100.451 184.36C100.449 184.342 100.44 184.329 100.423 184.321C100.404 184.311 100.387 184.311 100.371 184.32C100.356 184.327 100.343 184.344 100.331 184.369C100.318 184.394 100.312 184.415 100.315 184.433C100.319 184.45 100.33 184.462 100.349 184.472V184.472Z" fill="white" fill-opacity="0.4"/>
<path d="M100.857 184.63L100.845 184.653L100.652 184.557C100.646 184.577 100.646 184.595 100.653 184.611C100.66 184.627 100.674 184.64 100.696 184.651C100.712 184.659 100.731 184.665 100.753 184.669C100.773 184.673 100.795 184.675 100.819 184.674L100.788 184.737C100.764 184.734 100.742 184.729 100.72 184.722C100.699 184.718 100.679 184.711 100.661 184.702C100.614 184.679 100.582 184.649 100.568 184.612C100.555 184.575 100.559 184.535 100.58 184.493C100.601 184.452 100.629 184.425 100.666 184.414C100.704 184.401 100.745 184.406 100.791 184.428C100.831 184.448 100.856 184.476 100.867 184.513C100.881 184.55 100.877 184.589 100.857 184.63L100.857 184.63ZM100.785 184.56C100.793 184.544 100.794 184.529 100.788 184.515C100.785 184.501 100.776 184.49 100.763 184.484C100.746 184.475 100.73 184.474 100.715 184.479C100.701 184.483 100.689 184.492 100.679 184.508L100.785 184.56Z" fill="white" fill-opacity="0.4"/>
<path d="M101.141 184.698C101.134 184.69 101.128 184.684 101.122 184.679C101.116 184.675 101.11 184.67 101.103 184.667C101.081 184.656 101.061 184.654 101.043 184.662C101.024 184.67 101.009 184.686 100.997 184.711L100.938 184.829L100.858 184.789L100.985 184.533L101.065 184.573L101.044 184.616C101.065 184.603 101.083 184.597 101.101 184.596C101.118 184.595 101.136 184.598 101.155 184.608C101.158 184.609 101.16 184.612 101.164 184.615L101.179 184.623L101.141 184.698Z" fill="white" fill-opacity="0.4"/>
<path d="M96.2188 182.635L96.1926 182.687L96.1474 182.665C96.1354 182.659 96.126 182.657 96.1185 182.66C96.1128 182.662 96.1079 182.669 96.1023 182.68L96.0935 182.698L96.1614 182.731L96.1328 182.789L96.0649 182.756L95.9665 182.954L95.8835 182.913L95.9819 182.714L95.9417 182.695L95.9703 182.637L96.0106 182.657L96.0193 182.639C96.0333 182.611 96.0511 182.594 96.073 182.587C96.0947 182.582 96.122 182.587 96.1559 182.603L96.2188 182.635Z" fill="white" fill-opacity="0.4"/>
<path d="M96.3649 182.918C96.3576 182.91 96.3513 182.904 96.346 182.899C96.3397 182.894 96.3334 182.89 96.3271 182.886C96.3051 182.876 96.2847 182.874 96.2669 182.882C96.2481 182.89 96.2331 182.906 96.2206 182.931L96.1621 183.049L96.0816 183.009L96.2087 182.753L96.2891 182.793L96.268 182.835C96.2883 182.823 96.3071 182.816 96.3244 182.816C96.3416 182.815 96.3595 182.818 96.3784 182.827C96.3815 182.829 96.384 182.832 96.3872 182.835L96.4023 182.842L96.3649 182.918Z" fill="white" fill-opacity="0.4"/>
<path d="M96.534 182.98C96.517 182.971 96.5004 182.972 96.4838 182.98C96.4678 182.987 96.4538 183.003 96.4413 183.028C96.4289 183.053 96.4243 183.075 96.4278 183.093C96.4319 183.11 96.4423 183.122 96.4593 183.131C96.4775 183.14 96.4935 183.14 96.5082 183.133C96.5248 183.125 96.5395 183.108 96.552 183.083C96.5644 183.057 96.5684 183.037 96.5643 183.02C96.562 183.002 96.5522 182.989 96.534 182.98ZM96.5639 182.919C96.6092 182.942 96.6369 182.971 96.6483 183.008C96.6616 183.044 96.658 183.083 96.6375 183.125C96.6166 183.167 96.5875 183.194 96.5499 183.207C96.5142 183.219 96.4747 183.213 96.4294 183.191C96.3854 183.169 96.3571 183.141 96.3438 183.105C96.3311 183.067 96.335 183.028 96.3558 182.985C96.3764 182.944 96.4052 182.917 96.4421 182.906C96.4797 182.893 96.5199 182.898 96.5639 182.919Z" fill="white" fill-opacity="0.4"/>
<path d="M96.9741 183.187C96.9936 183.176 97.0124 183.17 97.0305 183.168C97.0497 183.167 97.0676 183.171 97.0845 183.179C97.1147 183.194 97.1327 183.215 97.1387 183.24C97.1445 183.267 97.1389 183.297 97.1215 183.332L97.0443 183.488L96.9613 183.447L97.0273 183.313L97.0311 183.306L97.0348 183.298C97.0438 183.28 97.0479 183.266 97.0472 183.254C97.0462 183.244 97.0396 183.235 97.0283 183.229C97.0132 183.222 96.9972 183.223 96.9806 183.231C96.9659 183.238 96.9531 183.255 96.9406 183.28L96.8783 183.406L96.7954 183.365L96.8614 183.231C96.8754 183.203 96.8819 183.183 96.8812 183.172C96.8815 183.162 96.8755 183.154 96.8623 183.147C96.8472 183.14 96.8312 183.14 96.8146 183.149C96.7999 183.156 96.7871 183.173 96.7747 183.198L96.7124 183.323L96.6319 183.284L96.759 183.027L96.8394 183.067L96.8207 183.105C96.8383 183.095 96.8549 183.089 96.8721 183.089C96.8894 183.088 96.906 183.091 96.9211 183.098C96.9393 183.107 96.9529 183.119 96.9627 183.134C96.9715 183.15 96.9753 183.167 96.9741 183.187L96.9741 183.187Z" fill="white" fill-opacity="0.4"/>
<path d="M97.537 183.321L97.5009 183.394L97.5864 183.436L97.5578 183.494L97.4723 183.452L97.4187 183.56C97.4119 183.573 97.41 183.584 97.4126 183.591C97.4157 183.597 97.4239 183.603 97.4377 183.61L97.4805 183.631L97.4518 183.689L97.3814 183.654C97.3494 183.638 97.3299 183.621 97.3235 183.6C97.3162 183.58 97.3214 183.554 97.3383 183.52L97.3918 183.412L97.3491 183.391L97.3777 183.333L97.4204 183.354L97.4566 183.281L97.537 183.321Z" fill="white" fill-opacity="0.4"/>
<path d="M97.8467 183.69L97.7695 183.846L97.6865 183.805L97.7451 183.686C97.7566 183.663 97.7631 183.647 97.7662 183.637C97.7684 183.628 97.7693 183.622 97.7699 183.617C97.7693 183.609 97.7677 183.603 97.7636 183.598C97.7601 183.593 97.7541 183.588 97.7459 183.584C97.729 183.575 97.7123 183.575 97.6957 183.584C97.6788 183.593 97.6648 183.608 97.6533 183.632L97.591 183.757L97.5105 183.717L97.6874 183.36L97.7678 183.4L97.6993 183.538C97.72 183.53 97.7385 183.526 97.7558 183.526C97.773 183.524 97.7903 183.527 97.8073 183.536C97.8374 183.551 97.8554 183.571 97.8614 183.597C97.8684 183.624 97.8642 183.655 97.8467 183.69L97.8467 183.69Z" fill="white" fill-opacity="0.4"/>
<path d="M98.1655 183.883L98.1543 183.906L97.9607 183.81C97.9545 183.83 97.9552 183.848 97.9622 183.864C97.9685 183.879 97.983 183.893 98.005 183.904C98.0213 183.912 98.0402 183.918 98.0615 183.922C98.0822 183.926 98.1042 183.928 98.128 183.927L98.0969 183.99C98.0734 183.987 98.0508 183.982 98.0291 183.975C98.0077 183.971 97.9883 183.964 97.97 183.955C97.9229 183.932 97.8914 183.902 97.8768 183.865C97.8641 183.828 97.8681 183.788 97.8889 183.746C97.9095 183.705 97.9382 183.678 97.9752 183.667C98.0128 183.654 98.0542 183.659 98.0995 183.681C98.1397 183.701 98.1649 183.729 98.1764 183.766C98.1897 183.803 98.1861 183.842 98.1655 183.883L98.1655 183.883ZM98.0937 183.813C98.1018 183.797 98.103 183.782 98.0973 183.768C98.0935 183.754 98.0853 183.743 98.0721 183.737C98.0551 183.728 98.0394 183.727 98.0244 183.732C98.01 183.736 97.9975 183.745 97.9881 183.761L98.0937 183.813Z" fill="white" fill-opacity="0.4"/>
<path d="M98.498 183.781L98.5961 183.83L98.606 184.126L98.7218 183.892L98.8048 183.933L98.6354 184.275L98.5374 184.227L98.5287 183.928L98.4117 184.164L98.3287 184.123L98.498 183.781Z" fill="white" fill-opacity="0.4"/>
<path d="M98.9387 184.173C98.9217 184.165 98.9051 184.165 98.8885 184.173C98.8725 184.18 98.8585 184.196 98.846 184.221C98.8335 184.246 98.8289 184.268 98.8324 184.286C98.8366 184.303 98.847 184.316 98.864 184.324C98.8822 184.333 98.8982 184.334 98.9129 184.326C98.9295 184.318 98.9442 184.301 98.9566 184.276C98.9691 184.251 98.9731 184.23 98.9689 184.213C98.9667 184.196 98.9569 184.182 98.9387 184.173ZM98.9686 184.113C99.0138 184.135 99.0415 184.165 99.053 184.201C99.0663 184.238 99.0627 184.277 99.0421 184.318C99.0213 184.36 98.9922 184.387 98.9546 184.4C98.9189 184.412 98.8793 184.407 98.8341 184.384C98.7901 184.362 98.7617 184.334 98.7484 184.298C98.7357 184.26 98.7397 184.221 98.7605 184.179C98.7811 184.137 98.8098 184.111 98.8468 184.099C98.8844 184.087 98.9246 184.091 98.9686 184.113Z" fill="white" fill-opacity="0.4"/>
<path d="M99.0901 184.374L99.1674 184.218L99.2478 184.258L99.2354 184.283L99.2092 184.336L99.188 184.378C99.1781 184.398 99.1712 184.414 99.1681 184.425C99.165 184.434 99.1641 184.441 99.1645 184.445C99.1651 184.452 99.1673 184.458 99.1708 184.464C99.1752 184.471 99.1815 184.475 99.1884 184.479C99.2048 184.487 99.2217 184.487 99.2386 184.479C99.2552 184.47 99.2693 184.455 99.2811 184.431L99.3434 184.305L99.4238 184.345L99.2968 184.601L99.2163 184.561L99.235 184.524C99.2137 184.532 99.1946 184.537 99.1774 184.539C99.1604 184.538 99.1435 184.535 99.1271 184.527C99.0969 184.512 99.0787 184.492 99.0729 184.465C99.0669 184.44 99.0727 184.409 99.0901 184.374L99.0901 184.374Z" fill="white" fill-opacity="0.4"/>
<path d="M99.7119 184.612L99.6347 184.768L99.5517 184.727L99.6115 184.606C99.6221 184.585 99.6283 184.569 99.6314 184.56C99.6336 184.551 99.6345 184.544 99.6351 184.54C99.6344 184.532 99.6328 184.525 99.6287 184.521C99.6253 184.515 99.6193 184.51 99.6111 184.506C99.5941 184.498 99.5775 184.498 99.5609 184.506C99.544 184.515 99.53 184.531 99.5184 184.554L99.4562 184.68L99.3757 184.64L99.5027 184.384L99.5832 184.423L99.5645 184.461C99.5852 184.453 99.6037 184.448 99.6209 184.448C99.6382 184.447 99.6555 184.45 99.6724 184.458C99.7026 184.473 99.7206 184.494 99.7266 184.519C99.7336 184.546 99.7293 184.577 99.7119 184.612L99.7119 184.612Z" fill="white" fill-opacity="0.4"/>
<path d="M100.044 184.546L100.192 184.619C100.236 184.641 100.263 184.667 100.275 184.698C100.289 184.728 100.288 184.761 100.271 184.796C100.252 184.833 100.226 184.855 100.193 184.864C100.162 184.872 100.125 184.865 100.081 184.843L100.021 184.813L99.9625 184.931L99.8745 184.888L100.044 184.546ZM100.101 184.652L100.053 184.748L100.104 184.773C100.12 184.781 100.134 184.783 100.148 184.779C100.162 184.776 100.173 184.766 100.18 184.751C100.188 184.736 100.188 184.722 100.182 184.709C100.178 184.696 100.167 184.685 100.151 184.677L100.101 184.652Z" fill="white" fill-opacity="0.4"/>
<path d="M100.501 184.968C100.493 184.96 100.487 184.954 100.482 184.949C100.475 184.944 100.469 184.939 100.463 184.936C100.441 184.925 100.42 184.924 100.403 184.932C100.384 184.939 100.369 184.955 100.356 184.981L100.298 185.099L100.217 185.059L100.344 184.802L100.425 184.842L100.404 184.885C100.424 184.872 100.443 184.866 100.46 184.866C100.477 184.864 100.495 184.868 100.514 184.877C100.517 184.879 100.52 184.881 100.523 184.885L100.538 184.892L100.501 184.968Z" fill="white" fill-opacity="0.4"/>
<path d="M100.674 185.029C100.657 185.021 100.64 185.021 100.624 185.03C100.608 185.037 100.594 185.052 100.581 185.078C100.569 185.103 100.564 185.125 100.568 185.143C100.572 185.16 100.582 185.172 100.599 185.18C100.618 185.189 100.634 185.19 100.648 185.183C100.665 185.174 100.68 185.157 100.692 185.132C100.704 185.107 100.708 185.086 100.704 185.07C100.702 185.052 100.692 185.039 100.674 185.029ZM100.704 184.969C100.749 184.992 100.777 185.021 100.788 185.058C100.802 185.094 100.798 185.133 100.777 185.175C100.757 185.217 100.728 185.244 100.69 185.257C100.654 185.269 100.615 185.263 100.569 185.241C100.525 185.219 100.497 185.191 100.484 185.154C100.471 185.117 100.475 185.077 100.496 185.035C100.516 184.994 100.545 184.967 100.582 184.956C100.62 184.943 100.66 184.947 100.704 184.969Z" fill="white" fill-opacity="0.4"/>
<path d="M100.899 185.076L100.979 185.116L100.855 185.368C100.837 185.403 100.815 185.424 100.791 185.433C100.767 185.444 100.738 185.441 100.707 185.426L100.666 185.406L100.693 185.353L100.705 185.359C100.721 185.367 100.735 185.369 100.743 185.365C100.753 185.362 100.763 185.349 100.774 185.328L100.899 185.076ZM100.948 184.976L101.029 185.015L100.995 185.083L100.915 185.044L100.948 184.976Z" fill="white" fill-opacity="0.4"/>
<path d="M101.254 185.41L101.243 185.433L101.049 185.337C101.043 185.358 101.044 185.375 101.051 185.391C101.057 185.407 101.072 185.42 101.094 185.431C101.11 185.439 101.129 185.445 101.15 185.45C101.171 185.454 101.193 185.455 101.217 185.455L101.186 185.517C101.162 185.514 101.14 185.509 101.118 185.503C101.096 185.498 101.077 185.492 101.059 185.483C101.012 185.459 100.98 185.43 100.966 185.393C100.953 185.355 100.957 185.316 100.978 185.273C100.998 185.232 101.027 185.206 101.064 185.194C101.102 185.181 101.143 185.186 101.188 185.209C101.228 185.229 101.254 185.257 101.265 185.294C101.278 185.33 101.275 185.369 101.254 185.41L101.254 185.41ZM101.182 185.34C101.191 185.324 101.192 185.309 101.186 185.295C101.182 185.281 101.174 185.271 101.161 185.264C101.144 185.256 101.128 185.254 101.113 185.259C101.099 185.263 101.086 185.272 101.077 185.288L101.182 185.34Z" fill="white" fill-opacity="0.4"/>
<path d="M101.583 185.423L101.549 185.491C101.543 185.478 101.534 185.467 101.525 185.457C101.515 185.448 101.504 185.44 101.492 185.435C101.468 185.423 101.447 185.421 101.427 185.427C101.408 185.435 101.394 185.451 101.382 185.474C101.37 185.498 101.367 185.519 101.372 185.538C101.379 185.558 101.394 185.574 101.418 185.586C101.431 185.592 101.443 185.597 101.455 185.598C101.468 185.6 101.482 185.6 101.497 185.597L101.463 185.664C101.449 185.664 101.434 185.66 101.42 185.656C101.405 185.652 101.391 185.647 101.378 185.641C101.33 185.618 101.299 185.588 101.284 185.551C101.272 185.513 101.276 185.474 101.297 185.432C101.317 185.39 101.346 185.364 101.383 185.352C101.422 185.34 101.465 185.346 101.512 185.369C101.525 185.376 101.538 185.384 101.55 185.394C101.562 185.403 101.573 185.412 101.583 185.423L101.583 185.423Z" fill="white" fill-opacity="0.4"/>
<path d="M101.779 185.421L101.743 185.494L101.828 185.537L101.8 185.594L101.714 185.552L101.661 185.66C101.654 185.674 101.652 185.684 101.654 185.692C101.658 185.698 101.666 185.704 101.68 185.71L101.722 185.732L101.694 185.789L101.623 185.755C101.591 185.739 101.572 185.721 101.565 185.701C101.558 185.681 101.563 185.654 101.58 185.62L101.634 185.512L101.591 185.491L101.62 185.433L101.662 185.454L101.698 185.382L101.779 185.421Z" fill="white" fill-opacity="0.4"/>
<defs>
<radialGradient id="paint0_radial_160_1941" cx="0" cy="0" r="1" gradientUnits="userSpaceOnUse" gradientTransform="translate(302.5 241.5) rotate(90) scale(10.5)">
<stop stop-color="#8DA5ED"/>
<stop offset="1" stop-color="#8DA5ED" stop-opacity="0"/>
</radialGradient>
<radialGradient id="paint1_radial_160_1941" cx="0" cy="0" r="1" gradientUnits="userSpaceOnUse" gradientTransform="translate(114.5 131.5) rotate(90) scale(11.5)">
<stop stop-color="#8DA5ED"/>
<stop offset="1" stop-color="#8DA5ED" stop-opacity="0"/>
</radialGradient>
</defs>
<circle cx="302.5" cy="241.5" r="10.5" fill="url(#paint0_radial_160_1941)"/>
<circle cx="114.5" cy="131.5" r="11.5" fill="url(#paint1_radial_160_1941)"/>
<path d="M139 54.5C139 60.299 134.299 65 128.5 65C122.701 65 118 60.299 118 54.5C118 48.701 122.701 44 128.5 44C134.299 44 139 48.701 139 54.5ZM120.195 54.5C120.195 59.0865 123.914 62.8045 128.5 62.8045C133.086 62.8045 136.805 59.0865 136.805 54.5C136.805 49.9135 133.086 46.1955 128.5 46.1955C123.914 46.1955 120.195 49.9135 120.195 54.5Z" fill="white" fill-opacity="0.4"/>
<path d="M376 1V126.592C376 126.592 320 109.5 294.5 85C270.034 61.4931 269 1.5 269 1.5L376 1Z" stroke="white"/>
<path d="M64.5 148.5C64.5 148.5 80.8359 206.265 64.5 236.5C50.1133 263.128 2.5 283 2.5 283L1 283.5" stroke="white"/>

</svg>
