<svg width="24" height="24" viewBox="0 0 24 24" fill="none" xmlns="http://www.w3.org/2000/svg">
<path d="M17.5 4.5C15.55 4.5 13.45 4.9 12 6C10.55 4.9 8.45 4.5 6.5 4.5C5.05 4.5 3.51 4.72 2.22 5.29C1.49 5.62 1 6.33 1 7.14V18.42C1 19.72 2.22 20.68 3.48 20.36C4.46 20.11 5.5 20 6.5 20C8.06 20 9.72 20.26 11.06 20.92C11.66 21.22 12.34 21.22 12.93 20.92C14.27 20.25 15.93 20 17.49 20C18.49 20 19.53 20.11 20.51 20.36C21.77 20.69 22.99 19.73 22.99 18.42V7.14C22.99 6.33 22.5 5.62 21.77 5.29C20.49 4.72 18.95 4.5 17.5 4.5V4.5ZM21 17.23C21 17.86 20.42 18.32 19.8 18.21C19.05 18.07 18.27 18.01 17.5 18.01C15.8 18.01 13.35 18.66 12 19.51V8C13.35 7.15 15.8 6.5 17.5 6.5C18.42 6.5 19.33 6.59 20.2 6.78C20.66 6.88 21 7.29 21 7.76V17.23Z" fill="#CEA73D"/>
<path d="M13.9799 11.0099C13.6599 11.0099 13.3699 10.8099 13.2699 10.4899C13.1399 10.0999 13.3599 9.66986 13.7499 9.54986C15.2899 9.04986 17.2799 8.88986 19.1099 9.09986C19.5199 9.14986 19.8199 9.51986 19.7699 9.92986C19.7199 10.3399 19.3499 10.6399 18.9399 10.5899C17.3199 10.3999 15.5499 10.5499 14.2099 10.9799C14.1299 10.9899 14.0499 11.0099 13.9799 11.0099V11.0099ZM13.9799 13.6699C13.6599 13.6699 13.3699 13.4699 13.2699 13.1499C13.1399 12.7599 13.3599 12.3299 13.7499 12.2099C15.2799 11.7099 17.2799 11.5499 19.1099 11.7599C19.5199 11.8099 19.8199 12.1799 19.7699 12.5899C19.7199 12.9999 19.3499 13.2999 18.9399 13.2499C17.3199 13.0599 15.5499 13.2099 14.2099 13.6399C14.1347 13.659 14.0575 13.6691 13.9799 13.6699V13.6699ZM13.9799 16.3299C13.6599 16.3299 13.3699 16.1299 13.2699 15.8099C13.1399 15.4199 13.3599 14.9899 13.7499 14.8699C15.2799 14.3699 17.2799 14.2099 19.1099 14.4199C19.5199 14.4699 19.8199 14.8399 19.7699 15.2499C19.7199 15.6599 19.3499 15.9499 18.9399 15.9099C17.3199 15.7199 15.5499 15.8699 14.2099 16.2999C14.1347 16.319 14.0575 16.3291 13.9799 16.3299V16.3299Z" fill="#CEA73D"/>
</svg>
