<svg width="174" height="82" viewBox="0 0 174 82" fill="none" xmlns="http://www.w3.org/2000/svg">
<g filter="url(#filter0_d_74_6176)">
<rect x="5.00003" y="4" width="163.5" height="72" rx="8" fill="#9EAA54"/>
</g>
<mask id="mask0_74_6176" style="mask-type:alpha" maskUnits="userSpaceOnUse" x="5" y="4" width="164" height="72">
<rect x="5.00003" y="4" width="163.5" height="72" rx="8" fill="#9EAA54"/>
</mask>
<g mask="url(#mask0_74_6176)">
<path d="M56.9292 76.5672C58.7464 72.4335 61.3599 68.6982 64.6207 65.5745C67.8814 62.4508 71.7255 60 75.9334 58.362C80.1413 56.7239 84.6307 55.9307 89.1451 56.0276C93.6596 56.1245 98.1108 57.1097 102.244 58.9269C106.378 60.744 110.114 63.3576 113.237 66.6183C116.361 69.8791 118.812 73.7232 120.45 77.9311C122.088 82.139 122.881 86.6283 122.784 91.1428C122.687 95.6573 121.702 100.108 119.885 104.242L118.816 103.772C120.571 99.7789 121.523 95.4789 121.617 91.1177C121.71 86.7566 120.944 82.4197 119.362 78.3547C117.779 74.2897 115.412 70.5762 112.394 67.4262C109.376 64.2762 105.768 61.7514 101.775 59.9959C97.7812 58.2405 93.4812 57.2887 89.1201 57.1951C84.7589 57.1015 80.422 57.8677 76.357 59.4502C72.292 61.0326 68.5785 63.4002 65.4285 66.4178C62.2785 69.4354 59.7537 73.0438 57.9982 77.0372L56.9292 76.5672Z" fill="white" fill-opacity="0.7"/>
</g>
<path d="M5 69.5001V11C5 11 36.5 11.0001 37.5 39.0001C38.5 67.0001 5 69.5001 5 69.5001Z" fill="#859335"/>
<path d="M28.4958 24C27.155 24 26.0134 24.8716 25.5829 26.0714H17.105C15.4017 26.0714 14 27.4731 14 29.1764V43.6803C14 45.3836 15.4017 46.7832 17.105 46.7832H25.393V50.928L21.2481 50.9283C19.8966 50.9558 19.8966 52.9705 21.2481 52.9997H35.752C37.1631 53.0309 37.1631 50.8977 35.752 50.9283H31.6094V46.7834H39.8974C41.6007 46.7834 43.0005 45.3839 43.0005 43.6805V29.1766C43.0005 27.4733 41.601 26.0716 39.8974 26.0716L31.4171 26.0714C30.9848 24.8716 29.837 24 28.4963 24H28.4958ZM28.4958 26.0714C29.078 26.0714 29.5302 26.518 29.5336 27.099V27.1147C29.529 27.6947 29.0773 28.1465 28.4958 28.1465C27.9174 28.1465 27.477 27.6987 27.4683 27.1228C27.4685 27.111 27.4685 27.0992 27.4683 27.0877C27.4791 26.5141 27.9188 26.0742 28.4958 26.0742V26.0714ZM17.1056 28.1448H25.5876C26.0204 29.3423 27.1587 30.2162 28.4965 30.2162C29.8342 30.2162 30.9787 29.3423 31.4134 28.1448H39.8972C40.4888 28.1448 40.929 28.5848 40.929 29.1766V43.6805C40.929 44.2721 40.489 44.7123 39.8972 44.7123L31.6098 44.7121H17.106C16.5144 44.7121 16.0742 44.2721 16.0742 43.6803V29.1764C16.0742 28.5848 16.5141 28.1446 17.106 28.1446L17.1056 28.1448ZM27.4648 46.7833H29.5362V50.9281H27.4648V46.7833Z" fill="white"/>
<path d="M25.3252 31.1225C24.0706 31.1461 22.8546 31.4979 21.8075 32.1156C21.4903 32.3015 21.2954 32.642 21.2957 33.0098V41.4735C21.2927 42.2491 22.112 42.7529 22.8028 42.4001C24.6238 41.4698 26.2517 41.4693 28.0723 42.398C28.3941 42.5917 28.693 42.5878 29.0211 42.398C30.8416 41.4694 32.4696 41.4698 34.2906 42.4001C34.9814 42.7529 35.8007 42.2493 35.7977 41.4735V33.0098C35.7979 32.6418 35.603 32.3017 35.2859 32.1156C34.2389 31.4979 33.0228 31.1452 31.7682 31.1225C30.6927 31.1028 29.5948 31.3444 28.5457 31.8549C27.4971 31.3451 26.4001 31.1024 25.3254 31.1225H25.3252ZM25.3798 32.8864C26.0795 32.8786 26.799 33.0277 27.5099 33.3476V39.9986C26.1292 39.6016 24.7477 39.6014 23.3671 39.9986V33.3476C23.9982 33.0533 24.6795 32.8943 25.3798 32.8864ZM31.7135 32.8864C32.4137 32.8943 33.095 33.0531 33.7261 33.3476V39.9986C32.3455 39.6014 30.964 39.6016 29.5834 39.9986V33.3476C30.2943 33.0274 31.0137 32.88 31.7135 32.8864Z" fill="white"/>
<defs>
<filter id="filter0_d_74_6176" x="3.05176e-05" y="0" width="173.5" height="82" filterUnits="userSpaceOnUse" color-interpolation-filters="sRGB">
<feFlood flood-opacity="0" result="BackgroundImageFix"/>
<feColorMatrix in="SourceAlpha" type="matrix" values="0 0 0 0 0 0 0 0 0 0 0 0 0 0 0 0 0 0 127 0" result="hardAlpha"/>
<feOffset dy="1"/>
<feGaussianBlur stdDeviation="2.5"/>
<feComposite in2="hardAlpha" operator="out"/>
<feColorMatrix type="matrix" values="0 0 0 0 0 0 0 0 0 0 0 0 0 0 0 0 0 0 0.25 0"/>
<feBlend mode="normal" in2="BackgroundImageFix" result="effect1_dropShadow_74_6176"/>
<feBlend mode="normal" in="SourceGraphic" in2="effect1_dropShadow_74_6176" result="shape"/>
</filter>
</defs>
</svg>
