<svg width="174" height="82" viewBox="0 0 174 82" fill="none" xmlns="http://www.w3.org/2000/svg">
<g filter="url(#filter0_d_74_6191)">
<rect x="4.99997" y="4" width="163.5" height="72" rx="8" fill="#3D9292"/>
</g>
<mask id="mask0_74_6191" style="mask-type:alpha" maskUnits="userSpaceOnUse" x="5" y="4" width="164" height="72">
<rect x="4.99997" y="4" width="163.5" height="72" rx="8" fill="#3D9292"/>
</mask>
<g mask="url(#mask0_74_6191)">
<path d="M134.825 -4.04972C134.208 0.489589 132.704 4.86309 130.398 8.82108C128.092 12.7791 125.028 16.244 121.383 19.0181C117.737 21.7922 113.581 23.8211 109.151 24.989C104.722 26.1568 100.106 26.4408 95.5664 25.8246C91.027 25.2085 86.6535 23.7042 82.6956 21.3979C78.7376 19.0915 75.2726 16.0281 72.4985 12.3826C69.7244 8.73717 67.6955 4.581 66.5277 0.151425C65.3598 -4.27815 65.0759 -8.89437 65.692 -13.4337L66.8659 -13.2743C66.2707 -8.88919 66.545 -4.42974 67.6732 -0.150598C68.8014 4.12854 70.7614 8.14356 73.4413 11.6652C76.1212 15.1869 79.4684 18.1462 83.292 20.3743C87.1156 22.6023 91.3406 24.0555 95.7257 24.6507C100.111 25.2459 104.57 24.9716 108.849 23.8434C113.129 22.7152 117.144 20.7552 120.665 18.0753C124.187 15.3955 127.146 12.0482 129.374 8.22462C131.602 4.40105 133.055 0.176081 133.651 -4.20907L134.825 -4.04972Z" fill="white" fill-opacity="0.7"/>
</g>
<path d="M5 69.5V11C5 11 36.5 11 37.5 39C38.5 67 5 69.5 5 69.5Z" fill="#176868"/>
<path d="M23.5 30C24.3125 30 25 29.3367 25 28.4843V25.5157C25 24.6947 24.3436 24 23.5 24C22.6562 24 22 24.6633 22 25.5157V28.5157C21.9998 29.3369 22.6873 29.9999 23.5 29.9999V30Z" fill="white"/>
<path d="M34.4998 30C35.3123 30 35.9998 29.3367 35.9998 28.4843L36 25.5157C36 24.6947 35.3436 24 34.5 24C33.6875 24 33 24.6633 33 25.5157V28.5157C32.9998 29.3369 33.6562 29.9999 34.4998 29.9999L34.4998 30Z" fill="white"/>
<path d="M42.2017 41.1823V31.5042C42.2017 29.5686 40.6024 28 38.6287 28H37.3016V29.0345C37.3016 30.5362 36.0426 31.8044 34.4773 31.8044C32.9119 31.8044 31.6529 30.5697 31.6529 29.0345V28H26.5487V29.0345C26.5487 30.5362 25.2898 31.8044 23.7244 31.8044C22.159 31.8044 20.9001 30.5697 20.9001 29.0345V28H19.573C17.5994 28 16 29.5685 16 31.5042V47.2562C16 49.1918 17.5993 50.7604 19.573 50.7604H31.721C32.7758 53.7973 35.7023 56 39.1391 56C43.4607 56 46.9996 52.5294 46.9996 48.2909C47.0337 45.0867 45.0261 42.3503 42.2018 41.1819L42.2017 41.1823ZM31.3127 48.2907V48.4576H19.5731C18.8926 48.4576 18.382 47.9236 18.382 47.2895V35.2085H39.8196V40.6148C39.6155 40.5816 39.3772 40.5815 39.173 40.5815C34.8174 40.5815 31.3125 44.0522 31.3125 48.2907L31.3127 48.2907ZM39.1732 53.6637C36.1447 53.6637 33.6947 51.2609 33.6947 48.2907C33.6947 45.3205 36.1447 42.9177 39.1732 42.9177C42.2017 42.9177 44.6517 45.3205 44.6517 48.2907C44.6517 51.2609 42.1677 53.6637 39.1732 53.6637V53.6637Z" fill="white"/>
<path d="M40.2032 46.3211L38.3913 48.3031L37.7674 47.6207C37.3516 47.1658 36.6981 47.1658 36.3119 47.6207C35.896 48.0756 35.896 48.7904 36.3119 49.2129L37.6485 50.675C37.8565 50.9025 38.0939 51 38.3911 51C38.6583 51 38.9256 50.8701 39.1336 50.675L41.6881 47.8806C42.104 47.4257 42.104 46.7109 41.6881 46.2884C41.2725 45.8986 40.619 45.8986 40.2032 46.3211V46.3211Z" fill="white"/>
<defs>
<filter id="filter0_d_74_6191" x="-3.05176e-05" y="0" width="173.5" height="82" filterUnits="userSpaceOnUse" color-interpolation-filters="sRGB">
<feFlood flood-opacity="0" result="BackgroundImageFix"/>
<feColorMatrix in="SourceAlpha" type="matrix" values="0 0 0 0 0 0 0 0 0 0 0 0 0 0 0 0 0 0 127 0" result="hardAlpha"/>
<feOffset dy="1"/>
<feGaussianBlur stdDeviation="2.5"/>
<feComposite in2="hardAlpha" operator="out"/>
<feColorMatrix type="matrix" values="0 0 0 0 0 0 0 0 0 0 0 0 0 0 0 0 0 0 0.25 0"/>
<feBlend mode="normal" in2="BackgroundImageFix" result="effect1_dropShadow_74_6191"/>
<feBlend mode="normal" in="SourceGraphic" in2="effect1_dropShadow_74_6191" result="shape"/>
</filter>
</defs>
</svg>
