<svg width="24" height="24" viewBox="0 0 24 24" fill="none" xmlns="http://www.w3.org/2000/svg">
<g clip-path="url(#clip0_489_3240)">
<path d="M16 16L12 12L8 16" stroke="#1E38FC" stroke-width="2" stroke-linecap="round" stroke-linejoin="round"/>
<path d="M12 12V21" stroke="#1E38FC" stroke-width="2" stroke-linecap="round" stroke-linejoin="round"/>
<path d="M20.39 18.3905C21.3653 17.8587 22.1358 17.0174 22.5798 15.9991C23.0239 14.9808 23.1162 13.8437 22.8422 12.7672C22.5682 11.6906 21.9434 10.736 21.0666 10.0539C20.1898 9.37185 19.1108 9.00121 18 9.00047H16.74C16.4373 7.82971 15.8731 6.74281 15.0899 5.82147C14.3067 4.90012 13.3248 4.16832 12.2181 3.68108C11.1113 3.19384 9.90851 2.96383 8.70008 3.00835C7.49164 3.05288 6.30903 3.37077 5.24114 3.93814C4.17325 4.5055 3.24787 5.30758 2.53458 6.28405C1.82129 7.26053 1.33865 8.38601 1.12294 9.57587C0.90723 10.7657 0.964065 11.989 1.28917 13.1537C1.61428 14.3185 2.1992 15.3943 2.99996 16.3005" stroke="#1E38FC" stroke-width="2" stroke-linecap="round" stroke-linejoin="round"/>
<path d="M16 16L12 12L8 16" stroke="#1E38FC" stroke-width="2" stroke-linecap="round" stroke-linejoin="round"/>
</g>
<defs>
<clipPath id="clip0_489_3240">
<rect width="24" height="24" fill="white"/>
</clipPath>
</defs>
</svg>
